<?xml version="1.0" encoding="UTF-8"?>
<svg width="194px" height="46px" viewBox="0 0 194 46" version="1.1" xmlns="http://www.w3.org/2000/svg" xmlns:xlink="http://www.w3.org/1999/xlink">
    <!-- Generator: Sketch 39.1 (31720) - http://www.bohemiancoding.com/sketch -->
    <title>Logo</title>
    <desc>Created with Sketch.</desc>
    <defs>
        <filter x="-50%" y="-50%" width="200%" height="200%" filterUnits="objectBoundingBox" id="filter-1">
            <feOffset dx="0" dy="2" in="SourceAlpha" result="shadowOffsetOuter1"></feOffset>
            <feGaussianBlur stdDeviation="3.5" in="shadowOffsetOuter1" result="shadowBlurOuter1"></feGaussianBlur>
            <feColorMatrix values="0 0 0 0 0   0 0 0 0 0   0 0 0 0 0  0 0 0 0.200549139 0" type="matrix" in="shadowBlurOuter1" result="shadowMatrixOuter1"></feColorMatrix>
            <feMerge>
                <feMergeNode in="shadowMatrixOuter1"></feMergeNode>
                <feMergeNode in="SourceGraphic"></feMergeNode>
            </feMerge>
        </filter>
        <path d="M0.190040161,9.23266667 C0.190040161,10.4756667 0.45097992,11.6614667 0.965550201,12.7592667 C3.18390361,17.4826667 7.44007229,22.4715333 8.69068273,23.8883333 C8.78351004,23.9946667 8.92092369,24.0555333 9.06491566,24.0555333 C9.20963855,24.0555333 9.34559036,23.9946667 9.43987952,23.8883333 C10.69049,22.4715333 14.9451968,17.4841333 17.1635502,12.7592667 C17.6795823,11.6614667 17.941253,10.4756667 17.941253,9.23266667 C17.9397912,4.47186667 13.9584498,0.597666667 9.06491566,0.597666667 C4.1706506,0.597666667 0.190040161,4.47186667 0.190040161,9.23266667 L0.190040161,9.23266667 Z M4.454249,9.23266667 C4.454249,6.75986667 6.52276305,4.74686667 9.06491566,4.74686667 C11.6063373,4.74686667 13.6755823,6.75986667 13.6755823,9.23266667 C13.6755823,11.7062 11.6063373,13.7184667 9.06491566,13.7184667 C6.52276305,13.7184667 4.454249,11.7062 4.454249,9.23266667 L4.454249,9.23266667 Z" id="path-2"></path>
    </defs>
    <g id="Page-1" stroke="none" stroke-width="1" fill="none" fill-rule="evenodd">
        <g id="Home" transform="translate(-46.000000, -11.000000)">
            <g id="Header" filter="url(#filter-1)">
                <g id="Logo" transform="translate(52.000000, 5.000000)">
                    <g id="Group-8" transform="translate(0.000000, 11.000000)">
                        <g id="Page-1">
                            <g id="Group-19" transform="translate(0.000000, 0.080667)" fill="#014A84">
                                <path d="M2.215649,3.40963333 C1.79098233,3.40963333 1.4320988,3.26296667 1.13826747,2.96743333 C0.844436145,2.67263333 0.697520482,2.3133 0.697520482,1.8865 C0.697520482,1.46116667 0.844436145,1.10036667 1.13826747,0.805566667 C1.4320988,0.5115 1.79098233,0.3641 2.215649,0.3641 L19.208894,0.3641 C19.6328297,0.3641 19.9924442,0.5115 20.2862755,0.805566667 C20.5801068,1.10036667 20.7270225,1.46116667 20.7270225,1.8865 C20.7270225,2.3133 20.5801068,2.67263333 20.2862755,2.96743333 C19.9924442,3.26296667 19.6328297,3.40963333 19.208894,3.40963333 L12.2548859,3.40963333 L12.2548859,30.2364333 C12.2548859,30.6625 12.1079703,31.0225667 11.814139,31.3173667 C11.5203076,31.6121667 11.1606932,31.7595667 10.7367574,31.7595667 C10.3120908,31.7595667 9.95320723,31.6121667 9.6593759,31.3173667 C9.36554458,31.0225667 9.21862892,30.6625 9.21862892,30.2364333 L9.21862892,3.40963333 L2.215649,3.40963333 Z" id="Fill-1"></path>
                                <path d="M20.4331181,1.88635333 C20.4331181,1.46102 20.5800337,1.10022 20.8738651,0.80542 C21.1676964,0.511353333 21.5265799,0.363953333 21.9512466,0.363953333 C22.3751823,0.363953333 22.7347968,0.511353333 23.0286281,0.80542 C23.3224594,1.10022 23.4693751,1.46102 23.4693751,1.88635333 L23.4693751,10.1407533 C24.2200337,9.48588667 25.0854474,8.96155333 26.0648851,8.56848667 C27.0443229,8.17542 28.0888129,7.97962 29.1990859,7.97962 C30.4065719,7.97962 31.5497365,8.20842 32.6271181,8.66675333 C33.7044996,9.12655333 34.6430056,9.75648667 35.4433671,10.5587533 C36.2429976,11.3617533 36.870861,12.30262 37.3284193,13.3835533 C37.7852466,14.4644867 38.0140257,15.6121533 38.0140257,16.8228867 L38.0140257,30.2362867 C38.0140257,30.6623533 37.86711,31.02242 37.5732787,31.31722 C37.2794474,31.61202 36.9198329,31.75942 36.4958972,31.75942 C36.0712305,31.75942 35.712347,31.61202 35.4185157,31.31722 C35.1246843,31.02242 34.9777687,30.6623533 34.9777687,30.2362867 L34.9777687,16.8228867 C34.9777687,16.0374867 34.8228129,15.29242 34.5129012,14.5876867 C34.2022586,13.8829533 33.7856321,13.2691533 33.2637526,12.74482 C32.7411422,12.2219533 32.1286281,11.8112867 31.4276723,11.51722 C30.7252546,11.2216867 29.9826361,11.0742867 29.1990859,11.0742867 C28.4155357,11.0742867 27.6809574,11.2216867 26.995351,11.51722 C26.3097446,11.8112867 25.7052707,12.2043533 25.1833912,12.6956867 C24.6607807,13.18702 24.2529253,13.7692867 23.959094,14.4402867 C23.6652627,15.11202 23.5015357,15.8240867 23.4693751,16.57722 L23.4693751,30.2362867 C23.4693751,30.6953533 23.3304996,31.06422 23.0527486,31.3421533 C22.7757285,31.62082 22.4080739,31.75942 21.9512466,31.75942 C21.5265799,31.75942 21.1757365,31.61202 20.8987165,31.31722 C20.6209655,31.02242 20.4652787,30.6623533 20.4331181,30.2362867 L20.4331181,1.88635333 Z" id="Fill-3"></path>
                                <path d="M60.4436618,18.2975467 C60.2470434,17.28188 59.8874289,16.33148 59.3655494,15.44708 C58.8436699,14.56268 58.1982643,13.80148 57.4315253,13.1627467 C56.6633245,12.5240133 55.7986418,12.01728 54.8360153,11.6396133 C53.8726578,11.2634133 52.8522884,11.0742133 51.7756378,11.0742133 C50.6975253,11.0742133 49.6771558,11.2634133 48.7145293,11.6396133 C47.7511719,12.01728 46.8857582,12.5240133 46.1190193,13.1627467 C45.3515494,13.80148 44.7149149,14.56268 44.2091157,15.44708 C43.7025855,16.33148 43.3517422,17.28188 43.1558546,18.2975467 L60.4436618,18.2975467 Z M43.1068827,21.34308 C43.2698787,22.39248 43.6126819,23.3663467 44.1352924,24.2676133 C44.6571719,25.1681467 45.3025775,25.9462133 46.0700474,26.6003467 C46.8367863,27.25668 47.7109711,27.7722133 48.6904088,28.1491467 C49.6698466,28.5253467 50.6975253,28.71308 51.7756378,28.71308 C52.9831237,28.71308 54.1094771,28.4923467 55.154698,28.0501467 C56.198457,27.6072133 57.1289229,26.9934133 57.9453647,26.2080133 C58.239196,25.9132133 58.5988104,25.7658133 59.0234771,25.7658133 C59.4474129,25.7658133 59.8070273,25.9132133 60.1001277,26.2080133 C60.393959,26.50208 60.5408747,26.8636133 60.5408747,27.2882133 C60.5408747,27.7150133 60.393959,28.0743467 60.1001277,28.3691467 C59.0234771,29.5813467 57.8064892,30.44228 56.4520876,30.9490133 C55.0976859,31.4572133 53.5386257,31.7109467 51.7756378,31.7109467 C50.1420233,31.7109467 48.6158546,31.4161467 47.1964008,30.8258133 C45.7762161,30.2362133 44.5277984,29.4178133 43.4504169,28.3691467 C42.3723044,27.3219467 41.5229711,26.0767467 40.9038787,24.6357467 C40.2825936,23.1947467 39.9726819,21.6217467 39.9726819,19.9189467 C39.9726819,18.2814133 40.2745534,16.74948 40.8790273,15.32388 C41.4827703,13.8997467 42.3152924,12.6560133 43.3765936,11.59048 C44.4371639,10.52568 45.6943526,9.67354667 47.1474289,9.03554667 C48.5997743,8.39681333 50.1749149,8.04554667 51.8728506,7.97954667 C53.4070594,7.97954667 54.8849871,8.29048 56.3051719,8.91308 C57.7253566,9.53494667 58.9737743,10.38708 60.0511558,11.4680133 C61.1285373,12.5482133 61.9932201,13.80148 62.6466659,15.22708 C63.2993807,16.6512133 63.6261036,18.1831467 63.6261036,19.8199467 C63.6261036,20.31128 63.4631076,20.6882133 63.1371157,20.9500133 C62.8096618,21.21328 62.4675896,21.34308 62.1079751,21.34308 L43.1068827,21.34308 Z" id="Fill-5"></path>
                                <path d="M109.632561,9.45318 C109.632561,9.02784667 109.779476,8.66704667 110.073308,8.37151333 C110.366408,8.07744667 110.726022,7.93004667 111.149958,7.93004667 C111.573894,7.93004667 111.933508,8.07744667 112.228071,8.37151333 C112.521902,8.66704667 112.668818,9.02784667 112.668818,9.45318 L112.668818,22.91498 C112.668818,23.7018467 112.823043,24.4469133 113.133685,25.1509133 C113.443597,25.8556467 113.859492,26.47018 114.382103,26.99378 C114.904713,27.5181133 115.517227,27.92658 116.219645,28.2221133 C116.920601,28.5169133 117.66395,28.6643133 118.4475,28.6643133 C119.23032,28.6643133 119.965629,28.5169133 120.650504,28.2221133 C121.336842,27.92658 121.931814,27.5342467 122.438344,27.0429133 C122.944143,26.55158 123.351998,25.9700467 123.662641,25.2983133 C123.972553,24.6273133 124.14432,23.9152467 124.17648,23.16138 L124.17648,9.45318 C124.17648,9.02784667 124.324127,8.66704667 124.617958,8.37151333 C124.91179,8.07744667 125.270673,7.93004667 125.69534,7.93004667 C126.119276,7.93004667 126.478159,8.07744667 126.77199,8.37151333 C127.066553,8.66704667 127.213468,9.02784667 127.213468,9.45318 L127.213468,30.23658 C127.213468,30.6626467 127.066553,31.0227133 126.77199,31.31678 C126.478159,31.6123133 126.119276,31.7597133 125.69534,31.7597133 C125.270673,31.7597133 124.91179,31.6123133 124.617958,31.31678 C124.324127,31.0227133 124.17648,30.6626467 124.17648,30.23658 L124.17648,29.5978467 C123.425822,30.2527133 122.560408,30.7770467 121.581701,31.16938 C120.602263,31.56318 119.557043,31.7597133 118.4475,31.7597133 C117.238553,31.7597133 116.09685,31.53018 115.018737,31.0718467 C113.942087,30.6135133 113.00285,29.98358 112.20395,29.1798467 C111.402858,28.3783133 110.774263,27.4352467 110.317436,26.3550467 C109.860609,25.2741133 109.632561,24.1279133 109.632561,22.91498 L109.632561,9.45318 Z" id="Fill-9"></path>
                                <path d="M130.102663,9.40448667 C130.102663,8.97915333 130.248848,8.61835333 130.54341,8.32282 C130.836511,8.02802 131.195394,7.88062 131.620061,7.88062 C132.043997,7.88062 132.403611,8.02802 132.698173,8.32282 C132.991274,8.61835333 133.13819,8.97915333 133.13819,9.40448667 L133.13819,11.8112867 C134.18268,10.6650867 135.440599,9.72422 136.909756,8.98648667 C138.378182,8.24948667 139.977443,7.88062 141.709001,7.88062 C142.230149,7.88062 142.646776,8.02802 142.957418,8.32282 C143.26733,8.61835333 143.422286,8.97915333 143.422286,9.40448667 C143.422286,9.82982 143.26733,10.1898867 142.957418,10.4846867 C142.646776,10.7794867 142.230149,10.9268867 141.709001,10.9268867 C140.533676,10.9268867 139.438752,11.15642 138.427153,11.6147533 C137.414824,12.0745533 136.52529,12.6956867 135.758551,13.4825533 C134.99035,14.2686867 134.370527,15.16922 133.896888,16.1848867 C133.423981,17.2005533 133.17035,18.26462 133.13819,19.3785533 L133.13819,30.2362867 C133.13819,30.6623533 132.991274,31.02242 132.698173,31.31722 C132.403611,31.61202 132.043997,31.75942 131.620061,31.75942 C131.195394,31.75942 130.836511,31.61202 130.54341,31.31722 C130.248848,31.02242 130.102663,30.6623533 130.102663,30.2362867 L130.102663,9.40448667 Z" id="Fill-11"></path>
                                <path d="M146.067353,9.40448667 C146.067353,8.97915333 146.214268,8.61835333 146.5081,8.32282 C146.8012,8.02802 147.160814,7.88062 147.58475,7.88062 C148.008686,7.88062 148.3683,8.02802 148.662863,8.32282 C148.956694,8.61835333 149.102879,8.97915333 149.102879,9.40448667 L149.102879,30.2362867 C149.102879,30.6623533 148.956694,31.02242 148.662863,31.31722 C148.3683,31.61202 148.008686,31.75942 147.58475,31.75942 C147.160814,31.75942 146.8012,31.61202 146.5081,31.31722 C146.214268,31.02242 146.067353,30.6623533 146.067353,30.2362867 L146.067353,9.40448667 Z M145.577634,2.37768667 C145.577634,1.82108667 145.773521,1.34662 146.164565,0.953553333 C146.557071,0.559753333 147.029248,0.363953333 147.58475,0.363953333 C148.140252,0.363953333 148.61316,0.559753333 149.005666,0.953553333 C149.397441,1.34662 149.592598,1.82108667 149.592598,2.37768667 C149.592598,2.93502 149.397441,3.40948667 149.005666,3.80255333 C148.61316,4.19562 148.140252,4.39288667 147.58475,4.39288667 C147.029248,4.39288667 146.557071,4.19562 146.164565,3.80255333 C145.773521,3.40948667 145.577634,2.93502 145.577634,2.37768667 L145.577634,2.37768667 Z" id="Fill-13"></path>
                                <path d="M152.139574,14.1209933 C152.139574,12.9747933 152.367622,12.00826 152.825181,11.2221267 C153.282008,10.4359933 153.885751,9.79726 154.637141,9.30592667 C155.387799,8.81459333 156.235671,8.46259333 157.183679,8.24919333 C158.130225,8.03652667 159.076771,7.93019333 160.024048,7.93019333 C160.806867,7.93019333 161.64012,8.02112667 162.521614,8.20006 C163.403108,8.38046 164.218819,8.65106 164.970209,9.01039333 C165.720867,9.37119333 166.342153,9.81412667 166.831871,10.3377267 C167.32159,10.86206 167.564988,11.4839267 167.564988,12.2047933 C167.564988,12.5655933 167.442924,12.91686 167.198795,13.2607933 C166.953936,13.60546 166.55339,13.77706 165.998618,13.77706 C165.378064,13.77706 164.904426,13.41626 164.579165,12.6961267 C164.284602,12.07426 163.71302,11.6071267 162.864418,11.29546 C162.015084,10.9845267 161.068538,10.82906 160.024048,10.82906 C159.467815,10.82906 158.905735,10.8701267 158.334884,10.9515267 C157.76257,11.03366 157.248,11.1979267 156.791173,11.44286 C156.334345,11.68926 155.95061,12.0251267 155.640699,12.45046 C155.330056,12.8765267 155.1751,13.4331267 155.1751,14.1209933 C155.1751,14.6123267 155.330056,15.0383933 155.640699,15.39846 C155.95061,15.75926 156.343116,16.0613933 156.816024,16.30706 C157.289663,16.5527267 157.812273,16.7419267 158.383124,16.87246 C158.953976,17.0037267 159.500707,17.1181267 160.024048,17.2163933 C161.230803,17.4121933 162.365928,17.7003933 163.427229,18.07586 C164.48853,18.4527933 165.418265,18.93606 166.219357,19.5249267 C167.018257,20.11526 167.655622,20.8199933 168.129261,21.6383933 C168.601438,22.4567933 168.838988,23.40646 168.838988,24.4881267 C168.838988,25.56906 168.610209,26.5605267 168.153382,27.4603267 C167.695092,28.3623267 167.067229,29.1315933 166.267598,29.7703267 C165.467237,30.40906 164.529462,30.9003933 163.452811,31.2443267 C162.374699,31.5875267 161.230803,31.75986 160.024048,31.75986 C157.96796,31.75986 156.163309,31.2853933 154.61302,30.33426 C153.061269,29.3845933 152.024819,28.0741267 151.50294,26.4043267 C151.470048,26.3053267 151.453968,26.1579267 151.453968,25.9613933 C151.453968,25.53606 151.592112,25.15986 151.870594,24.8313267 C152.147614,24.5049933 152.514538,24.3407267 152.972827,24.3407267 C153.33098,24.3407267 153.648932,24.44706 153.926683,24.6597267 C154.203703,24.8731267 154.424442,25.15986 154.5889,25.5199267 C155.012104,26.5685933 155.739373,27.3627933 156.767052,27.9025267 C157.795462,28.4429933 158.881614,28.71286 160.024048,28.71286 C161.62404,28.71286 162.987213,28.3447267 164.113566,27.6077267 C165.23992,26.87146 165.802,25.8315933 165.802,24.4881267 C165.802,23.40646 165.247229,22.4897933 164.137687,21.73666 C163.027414,20.9827933 161.656932,20.4921933 160.024048,20.26266 C157.673398,19.9355933 155.770803,19.2887933 154.318458,18.32226 C152.865382,17.3557267 152.139574,15.9557933 152.139574,14.1209933" id="Fill-15"></path>
                                <path d="M173.735373,1.88635333 C173.735373,1.46102 173.882288,1.10022 174.176851,0.80542 C174.470682,0.511353333 174.828835,0.363953333 175.254232,0.363953333 C175.678168,0.363953333 176.037782,0.511353333 176.331614,0.80542 C176.624714,1.10022 176.77163,1.46102 176.77163,1.88635333 L176.77163,7.88062 L180.038128,7.88062 C180.466449,7.88062 180.828987,8.02802 181.125742,8.32282 C181.423228,8.61835333 181.571606,8.97915333 181.571606,9.40448667 C181.571606,9.82982 181.423228,10.1898867 181.125742,10.4846867 C180.828987,10.7794867 180.466449,10.9268867 180.038128,10.9268867 L176.77163,10.9268867 L176.77163,30.2362867 C176.77163,30.6623533 176.627638,31.02242 176.338192,31.31722 C176.049477,31.61202 175.696441,31.75942 175.278353,31.75942 C174.860264,31.75942 174.507959,31.61202 174.217782,31.31722 C173.929067,31.02242 173.785076,30.6623533 173.785076,30.2362867 L173.785076,10.9268867 L170.519308,10.9268867 C170.090987,10.9268867 169.728449,10.7794867 169.430963,10.4846867 C169.134208,10.1898867 168.985831,9.82982 168.985831,9.40448667 C168.985831,8.97915333 169.132746,8.61835333 169.425847,8.32282 C169.720409,8.02802 170.079292,7.88062 170.503228,7.88062 L173.735373,7.88062 L173.735373,1.88635333 Z" id="Fill-17"></path>
                            </g>
                            <g id="Group-22" transform="translate(88.441767, 7.414000)">
                                <mask id="mask-3" fill="white">
                                    <use xlink:href="#path-2"></use>
                                </mask>
                                <g id="Clip-21"></g>
                                <polygon id="Fill-20" fill="#E3A03A" mask="url(#mask-3)" points="-1.73959839 25.9915333 19.8708916 25.9915333 19.8708916 -1.33833333 -1.73959839 -1.33833333"></polygon>
                            </g>
                        </g>
                    </g>
                    <text id="T" font-family="Antipasto" font-size="48" font-weight="normal" fill="#014A84">
                        <tspan x="69" y="43">T</tspan>
                    </text>
                </g>
            </g>
        </g>
    </g>
</svg>