<?xml version="1.0" encoding="UTF-8"?>
<svg width="129px" height="84px" viewBox="0 0 129 84" version="1.1" xmlns="http://www.w3.org/2000/svg" xmlns:xlink="http://www.w3.org/1999/xlink">
    <!-- Generator: Sketch 39.1 (31720) - http://www.bohemiancoding.com/sketch -->
    <title>Fill 1</title>
    <desc>Created with Sketch.</desc>
    <defs></defs>
    <g id="Page-1" stroke="none" stroke-width="1" fill="none" fill-rule="evenodd">
        <g id="Desktop" transform="translate(-45.000000, -1238.000000)" fill="#113f68">
            <g id="ACTIVIDADES" transform="translate(-16.000000, 1035.000000)">
                <g id="Page-1" transform="translate(61.000000, 203.000000)">
                    <path d="M1.89914377,30.1282489 C2.58638818,29.5203378 3.34493291,28.9111822 3.8055,28.1408711 C6.24042652,24.0694637 9.93279393,21.7363378 14.2586214,20.2177007 C15.2939185,19.8541156 16.3046933,19.419597 17.3428754,19.0651378 C17.8660879,18.88656 18.1195543,18.6231526 17.8817492,18.081197 C15.8383562,13.4213748 16.6607827,8.6750637 17.444262,3.92792296 C17.5961358,3.00807111 17.719778,2.08344889 17.8629968,1.16193778 C18.0501086,-0.0418548148 18.4770863,-0.302773333 19.5266022,0.34413037 C20.6317572,1.0252563 21.6621086,1.83601185 22.6916358,2.63411556 C27.7428307,6.54955259 30.1402524,12.0551822 31.7028834,18.0349452 C31.9711869,19.0620267 32.475647,19.6282489 33.4979617,19.8862637 C39.585278,21.4231526 45.2740543,24.0030933 50.9199681,26.6910933 C52.2520064,27.3253452 53.5768323,27.9795081 54.9331869,28.5575526 C56.5434201,29.2436563 57.1430847,28.780723 57.0868275,26.9843674 C57.0761118,26.6452563 57.085385,26.305523 57.085385,25.5951526 C58.4860447,26.3270933 59.7678019,26.8601304 60.8995399,27.6194489 C62.8038355,28.8968711 64.6277636,30.2981156 66.4586981,31.6831822 C69.6970927,34.1328711 73.2963163,35.8064415 77.2819217,36.4612267 C81.9504441,37.2284267 86.6459617,37.8444267 91.3441581,38.4027674 C92.2661166,38.5124859 93.3510767,38.2567526 94.1951406,37.8340563 C98.0414425,35.9076563 102.071147,35.0452563 106.349784,35.3820859 C111.244366,35.7674489 116.085987,35.3076267 120.906589,34.4954193 C122.536399,34.2208119 124.112837,34.3473304 125.653006,34.9846933 C127.148046,35.6033896 127.946981,36.6713304 127.92081,38.3222933 C127.904736,39.3246933 128.098236,40.2360415 129,40.8398044 L129,42.2916563 C128.109158,44.1568711 126.425976,44.8784415 124.616061,45.5390341 C120.026463,47.2144711 116.28093,50.1239822 113.129497,53.8369896 C111.750268,55.4618193 110.448935,57.1567526 109.019013,58.7338785 C108.076241,59.7738193 106.992105,60.6907674 105.923219,61.6060563 C105.21104,62.2156267 104.990339,62.8718637 105.213513,63.7979378 C105.845736,66.420397 107.181896,68.6228563 108.98872,70.5764267 C110.768756,72.5007526 112.255553,74.5874785 112.455647,77.3352119 C112.612054,79.4854044 112.16653,81.4775526 110.725687,83.1227081 C110.359294,83.5410489 109.70976,83.9751526 109.229823,83.9342933 C108.896813,83.9058785 108.483642,83.1115081 108.362061,82.5979674 C107.92107,80.7366933 107.395591,78.9166933 106.2383,77.3692267 C105.436893,76.2973452 104.582938,75.2576119 103.677465,74.2734637 C101.513109,71.9216711 99.8350783,69.3344711 99.4470479,66.0624119 C99.4363323,65.9721896 99.3495767,65.8910933 99.2539601,65.7320119 C97.7018387,66.2341452 96.1474505,66.7364859 94.5934744,67.2400711 C89.2467748,68.9723378 83.9427316,68.4270637 78.698861,66.817997 C77.2448291,66.3718637 76.247655,66.6734341 75.1997875,67.7154489 C71.6728946,71.2225007 68.5836949,75.0848415 65.6954137,79.1276267 C63.7810208,81.8073304 59.9435799,83.1349452 57.1220655,82.1800415 C54.6883754,81.3564267 54.3399105,79.7340859 56.0727556,77.8300859 C58.6395671,75.00976 61.2197732,72.1921304 63.6149281,69.2264119 C65.2426773,67.2108267 66.2404696,64.8015822 66.9089617,62.263123 C67.1191534,61.4648119 66.8498195,61.1028859 66.2952843,60.6360119 C63.7470192,58.4903822 61.0444073,56.4822637 58.7665064,54.07136 C55.7490192,50.878323 53.0429042,47.3828859 50.2609553,43.9697896 C45.5075319,38.1381156 40.1418738,33.0060267 33.7201054,29.0565748 C32.9306502,28.5710341 32.1242971,28.1085156 31.3004281,27.6854044 C30.2014553,27.1214637 29.154,27.1726933 28.1195272,27.9452859 C24.8259058,30.4045156 21.3497061,32.5493156 17.3558578,33.6550044 C12.1942093,35.0838341 7.01689936,35.4459674 1.88987061,33.4870044 C1.21272364,33.2283674 0.627690096,32.7258193 0,32.3361007 L0,31.5064711 C0.636757188,31.0512119 1.31555272,30.6444859 1.89914377,30.1282489 Z" id="Fill-1"></path>
                </g>
            </g>
        </g>
    </g>
</svg>
