<?xml version="1.0" encoding="UTF-8"?>
<svg width="92px" height="59px" viewBox="0 0 92 59" version="1.1" xmlns="http://www.w3.org/2000/svg" xmlns:xlink="http://www.w3.org/1999/xlink">
    <!-- Generator: Sketch 39.1 (31720) - http://www.bohemiancoding.com/sketch -->
    <title>Page 1</title>
    <desc>Created with Sketch.</desc>
    <defs>
        <polygon id="path-1" points="28.6323282 30 0 30 0 0.9957 28.6323282 0.9957 28.6323282 30"></polygon>
    </defs>
    <g id="Page-1" stroke="none" stroke-width="1" fill="none" fill-rule="evenodd">
        <g id="Desktop" transform="translate(-706.000000, -1258.000000)">
            <g id="ACTIVIDADES" transform="translate(-16.000000, 1035.000000)">
                <g id="Page-1" transform="translate(722.000000, 223.000000)">
                    <path d="M71.0818,49.6588 C74.4948,49.6078 77.0228,47.0248 77.0018,43.6098 C76.9808,40.2778 74.3058,37.5958 70.9958,37.5908 C67.5608,37.5858 64.8518,40.3678 64.9398,43.8128 C65.0248,47.1718 67.6918,49.7098 71.0818,49.6588 M61.9818,32.5478 C65.0718,32.5108 65.8448,28.5968 68.5568,30.4738 C70.5048,27.7388 72.6628,31.3238 74.4838,30.3378 C77.2478,28.8398 77.4088,34.0528 80.0808,32.2868 C80.2578,34.7508 82.6258,35.5068 83.8668,37.1408 C81.4928,39.3558 87.4008,40.7938 84.4228,43.0658 C85.8118,45.3458 84.6188,47.1458 83.3328,48.9288 C85.4368,52.0878 79.3008,51.3668 80.8268,54.2528 C78.7758,54.8898 76.8328,55.7048 75.4698,57.4818 C73.4828,55.0588 70.8348,60.0358 68.9128,56.8968 C66.1128,58.7048 64.8588,55.3478 62.6928,54.8178 C60.8868,54.3758 58.3188,51.7128 58.4088,50.1688 C58.5278,48.1148 57.2898,47.5818 56.7698,46.3208 C56.2878,45.1518 56.6388,43.5188 56.9638,42.1718 C57.2858,40.8428 58.8088,39.3058 58.4468,38.4068 C57.4598,35.9568 59.3918,36.1408 60.4118,35.2388 C61.3068,34.4468 61.6908,33.0778 61.9818,32.5478" id="Fill-1" fill-opacity="0.854506341" fill="#113f68"></path>
                    <g id="Group-5" transform="translate(0.000000, 28.126800)">
                        <mask id="mask-2" fill="white">
                            <use xlink:href="#path-1"></use>
                        </mask>
                        <g id="Clip-4"></g>
                        <path d="M20.4223,15.5387 C20.4363,12.2847 17.6923,9.5027 14.4233,9.4567 C11.1503,9.4107 8.3433,12.0977 8.2513,15.3677 C8.1583,18.6787 10.8193,21.6487 13.9653,21.7427 C17.3683,21.8437 20.4083,18.9227 20.4223,15.5387 M6.5783,4.8627 C7.9943,1.2897 11.7943,3.2237 13.7923,0.9957 C15.8453,2.9557 19.5883,0.7377 21.1283,3.9657 C24.6653,3.8337 24.6353,7.9427 27.1463,9.0297 C24.9323,11.1987 30.7563,12.5227 27.7503,14.7757 C28.6793,17.0687 28.2733,19.1237 26.6473,20.9617 C28.8853,24.1437 22.5133,23.1957 24.1803,26.1037 C22.1193,26.7447 20.1703,27.5687 18.8253,29.3797 C16.8813,27.3017 14.7363,30.7947 13.9303,29.8267 C12.2053,27.7537 9.2783,29.9577 9.0383,28.9037 C8.3993,26.0987 4.8483,27.0747 4.9403,26.2367 C5.2523,23.3817 1.4523,23.8267 1.8053,22.1607 C2.2403,20.1017 1.3093,19.4987 0.2203,18.2487 C-0.4297,17.5027 0.9043,15.1957 0.3163,14.1937 C-1.0787,11.8147 2.6343,11.9637 1.9093,10.3817 C0.9303,8.2477 2.2833,7.9687 3.7163,7.1347 C4.6813,6.5737 5.0433,4.9777 5.6743,3.8447 C5.9753,4.1837 6.2773,4.5237 6.5783,4.8627" id="Fill-3" fill-opacity="0.854506341" fill="#113f68" mask="url(#mask-2)"></path>
                    </g>
                    <path d="M51.4232,42.5696 L35.3332,42.5696 L35.3332,39.8066 C39.1512,39.8066 42.8782,39.8096 46.6042,39.8056 C50.2252,39.8016 51.5252,38.6406 52.3762,35.0486 C53.1032,31.9826 53.9062,28.9206 54.9372,25.9476 C55.2752,24.9736 56.2852,23.9576 57.2432,23.5236 C60.9992,21.8176 64.7902,20.2746 66.9302,16.3656 C67.1722,15.9226 68.0512,15.6476 68.6552,15.6116 C74.1952,15.2766 79.7372,14.9286 85.2842,14.7546 C88.8762,14.6426 91.2132,17.3146 91.1872,21.5136 C87.0492,21.5136 82.8872,21.3186 78.7512,21.5616 C73.1332,21.8906 67.5202,22.4476 61.9372,23.1596 C60.6892,23.3186 59.0552,24.2436 58.4892,25.2956 C56.3642,29.2426 54.5302,33.3556 52.7542,37.4786 C52.0892,39.0216 51.8802,40.7606 51.4232,42.5696" id="Fill-6" fill-opacity="0.854506341" fill="#113f68"></path>
                    <path d="M27.3794,14.6904 C29.6154,14.2394 32.3254,13.5644 35.0764,13.2114 C35.9414,13.0994 37.1064,13.6284 37.8124,14.2374 C42.2824,18.0934 46.9474,19.0354 52.4174,16.2054 C55.8534,14.4284 59.6134,14.1054 63.7244,16.4884 C62.1794,17.5544 60.9414,18.6684 59.5004,19.3544 C54.6474,21.6624 49.6954,23.7604 44.8374,26.0574 C42.5844,27.1234 40.7904,26.8414 38.6534,25.5034 C36.5054,24.1584 35.1804,22.5374 33.8324,20.4034 C32.3684,18.0864 29.6154,16.5854 27.3794,14.6904" id="Fill-8" fill-opacity="0.854506341" fill="#113f68"></path>
                    <path d="M33.8105,42.7389 C31.0635,41.9389 31.1605,40.1959 30.8885,38.6369 C30.3905,35.7899 30.1535,32.8509 29.2565,30.1309 C27.6735,25.3299 25.0075,23.5549 19.9805,23.8169 C16.2365,24.0119 12.5215,24.7339 8.7795,25.0489 C6.5755,25.2339 4.3445,25.0829 2.1245,25.0829 C2.0915,24.7989 2.0575,24.5149 2.0245,24.2319 C3.1205,23.8659 4.2145,23.4909 5.3145,23.1359 C10.3545,21.5129 15.3885,19.8739 20.4375,18.2809 C26.8465,16.2589 32.0285,19.0919 32.8955,25.6569 C33.6265,31.1879 33.5265,36.8279 33.8105,42.7389" id="Fill-10" fill-opacity="0.854506341" fill="#113f68"></path>
                    <path d="M12.4079,17.9141 C15.7379,10.8881 19.5369,4.8661 26.2999,0.0001 C25.7729,5.1381 25.3209,9.5421 24.8179,14.4431 C21.4059,15.3971 17.1379,16.5911 12.4079,17.9141" id="Fill-12" fill-opacity="0.854506341" fill="#113f68"></path>
                    <path d="M43.2282,33.4679 C41.6762,32.3789 40.8112,31.3079 39.9502,31.3109 C39.2202,31.3139 37.8462,32.6419 37.9212,33.2349 C38.0322,34.1079 39.0972,35.3679 39.9092,35.4979 C40.6782,35.6209 41.6462,34.4989 43.2282,33.4679 M36.2542,37.0319 L36.2542,26.9669 C41.5812,32.7559 46.3932,27.8549 51.5262,26.1909 C50.8172,29.2919 50.3042,32.2189 49.4132,35.0249 C49.1452,35.8659 47.8572,36.8839 46.9792,36.9409 C43.5842,37.1639 40.1652,37.0319 36.2542,37.0319" id="Fill-14" fill-opacity="0.854506341" fill="#113f68"></path>
                    <path d="M57.629,32.3383 C59.073,28.5323 60.609,25.4373 65.554,25.0903 C74.05,24.4943 82.511,23.7423 91.022,24.2293 C91.117,24.5143 91.212,24.7993 91.306,25.0843 C90.512,25.3903 89.731,25.9183 88.922,25.9663 C82.367,26.3563 75.807,26.6613 69.248,26.9793 C64.679,27.2013 60.182,27.5643 57.629,32.3383" id="Fill-16" fill-opacity="0.854506341" fill="#113f68"></path>
                    <path d="M27.7006,11.1981 C27.8996,10.1501 27.9376,9.0301 28.3636,8.0851 C28.5816,7.6021 29.4966,7.4331 30.0966,7.1231 C30.2866,7.8181 30.8386,8.7041 30.5926,9.1711 C30.0726,10.1581 29.1376,10.9271 28.3726,11.7851 C28.1486,11.5901 27.9246,11.3941 27.7006,11.1981" id="Fill-18" fill-opacity="0.854506341" fill="#113f68"></path>
                    <path d="M70.9424,40.3694 C72.0144,41.9354 73.0714,42.8114 73.0674,43.6834 C73.0644,44.4074 71.7314,45.7714 71.1354,45.6954 C70.2624,45.5844 68.9804,44.5094 68.8764,43.7144 C68.7724,42.9154 69.8974,41.9554 70.9424,40.3694" id="Fill-20" fill-opacity="0.854506341" fill="#113f68"></path>
                    <path d="M17.6185,43.9936 C15.9285,44.8686 14.8655,45.8796 14.0945,45.6916 C13.3025,45.4986 12.3505,44.1526 12.3175,43.2786 C12.2945,42.6806 13.7825,41.4686 14.4925,41.5406 C15.3715,41.6306 16.1445,42.7646 17.6185,43.9936" id="Fill-22" fill-opacity="0.854506341" fill="#113f68"></path>
                </g>
            </g>
        </g>
    </g>
</svg>
