<?xml version="1.0" encoding="UTF-8"?>
<svg width="35px" height="50px" viewBox="0 0 35 50" version="1.1" xmlns="http://www.w3.org/2000/svg" xmlns:xlink="http://www.w3.org/1999/xlink">
    <!-- Generator: Sketch 39.1 (31720) - http://www.bohemiancoding.com/sketch -->
    <title>Fill 1</title>
    <desc>Created with Sketch.</desc>
    <defs></defs>
    <g id="Page-1" stroke="none" stroke-width="1" fill="none" fill-rule="evenodd">
        <g id="Desktop" transform="translate(-87.000000, -44.000000)" fill="#113f68">
            <path d="M98.5120647,44.6264791 C98.0943284,45.2111095 97.8437368,44.668328 96.8413701,45.1276625 C95.8390035,45.586997 96.9248171,46.0047333 95.3378202,46.1718779 C93.7508232,46.338772 95.9224505,47.5917303 93.4165339,47.550132 C90.9106173,47.5082832 91.4536494,48.4688011 89.1564757,48.385354 C86.8595525,48.301907 86.5671121,50.3066403 87.4860317,50.0560486 C88.4047007,49.805457 89.1148775,49.4295695 90.1588423,50.2647915 C90.1588423,50.2647915 91.2449066,50.8912706 90.325987,50.8494218 C89.4070673,50.8078236 86.4418162,51.5177498 89.1564757,52.7288593 C91.8713857,53.9402194 91.7460899,55.1094801 90.5765786,55.9449526 C89.4070673,56.7801746 87.9453662,58.7014609 90.6184274,58.9520526 C93.2912381,59.2026442 90.1172441,60.914937 89.657659,61.2073775 C89.1983245,61.4995674 89.8248036,63.7548923 90.7437233,65.2584423 C91.6623923,66.7619922 91.7042411,66.0939149 94.5860452,64.8409566 L97.4678493,63.5879983 C97.4678493,63.5879983 98.0108814,63.253709 98.5120647,63.5879983 C99.013248,63.922037 97.5512963,63.8385899 96.0477463,64.5903649 C94.5441964,65.3421399 93.6826622,65.6343298 93.7167427,67.8896547 C93.7167427,67.8896547 93.3749357,69.4350535 94.4607493,68.7667255 C95.546563,68.0986481 96.1730422,69.810941 96.7160743,67.6809118 C96.7160743,67.6809118 96.7995213,66.9709857 98.0943284,67.7227607 C98.0943284,67.7227607 98.8042546,68.223944 99.1385439,67.4303202 C99.1385439,67.4303202 100.057213,67.1378797 99.8903188,67.8480565 C99.7231742,68.5579827 96.5073314,69.6021981 95.8390035,70.9804522 C95.1706755,72.3587064 99.6397272,71.5650826 99.6397272,71.5650826 C99.6397272,71.5650826 100.976132,71.4816356 101.226724,72.0244171 C101.477316,72.5674492 101.435467,72.9851855 97.6349939,73.361073 C97.6349939,73.361073 96.0061481,73.6532629 95.5884118,74.2381438 C95.1706755,74.8227741 94.7531898,72.9851855 93.2496399,73.9457033 C93.2496399,73.9457033 92.4334628,74.7393271 94.1570323,75.7416938 L94.711341,76.0338836 C94.711341,76.0338836 92.5813119,76.8693562 93.3749357,77.8717229 C94.1683089,78.8740895 94.1683089,79.7511603 93.959566,81.0457168 C93.7508232,82.3405239 95.2125243,82.7582602 95.2125243,82.7582602 C95.2125243,82.7582602 97.1338106,83.2594436 97.1754088,80.6698293 C97.1754088,80.6698293 97.2172576,80.001752 98.0108814,80.4610865 C98.8042546,80.920421 99.5146819,79.7093115 100.433351,80.6698293 C101.35202,81.6305978 102.730274,81.5469002 100.808988,84.5540001 C98.8879522,87.5611 101.226724,87.7700934 101.226724,87.7700934 C101.226724,87.7700934 102.312538,87.6863958 102.646827,87.0599167 C102.980866,86.4334375 105.027448,87.5195018 103.273306,88.0622833 C101.519165,88.6053154 101.93665,89.0646499 101.727907,90.0254184 C101.727907,90.0254184 100.600496,90.4013059 100.433351,90.9024892 C100.266206,91.4036725 102.061946,91.2365279 102.061946,91.2365279 L101.05958,92.9488207 C101.05958,92.9488207 99.831931,94.7866599 103.974963,93.366557 C103.974963,93.366557 105.110895,92.614782 105.570229,92.6566308 C106.029814,92.698229 107.157477,91.8111345 108.702625,93.2362493 C110.248024,94.6613641 110.164577,94.0764831 109.663394,91.6124154 C109.16221,89.1483476 112.127461,85.9322542 114.382786,86.2246947 L115.218008,86.2665435 C115.218008,86.2665435 115.259857,85.8069584 115.4686,83.4681864 C115.677593,81.1294145 114.215642,82.2570769 114.549931,78.5398002 C114.88397,74.8227741 117.807623,74.196295 117.807623,74.196295 C117.807623,74.196295 119.185877,72.5674492 120.898169,73.6116647 C120.898169,73.6116647 121.77524,74.4955014 121.566497,69.0000263 C121.357504,63.5043007 119.603362,66.6366964 117.473333,62.2513424 C117.473333,62.2513424 117.515182,61.666712 117.932918,60.8730882 C118.350404,60.079715 117.306439,59.0354996 118.099812,57.8659883 C118.893436,56.6967276 118.726292,56.4877342 118.559397,53.3971872 C118.559397,53.3971872 117.557031,53.4756224 116.67996,55.1696221 C115.802889,56.8636217 114.800523,55.5272163 114.132195,56.529583 C113.463867,57.5319496 112.628645,56.8586098 112.002166,55.1696221 C111.375686,53.4806343 111.250391,54.274258 110.456767,52.227676 C109.663394,50.1813445 109.245657,51.1837111 109.287506,49.9307528 C109.329104,48.6777945 108.577329,48.7193927 108.577329,48.7193927 C108.577329,48.7193927 107.867403,48.385354 107.65866,47.2158428 C107.65866,47.2158428 107.199075,48.1347624 106.238557,46.8399553 C105.27804,45.5453988 105.116408,46.2553249 104.299228,45.9212863 C103.482049,45.586997 103.19011,44.0418488 100.433351,44 C100.433351,44 98.9295504,44.0418488 98.5120647,44.6264791 Z" id="Fill-1"></path>
        </g>
    </g>
</svg>
