<?xml version="1.0" encoding="UTF-8"?>
<svg width="133px" height="46px" viewBox="0 0 133 46" version="1.1" xmlns="http://www.w3.org/2000/svg" xmlns:xlink="http://www.w3.org/1999/xlink">
    <!-- Generator: Sketch 39.1 (31720) - http://www.bohemiancoding.com/sketch -->
    <title>Fill 1</title>
    <desc>Created with Sketch.</desc>
    <defs></defs>
    <g id="Page-1" stroke="none" stroke-width="1" fill="none" fill-rule="evenodd">
        <g id="Desktop" transform="translate(-205.000000, -1270.000000)" fill="#113f68">
            <g id="ACTIVIDADES" transform="translate(-16.000000, 1035.000000)">
                <path d="M301.611039,246.65113 C305.424358,246.101527 308.884966,245.603429 312.345574,245.104679 C312.419897,244.843242 312.493569,244.581806 312.567892,244.319718 C308.328191,242.598541 305.797279,237.477389 299.688407,238.593546 C300.320157,241.239203 300.908877,243.707527 301.611039,246.65113 L301.611039,246.65113 Z M298.173902,247.082728 C297.566275,244.414904 297.184225,242.166291 296.489887,240.019385 C296.267569,239.333522 295.236819,238.479453 294.543132,238.448811 C290.993206,238.290385 287.432196,238.375139 283.438936,238.375139 C284.051127,242.14934 284.596819,245.508242 285.206402,249.263537 C289.563456,248.530733 293.673417,247.839654 298.173902,247.082728 L298.173902,247.082728 Z M281.772525,249.730992 C281.239221,246.24561 280.857172,243.133149 280.220858,240.073497 C280.083294,239.409801 279.062324,238.495752 278.398627,238.452071 C275.631706,238.269522 272.845877,238.375139 269.676044,238.375139 C270.284324,243.063389 270.831971,247.27962 271.408304,251.718821 C275.050157,251.020571 278.210211,250.414247 281.772525,249.730992 L281.772525,249.730992 Z M354,247.916586 C349.231559,259.27309 341.281549,268.448787 333.588412,277.812247 C332.013275,279.729664 330.2595,280.435086 327.740975,280.428566 C294.858029,280.342507 261.974431,280.307301 229.091485,280.467684 C225.687598,280.483983 223.883623,279.524296 222.93176,276.365546 C222.539931,275.064885 221.65848,273.911566 221,272.691095 L221,272.039135 C221.104966,272.065865 221.209931,272.097159 221.316201,272.119326 C227.353358,273.376306 232.089853,271.999365 234.582299,265.765968 C236.697912,260.474654 241.088868,258.602875 246.37301,257.525836 C253.47873,256.078483 260.460578,254.018938 267.963995,252.102826 C267.429387,247.883987 266.936505,243.624076 266.27998,239.388938 C266.214132,238.964512 265.177515,238.45859 264.551632,238.39861 C263.047559,238.253875 261.520015,238.351669 259.730382,238.351669 L259.730382,235.021453 L273.795132,235.021453 C283.357441,235.021453 292.920402,234.938654 302.479451,235.098385 C304.16151,235.126419 306.307113,235.690365 307.420662,236.816301 C313.585603,243.051002 320.489216,245.451522 329.33502,243.456522 C334.437265,242.305159 339.93525,242.612885 345.239603,242.771963 C348.176034,242.859978 351.081172,243.994389 354,244.656782 L354,247.916586 Z" id="Fill-1"></path>
            </g>
        </g>
    </g>
</svg>
