<?xml version="1.0" encoding="UTF-8"?>
<svg width="70px" height="50px" viewBox="0 0 70 50" version="1.1" xmlns="http://www.w3.org/2000/svg" xmlns:xlink="http://www.w3.org/1999/xlink">
    <!-- Generator: Sketch 39.1 (31720) - http://www.bohemiancoding.com/sketch -->
    <title>Group 2</title>
    <desc>Created with Sketch.</desc>
    <defs></defs>
    <g id="Page-1" stroke="none" stroke-width="1" fill="none" fill-rule="evenodd">
        <g id="Desktop" transform="translate(-500.000000, -454.000000)">
            <g id="Group-2" transform="translate(500.000000, 454.000000)">
                <g id="Page-1">
                    <path d="M32.9413029,2.52284404 L32.2146005,2.52284404 L31.5645381,2.71389908 L32.5971117,2.86688073 L30.5700549,3.36389908 L29.9199924,3.63133028 L29.5374812,3.63133028 L28.1607163,4.16665138 L27.6637042,4.16665138 L27.281193,4.16665138 L27.6637042,4.58706422 C28.0459859,4.58706422 28.4284971,4.39600917 28.4284971,4.39600917 L28.1990363,4.93110092 L28.0078954,5.31344037 L28.2373562,5.77215596 L27.7784346,6.30724771 L27.281193,6.30724771 L26.707541,6.30724771 L26.1722089,6.5366055 L26.669221,6.5366055 L27.2047825,6.95701835 L27.242873,7.2246789 L27.5870643,7.6833945 L27.854845,7.87444954 L28.2754467,7.87444954 L28.5432275,7.87444954 L29.1551995,7.6833945 L29.4227508,7.87444954 L29.2699299,8.18041284 L29.0404691,8.18041284 L28.5432275,8.44784404 L28.0459859,8.44784404 L27.6637042,8.44784404 L27.1281426,8.29509174 L26.707541,8.18041284 L26.1722089,8.10380734 L25.369096,8.10380734 L24.795444,7.87444954 L24.2217919,7.79807339 L23.4730613,7.83637615 L22.9214375,7.83637615 L22.4625159,8.02743119 L21.8505439,8.44784404 L21.2004814,8.79188073 L20.6268293,9.09784404 L20.2443182,9.09784404 L19.8620364,9.09784404 L19.4412053,9.28889908 L18.9441932,9.67123853 L18.523362,9.67123853 L17.7968891,10.2063303 L17.5291083,10.5120642 L17.1465971,10.8180275 L16.6876755,10.8180275 L16.2670738,10.8180275 L15.9612026,10.5120642 C15.9612026,10.5120642 15.7317418,10.4356881 15.3109106,10.6267431 C14.8903089,10.8180275 14.2019265,11.1237615 14.2019265,11.1237615 L13.9341457,11.4677982 L13.4752241,11.7735321 L13.0163025,11.7735321 L12.5192903,12.1558716 L12.8251616,12.1558716 C12.8251616,12.1558716 12.8251616,12.7675688 12.7104312,12.7675688 C12.5957008,12.7675688 12.0984592,13.1879817 12.0984592,13.1879817 L12.0984592,13.876055 L12.0984592,14.1437156 L12.5192903,14.8698624 L12.6340207,15.3668807 L12.978212,15.7492202 L13.513544,16.2460092 L14.0488761,16.4372936 L14.6608481,16.4372936 L13.9341457,16.7430275 L13.7813248,17.0870642 L14.3166569,17.0870642 C14.3166569,17.0870642 14.6225282,16.9340826 14.6608481,17.0870642 C14.6991681,17.2400459 14.7372586,17.5074771 14.7372586,17.5074771 L15.3492306,17.5074771 L15.8464722,17.5074771 L16.4582147,17.8134404 L16.8407259,17.8134404 L17.376058,17.9661927 L17.7202492,17.9661927 L18.1410803,17.9661927 L18.9822837,17.9661927 L19.9767668,18.3485321 L20.8562902,18.3485321 L21.5446726,18.0044954 C21.5446726,18.0044954 21.1240709,17.7751376 20.9710206,17.7751376 C20.8179702,17.7751376 20.7798797,17.5074771 20.7798797,17.5074771 L21.6210831,17.6987615 L21.8124534,17.3927982 L21.3916222,16.8960092 L20.7415597,16.7047248 L21.1240709,16.5136697 L20.473779,16.169633 L20.1679077,15.7109174 L20.9327006,15.8638991 L21.5446726,16.169633 L21.9271838,16.7430275 L22.4625159,16.8577064 L23.0361679,17.3547248 L23.4730613,17.6987615 L24.2598824,18.1191743 L24.757124,18.3485321 L24.757124,17.8515138 L24.4129328,17.5457798 L24.0687416,16.9723853 L24.6423936,17.3547248 C24.6423936,17.3547248 24.757124,17.2781193 25.0249048,17.316422 C25.2924561,17.3547248 25.8280177,17.5840826 25.8280177,17.5840826 L26.0191585,17.5840826 L25.9808386,17.2400459 C25.9808386,17.2400459 26.2486193,17.2017431 26.3633497,17.2781193 C26.4780801,17.3547248 26.707541,17.3927982 26.8605913,17.5074771 C27.0134122,17.622156 27.0900521,17.8898165 27.5489738,17.9661927 C28.0078954,18.0427982 28.7726883,18.0427982 28.7726883,18.0427982 C28.7726883,18.0427982 29.4227508,18.0808716 29.5758012,18.0808716 C29.7288515,18.0808716 30.4553245,18.0427982 30.4553245,18.0427982 L30.990886,17.8515138 C30.990886,17.8515138 31.3731677,17.5840826 30.417234,17.0487615 C29.4610708,16.5136697 30.0347228,16.169633 30.0347228,16.169633 C30.0347228,16.169633 30.3025036,16.0549541 30.417234,16.0932569 C30.5319644,16.1313303 30.990886,16.5519725 30.990886,16.5519725 L31.2584373,17.0870642 L31.8704093,17.125367 L32.5587918,17.0106881 C32.5587918,17.0106881 36.612676,16.3226147 38.0275314,21.0625229 C39.4426162,25.8026606 36.9949577,28.0962385 28.8110083,29.7400459 L28.5049075,29.7400459 L28.0078954,29.5487615 L27.0134122,29.2430275 L25.9044281,29.0900459 L25.4838264,29.0136697 L25.6749673,29.3960092 L25.0629953,29.5106881 L24.6807136,29.2047248 L24.4129328,29.0136697 L24.0687416,28.9372936 L23.7245504,28.669633 L23.4730613,28.5166514 L23.2656287,28.478578 C23.2656287,28.478578 22.7683871,28.3255963 22.6536567,28.2872936 C22.5389263,28.2492202 22.0419142,28.1345413 22.0419142,28.1345413 L21.5829926,28.1345413 L20.7798797,27.828578 L20.0914973,27.4081651 L19.7089861,27.0258257 L19.2500644,26.7964679 L19.0589236,26.7964679 L18.523362,26.6054128 L17.8349796,26.4143578 L16.9937762,26.376055 L16.6112651,26.7200917 L15.8845627,26.4907339 L15.7317418,26.8730734 L15.463961,27.0258257 L14.9667194,27.2551835 C14.9667194,27.2551835 14.3166569,27.6758257 12.978212,27.0641284 L12.2898295,27.3698624 L11.2953463,27.3698624 C11.2953463,27.3698624 10.6452838,27.4464679 10.5305534,27.4845413 C10.415823,27.522844 10.1099518,27.828578 10.1099518,27.828578 L9.80385104,27.9051835 L9.03905814,28.2109174 L8.42708614,28.8226147 L7.7006132,29.0900459 L7.7006132,29.5106881 L7.27978206,29.9311009 L6.93559084,30.122156 L6.43857871,30.122156 L6.17079794,30.5044954 L5.13822427,30.0457798 L4.41152186,29.8547248 L3.95260023,30.3134404 L3.76145937,29.9311009 L3.53199855,29.5487615 C3.53199855,29.5487615 3.18780733,29.3960092 3.07307692,29.3960092 L2.49942488,29.3960092 C2.30828402,29.3960092 2.07882321,29.4340826 1.9640928,29.4340826 C1.84936239,29.4340826 1.58158162,29.2047248 1.46685121,29.2047248 C1.3521208,29.2047248 0.702058312,29.8547248 0.702058312,29.8547248 L0.0136758646,30.1987615 L0.281227176,30.3515138 C0.281227176,30.3515138 0.395957584,31.0015138 0.510687992,31.1925688 C0.6254184,31.3836239 1.08434003,31.6895872 1.08434003,31.6895872 C1.08434003,31.6895872 1.31380085,32.0336239 1.39044076,32.1863761 C1.46685121,32.3393578 1.65799207,32.4540367 1.65799207,32.4540367 L2.0021833,32.4540367 L2.69056574,32.1483028 L2.99666647,32.4540367 L2.38469448,32.8744495 L3.22612729,33.3331651 C3.22612729,33.3331651 3.30253774,33.5625229 3.41726815,33.7538073 C3.53199855,33.9448624 3.37894819,33.5244495 3.53199855,33.9448624 C3.68504892,34.3652752 4.02924014,34.9386697 4.02924014,35.1299541 C4.02924014,35.3210092 4.29679145,35.550367 4.41152186,35.4356881 C4.52625227,35.3210092 4.94708341,34.9005963 5.02349386,34.7859174 C5.09990431,34.6712385 5.32936513,34.9769725 5.32936513,34.9769725 C5.32936513,34.9769725 5.25295467,35.4356881 5.25295467,35.6267431 C5.25295467,35.8180275 5.48241549,36.391422 5.48241549,36.391422 C5.48241549,36.391422 5.94133712,36.6588532 5.97965708,36.8501376 C6.01774757,37.0411927 6.97391079,36.8501376 6.97391079,36.8501376 L6.17079794,37.2705505 L5.86492667,37.538211 C5.86492667,37.538211 6.28552835,37.8056422 6.43857871,37.9203211 C6.59139961,38.035 6.89750034,38.1496789 7.05032125,38.3026606 C7.20337161,38.4556422 7.62397328,38.7230734 7.62397328,38.7230734 L8.31235573,38.876055 L8.77127736,39.3347706 C8.77127736,39.3347706 8.77127736,39.4494495 8.96264768,39.5258257 C9.15378854,39.6024312 9.15378854,39.5258257 9.30683891,39.5258257 C9.45965981,39.5258257 10.2246822,39.6320183 10.3394126,39.56 C10.454143,39.4877523 10.7600143,39.8735321 10.9130646,39.585 C11.0658855,39.2964679 11.3336663,39.1437156 11.4867167,39.0290367 C11.6395376,38.9143578 11.8309079,38.7996789 11.8309079,38.7996789 L12.1367792,39.1054128 L12.5573808,39.2200917 C12.5573808,39.2200917 12.978212,39.3730734 13.0929424,39.3347706 C13.2076728,39.2964679 13.4752241,38.9907339 13.4752241,38.9907339 L13.7046849,38.876055 C13.7046849,38.876055 14.2019265,38.9143578 14.2783369,38.7996789 C14.3549769,38.685 14.3166569,38.3790367 14.5844377,38.3790367 C14.851989,38.3790367 15.1580897,37.9586239 15.6551018,38.4173394 C16.1523434,38.876055 16.3434843,38.9907339 16.3434843,38.9907339 L16.9937762,39.3347706 L17.4907884,39.6937156 L17.7968891,40.1758257 L18.6764124,40.5198624 L19.9001269,40.5198624 L20.8946101,40.1375229 L21.8124534,40.328578 L22.5772463,40.3668807 L21.9271838,40.9402752 L22.1947351,41.5136697 L21.659403,41.5136697 L21.2004814,41.169633 L20.7415597,41.5136697 L20.1295878,41.5136697 L20.0148573,42.2017431 C20.0148573,42.2017431 19.7853965,42.4311009 19.6706661,42.3927982 C19.5559357,42.3547248 18.8675533,42.2400459 18.8675533,42.2400459 L18.6380924,42.397156 L19.4795253,42.9281193 L19.7853965,43.6161927 C19.7853965,43.6161927 19.3264749,44.1512844 19.3264749,44.2659633 C19.3264749,44.3806422 19.747306,44.6483028 19.747306,44.6483028 L19.6706661,44.8776606 L20.0148573,45.3744495 L20.4356885,45.6421101 L21.0093405,46.2538073 L21.3152118,46.2538073 L22.1947351,46.5212385 L22.8831175,46.8272018 L22.5008358,47.094633 L22.0035942,47.7063303 L21.1621614,47.2859174 L20.4356885,47.1712385 L19.5942557,46.8652752 L19.747306,47.7063303 L20.0531773,48.3180275 L19.6325756,48.7001376 L20.2826381,48.9677982 L19.0206036,49.4265138 L17.94971,49.0441743 L17.2232371,49.1588532 L16.9171363,49.6175688 L16.9171363,49.8547248 L63.1213662,49.8547248 C63.1213662,49.8547248 43.4581805,41.0737615 43.6876413,26.0643578 C44.0843791,0.113440367 38.8689642,0.114587156 38.8689642,0.114587156 C38.8689642,0.114587156 37.1480081,2.33178899 32.9413029,2.52284404 Z" id="Fill-1" fill="#113f68"></path>
                    <path d="M38.8689642,0.114587156 C38.8689642,0.114587156 37.1480081,2.33178899 32.9413029,2.52284404 L32.2146005,2.52284404 L31.5645381,2.71389908 L32.5971117,2.86688073 L30.5700549,3.36389908 L29.9199924,3.63133028 L29.5374812,3.63133028 L28.1607163,4.16665138 L27.6637042,4.16665138 L27.281193,4.16665138 L27.6637042,4.58706422 C28.0459859,4.58706422 28.4284971,4.39600917 28.4284971,4.39600917 L28.1990363,4.93110092 L28.0078954,5.31344037 L28.2373562,5.77215596 L27.7784346,6.30724771 L27.281193,6.30724771 L26.707541,6.30724771 L26.1722089,6.5366055 L26.669221,6.5366055 L27.2047825,6.95701835 L27.242873,7.2246789 L27.5870643,7.6833945 L27.854845,7.87444954 L28.2754467,7.87444954 L28.5432275,7.87444954 L29.1551995,7.6833945 L29.4227508,7.87444954 L29.2699299,8.18041284 L29.0404691,8.18041284 L28.5432275,8.44784404 L28.0459859,8.44784404 L27.6637042,8.44784404 L27.1281426,8.29509174 L26.707541,8.18041284 L26.1722089,8.10380734 L25.369096,8.10380734 L24.795444,7.87444954 L24.2217919,7.79807339 L23.4730613,7.83637615 L22.9214375,7.83637615 L22.4625159,8.02743119 L21.8505439,8.44784404 L21.2004814,8.79188073 L20.6268293,9.09784404 L20.2443182,9.09784404 L19.8620364,9.09784404 L19.4412053,9.28889908 L18.9441932,9.67123853 L18.523362,9.67123853 L17.7968891,10.2063303 L17.5291083,10.5120642 L17.1465971,10.8180275 L16.6876755,10.8180275 L16.2670738,10.8180275 L15.9612026,10.5120642 C15.9612026,10.5120642 15.7317418,10.4356881 15.3109106,10.6267431 C14.8903089,10.8180275 14.2019265,11.1237615 14.2019265,11.1237615 L13.9341457,11.4677982 L13.4752241,11.7735321 L13.0163025,11.7735321 L12.5192903,12.1558716 L12.8251616,12.1558716 C12.8251616,12.1558716 12.8251616,12.7675688 12.7104312,12.7675688 C12.5957008,12.7675688 12.0984592,13.1879817 12.0984592,13.1879817 L12.0984592,13.876055 L12.0984592,14.1437156 L12.5192903,14.8698624 L12.6340207,15.3668807 L12.978212,15.7492202 L13.513544,16.2460092 L14.0488761,16.4372936 L14.6608481,16.4372936 L13.9341457,16.7430275 L13.7813248,17.0870642 L14.3166569,17.0870642 C14.3166569,17.0870642 14.6225282,16.9340826 14.6608481,17.0870642 C14.6991681,17.2400459 14.7372586,17.5074771 14.7372586,17.5074771 L15.3492306,17.5074771 L15.8464722,17.5074771 L16.4582147,17.8134404 L16.8407259,17.8134404 L17.376058,17.9661927 L17.7202492,17.9661927 L18.1410803,17.9661927 L18.9822837,17.9661927 L19.9767668,18.3485321 L20.8562902,18.3485321 L21.5446726,18.0044954 C21.5446726,18.0044954 21.1240709,17.7751376 20.9710206,17.7751376 C20.8179702,17.7751376 20.7798797,17.5074771 20.7798797,17.5074771 L21.6210831,17.6987615 L21.8124534,17.3927982 L21.3916222,16.8960092 L20.7415597,16.7047248 L21.1240709,16.5136697 L20.473779,16.169633 L20.1679077,15.7109174 L20.9327006,15.8638991 L21.5446726,16.169633 L21.9271838,16.7430275 L22.4625159,16.8577064 L23.0361679,17.3547248 L23.4730613,17.6987615 L24.2598824,18.1191743 L24.757124,18.3485321 L24.757124,17.8515138 L24.4129328,17.5457798 L24.0687416,16.9723853 L24.6423936,17.3547248 C24.6423936,17.3547248 24.757124,17.2781193 25.0249048,17.316422 C25.2924561,17.3547248 25.8280177,17.5840826 25.8280177,17.5840826 L26.0191585,17.5840826 L25.9808386,17.2400459 C25.9808386,17.2400459 26.2486193,17.2017431 26.3633497,17.2781193 C26.4780801,17.3547248 26.707541,17.3927982 26.8605913,17.5074771 C27.0134122,17.622156 27.0900521,17.8898165 27.5489738,17.9661927 C28.0078954,18.0427982 28.7726883,18.0427982 28.7726883,18.0427982 C28.7726883,18.0427982 29.4227508,18.0808716 29.5758012,18.0808716 C29.7288515,18.0808716 30.4553245,18.0427982 30.4553245,18.0427982 L30.990886,17.8515138 C30.990886,17.8515138 31.3731677,17.5840826 30.417234,17.0487615 C29.4610708,16.5136697 30.0347228,16.169633 30.0347228,16.169633 C30.0347228,16.169633 30.3025036,16.0549541 30.417234,16.0932569 C30.5319644,16.1313303 30.990886,16.5519725 30.990886,16.5519725 L31.2584373,17.0870642 L31.8704093,17.125367 L32.5587918,17.0106881 C32.5587918,17.0106881 36.612676,16.3226147 38.0275314,21.0625229 C39.4426162,25.8026606 36.9949577,28.0962385 28.8110083,29.7400459 L28.5049075,29.7400459 L28.0078954,29.5487615 L27.0134122,29.2430275 L25.9044281,29.0900459 L25.4838264,29.0136697 L25.6749673,29.3960092 L25.0629953,29.5106881 L24.6807136,29.2047248 L24.4129328,29.0136697 L24.0687416,28.9372936 L23.7245504,28.669633 L23.4730613,28.5166514 L23.2656287,28.478578 C23.2656287,28.478578 22.7683871,28.3255963 22.6536567,28.2872936 C22.5389263,28.2492202 22.0419142,28.1345413 22.0419142,28.1345413 L21.5829926,28.1345413 L20.7798797,27.828578 L20.0914973,27.4081651 L19.7089861,27.0258257 L19.2500644,26.7964679 L19.0589236,26.7964679 L18.523362,26.6054128 L17.8349796,26.4143578 L16.9937762,26.376055 L16.6112651,26.7200917 L15.8845627,26.4907339 L15.7317418,26.8730734 L15.463961,27.0258257 L14.9667194,27.2551835 C14.9667194,27.2551835 14.3166569,27.6758257 12.978212,27.0641284 L12.2898295,27.3698624 L11.2953463,27.3698624 C11.2953463,27.3698624 10.6452838,27.4464679 10.5305534,27.4845413 C10.415823,27.522844 10.1099518,27.828578 10.1099518,27.828578 L9.80385104,27.9051835 L9.03905814,28.2109174 L8.42708614,28.8226147 L7.7006132,29.0900459 L7.7006132,29.5106881 L7.27978206,29.9311009 L6.93559084,30.122156 L6.43857871,30.122156 L6.17079794,30.5044954 L5.13822427,30.0457798 L4.41152186,29.8547248 L3.95260023,30.3134404 L3.76145937,29.9311009 L3.53199855,29.5487615 C3.53199855,29.5487615 3.18780733,29.3960092 3.07307692,29.3960092 L2.49942488,29.3960092 C2.30828402,29.3960092 2.07882321,29.4340826 1.9640928,29.4340826 C1.84936239,29.4340826 1.58158162,29.2047248 1.46685121,29.2047248 C1.3521208,29.2047248 0.702058312,29.8547248 0.702058312,29.8547248 L0.0136758646,30.1987615 L0.281227176,30.3515138 C0.281227176,30.3515138 0.395957584,31.0015138 0.510687992,31.1925688 C0.6254184,31.3836239 1.08434003,31.6895872 1.08434003,31.6895872 C1.08434003,31.6895872 1.31380085,32.0336239 1.39044076,32.1863761 C1.46685121,32.3393578 1.65799207,32.4540367 1.65799207,32.4540367 L2.0021833,32.4540367 L2.69056574,32.1483028 L2.99666647,32.4540367 L2.38469448,32.8744495 L3.22612729,33.3331651 C3.22612729,33.3331651 3.30253774,33.5625229 3.41726815,33.7538073 C3.53199855,33.9448624 3.37894819,33.5244495 3.53199855,33.9448624 C3.68504892,34.3652752 4.02924014,34.9386697 4.02924014,35.1299541 C4.02924014,35.3210092 4.29679145,35.550367 4.41152186,35.4356881 C4.52625227,35.3210092 4.94708341,34.9005963 5.02349386,34.7859174 C5.09990431,34.6712385 5.32936513,34.9769725 5.32936513,34.9769725 C5.32936513,34.9769725 5.25295467,35.4356881 5.25295467,35.6267431 C5.25295467,35.8180275 5.48241549,36.391422 5.48241549,36.391422 C5.48241549,36.391422 5.94133712,36.6588532 5.97965708,36.8501376 C6.01774757,37.0411927 6.97391079,36.8501376 6.97391079,36.8501376 L6.17079794,37.2705505 L5.86492667,37.538211 C5.86492667,37.538211 6.28552835,37.8056422 6.43857871,37.9203211 C6.59139961,38.035 6.89750034,38.1496789 7.05032125,38.3026606 C7.20337161,38.4556422 7.62397328,38.7230734 7.62397328,38.7230734 L8.31235573,38.876055 L8.77127736,39.3347706 C8.77127736,39.3347706 8.77127736,39.4494495 8.96264768,39.5258257 C9.15378854,39.6024312 9.15378854,39.5258257 9.30683891,39.5258257 C9.45965981,39.5258257 10.2246822,39.6320183 10.3394126,39.56 C10.454143,39.4877523 10.7600143,39.8735321 10.9130646,39.585 C11.0658855,39.2964679 11.3336663,39.1437156 11.4867167,39.0290367 C11.6395376,38.9143578 11.8309079,38.7996789 11.8309079,38.7996789 L12.1367792,39.1054128 L12.5573808,39.2200917 C12.5573808,39.2200917 12.978212,39.3730734 13.0929424,39.3347706 C13.2076728,39.2964679 13.4752241,38.9907339 13.4752241,38.9907339 L13.7046849,38.876055 C13.7046849,38.876055 14.2019265,38.9143578 14.2783369,38.7996789 C14.3549769,38.685 14.3166569,38.3790367 14.5844377,38.3790367 C14.851989,38.3790367 15.1580897,37.9586239 15.6551018,38.4173394 C16.1523434,38.876055 16.3434843,38.9907339 16.3434843,38.9907339 L16.9937762,39.3347706 L17.4907884,39.6937156 L17.7968891,40.1758257 L18.6764124,40.5198624 L19.9001269,40.5198624 L20.8946101,40.1375229 L21.8124534,40.328578 L22.5772463,40.3668807 L21.9271838,40.9402752 L22.1947351,41.5136697 L21.659403,41.5136697 L21.2004814,41.169633 L20.7415597,41.5136697 L20.1295878,41.5136697 L20.0148573,42.2017431 C20.0148573,42.2017431 19.7853965,42.4311009 19.6706661,42.3927982 C19.5559357,42.3547248 18.8675533,42.2400459 18.8675533,42.2400459 L18.6380924,42.397156 L19.4795253,42.9281193 L19.7853965,43.6161927 C19.7853965,43.6161927 19.3264749,44.1512844 19.3264749,44.2659633 C19.3264749,44.3806422 19.747306,44.6483028 19.747306,44.6483028 L19.6706661,44.8776606 L20.0148573,45.3744495 L20.4356885,45.6421101 L21.0093405,46.2538073 L21.3152118,46.2538073 L22.1947351,46.5212385 L22.8831175,46.8272018 L22.5008358,47.094633 L22.0035942,47.7063303 L21.1621614,47.2859174 L20.4356885,47.1712385 L19.5942557,46.8652752 L19.747306,47.7063303 L20.0531773,48.3180275 L19.6325756,48.7001376 L20.2826381,48.9677982 L19.0206036,49.4265138 L17.94971,49.0441743 L17.2232371,49.1588532 L16.9171363,49.6175688 L16.9171363,49.8547248 L63.1213662,49.8547248 C63.1213662,49.8547248 43.4581805,41.0737615 43.6876413,26.0643578 C44.0843791,0.113440367 38.8689642,0.114587156 38.8689642,0.114587156 L38.8689642,0.114587156 Z" id="Stroke-3"></path>
                    <g id="Group-7" transform="translate(45.662702, 2.492431)" fill="#113f68">
                        <path d="M2.68287881,5.77094037 C2.65052483,5.76245413 2.61840032,5.75419725 2.58604634,5.74571101 C2.54313717,5.81635321 2.48990226,5.88286697 2.45869559,5.95832569 C1.29074004,8.78699541 0.59730945,11.726445 0.394695549,14.7812615 C0.379321675,15.0138303 0.413052415,15.154656 0.691617845,15.1626835 C0.980738473,15.1711697 0.998865878,15.001445 1.01446921,14.7858486 C1.06219706,14.1374541 1.1076303,13.4881422 1.17945154,12.8420413 C1.43139952,10.5775917 1.91487345,8.36107798 2.58879987,6.18538991 C2.6307912,6.05029817 2.65213106,5.90924312 2.68287881,5.77094037 M2.66635763,28.0450229 C2.68632072,28.0383716 2.70628381,28.0317202 2.7262469,28.0252982 C2.72119876,27.948922 2.72900043,27.8691055 2.70903734,27.7968578 C2.52868114,27.145711 2.3104639,26.5032798 2.16636251,25.8445642 C1.85727879,24.4291972 1.55163698,23.0115367 1.31116205,21.583555 C1.15466977,20.6539679 1.12392202,19.7032798 1.01355137,18.7649771 C1.00024264,18.6530505 0.854764485,18.4952523 0.743934911,18.4681881 C0.382993048,18.379656 0.385287656,18.6390596 0.401579374,18.8897477 C0.603275431,21.9980046 1.32837161,24.9817202 2.53808903,27.8496101 C2.56791894,27.9200229 2.62298953,27.9801147 2.66635763,28.0450229 M18.6593176,12.1539679 C19.0551375,12.1147477 19.4277818,12.1099312 19.5399882,11.7512156 C19.6471464,11.4083257 19.3114452,11.2493807 19.0890977,11.0670413 C19.014064,11.0055734 18.9266394,10.9541972 18.8373792,10.9152064 C18.3770808,10.7131422 17.9273376,10.476445 17.450518,10.3255275 C15.6563639,9.7571789 13.8071392,9.67231651 11.9436879,9.77162844 C10.5499429,9.84616972 9.17730828,10.0450229 7.89209825,10.6232339 C7.50453893,10.7975459 7.12294559,11.0168119 6.79550501,11.2849312 C6.41391167,11.5975459 6.5121209,12.0058028 6.99834837,12.0670413 C7.40495294,12.1184174 7.8443704,12.0349312 8.25028658,11.9344725 C8.7842419,11.8023624 9.28974408,11.552133 9.82507616,11.4289679 C11.3597101,11.0757569 12.920732,11.0741514 14.4831307,11.1681881 C15.6942249,11.2411239 16.8681464,11.4752982 17.9828671,11.9780505 C18.2130163,12.0817202 18.4780435,12.108555 18.6593176,12.1539679 M23.6523849,17.180344 C23.5723031,17.0491514 23.5307707,16.9922706 23.5007113,16.9301147 C22.9323369,15.7583257 22.0149525,14.9952523 20.7795355,14.6023624 C20.7102383,14.580344 20.633369,14.5590138 20.5801341,14.5136009 C19.1618368,13.3037385 17.4693338,12.7564908 15.6641655,12.5025917 C13.3080619,12.1711697 10.9753632,12.2711697 8.69131027,12.9849312 C7.60068301,13.3257569 6.60344631,13.8491514 5.74067364,14.6117661 C5.66105074,14.6821789 5.55733445,14.7321789 5.45706007,14.7716284 C3.77075253,15.4372248 2.1365326,17.0819495 2.37907269,19.6298853 C2.4949504,20.8463991 2.73221288,22.0062615 3.32835208,23.0819495 C3.40912229,23.2282798 3.43252729,23.4074083 3.47612485,23.5730046 C4.19479612,26.2941055 5.31571221,28.8365367 6.88453581,31.1748394 C7.0637447,31.4420413 7.05548411,31.629656 6.80468344,31.7819495 C6.31409622,32.080344 5.81157703,32.3594725 5.30630431,32.6326376 C5.05366796,32.7693349 4.93457779,32.5808028 4.8138814,32.3961697 C3.20742623,29.9388303 2.02616195,27.2908945 1.25081385,24.4615367 C0.733379714,22.5734633 0.51860439,20.6365367 0.240497881,18.7044266 C0.0966259496,17.7044266 -0.0132857812,16.7019037 0.113376589,15.7434174 C0.439669869,13.2755275 0.688175933,10.7876835 1.45595182,8.39227064 C2.2214331,6.00396789 3.21431006,3.72805046 4.55734421,1.60855505 C4.86000303,1.13103211 5.19340959,0.673233945 5.50226385,0.199610092 C5.60529176,0.041353211 5.72231677,-0.0441972477 5.89280616,0.0638302752 C6.41850089,0.396399083 6.94190101,0.732866972 7.45635216,1.0821789 C7.63693782,1.20488532 7.63326645,1.35327982 7.49260697,1.54639908 C4.86642793,5.15373853 3.34670895,9.19502294 2.7836121,13.6076376 C2.73083612,14.0218578 2.69481077,14.4395183 2.67874851,14.8564908 C2.67438876,14.9693349 2.77213906,15.086078 2.82307936,15.2012156 C2.91532261,15.1158945 3.05758832,15.0473165 3.09246636,14.9427294 C3.6544159,13.2658945 4.58855088,11.8507569 6.00111166,10.7697936 C7.63395483,9.52025229 9.51232107,8.91405963 11.5341003,8.72667431 C13.7011283,8.52598624 15.8442923,8.64639908 17.8933774,9.45190367 C21.2148227,10.7576376 23.0688661,13.2308028 23.5934135,16.7337844 C23.6115409,16.8537385 23.6253086,16.9746101 23.6523849,17.180344" id="Fill-5"></path>
                    </g>
                    <path d="M51.7194353,18.3491284 C51.4456886,18.5619725 51.1930522,18.7316972 50.9752939,18.9378899 C50.8366996,19.0690826 50.6501479,19.260367 50.6584085,19.4154128 C50.6847965,19.9138073 50.6244483,20.3745872 50.4518938,20.8477523 C50.3222484,21.2037156 50.322019,21.6069266 50.2641948,21.9890367 C50.3032032,21.9947706 50.3422115,22.0005046 50.3814493,22.0062385 C50.4652025,21.7220642 50.5489557,21.4376606 50.6432641,21.1183945 L50.6432641,24.9872018 C50.6005844,24.9995872 50.5579047,25.0119725 50.515225,25.0245872 C50.3633219,24.8553211 50.1905379,24.7002752 50.0634166,24.5142661 C49.578107,23.8048624 49.3711333,23.0032569 49.3084905,22.1550917 C49.2928872,21.9443119 49.2417174,21.736055 49.2068394,21.5266514 C49.171273,21.5312385 49.1357065,21.5355963 49.1001401,21.5401835 C49.1347887,22.0005046 49.135936,22.4663303 49.2105108,22.9202294 C49.4310226,24.2619725 50.014312,25.3612844 51.3190262,25.9693119 C51.4427056,26.0268807 51.4869915,26.2553211 51.5679912,26.4044037 C52.1636715,26.7631193 52.9091897,26.8195413 53.8979363,26.6537156 C53.8284097,26.6034862 53.7157444,26.5220642 53.6030792,26.4408716 C53.6820137,26.3674771 53.7524582,26.2433945 53.8412595,26.2284862 C54.9816798,26.0367431 55.6801585,25.3186239 56.1822187,24.3351376 C56.4158099,23.8773394 56.6542196,23.4087615 56.9720229,23.0096789 C57.9116649,21.8294037 59.3882453,21.7564679 60.4421588,22.8323853 C60.7466533,23.1429358 60.971066,23.5355963 61.2113114,23.9044037 C61.3650502,24.1401835 61.4749619,24.4044037 61.6140152,24.6502752 C62.1564605,25.6087615 62.9751767,26.1518807 64.074753,26.2461468 C64.4157317,26.2752752 64.7615292,26.2686239 65.1038847,26.2521101 C66.522182,26.1846789 67.5106992,25.4846789 68.0747139,24.1890367 C68.4441458,23.3401835 68.5813634,22.4378899 68.5526808,21.523211 C68.4996753,19.8209174 67.5497076,18.6596789 65.9083743,18.2193119 C65.8266863,18.1975229 65.7195281,18.1468349 65.6619334,18.1784862 C65.2780455,18.3878899 64.9627663,18.2390367 64.6213286,18.0544037 C64.4903065,17.9835321 64.2782847,18.0509633 64.1055007,18.073211 C64.0265662,18.0833028 63.954745,18.1615138 63.8767283,18.1670183 C62.9481004,18.2307798 62.0203903,18.2511927 61.0885499,18.3475229 C59.5793861,18.5037156 58.0422281,18.3897248 56.5167726,18.3842202 C56.3857505,18.3837615 56.2531221,18.3502752 56.1239357,18.32 C55.8889678,18.2651835 55.6583597,18.1605963 55.422474,18.1493578 C54.9194959,18.1255046 54.4144526,18.1502752 53.9100977,18.1493578 C53.8157893,18.1493578 53.7067955,18.1486697 53.6294672,18.1044037 C53.2308937,17.8771101 52.5319561,17.9842202 52.2283794,18.3085321 C52.0633971,18.4844495 51.8614716,18.5259633 51.7194353,18.3491284 L51.7194353,18.3491284 Z M58.9189979,17.5555505 C60.6656536,17.5555505 62.4139156,17.5133486 64.1582767,17.5745872 C64.9572593,17.6027982 65.7840066,17.7337615 66.5366381,17.9954587 C68.0513089,18.5225229 68.8748438,19.6592202 68.9778717,21.2706881 C69.0643784,22.6236697 68.832623,23.9193119 68.1307023,25.0995872 C67.2330516,26.6089908 65.737426,27.279633 63.9949006,27.0534862 C62.3492076,26.8399541 61.1539462,26.0424771 60.4286206,24.5440826 C60.3113661,24.3018807 60.1500552,24.0812385 60.0123787,23.8486697 C59.4871429,22.960367 58.160171,22.9665596 57.6370003,23.8305505 C57.4653636,24.1142661 57.2700925,24.3872018 57.1305803,24.6862844 C56.3809318,26.2943119 55.0438636,26.9557798 53.3531963,27.0722936 C50.4562535,27.2722936 49.1728792,25.161055 48.8174444,23.2507339 C48.6864223,22.5466055 48.6263035,21.8005046 48.7052381,21.0927064 C48.8557643,19.7420183 49.6815938,18.8193119 50.8653822,18.2053211 C51.7111747,17.7665596 52.6214458,17.5752752 53.5684306,17.5599083 C54.4663108,17.5454587 55.3641909,17.5466055 56.2620711,17.5443119 C57.1477899,17.541789 58.0335086,17.5436239 58.9189979,17.5436239 L58.9189979,17.5555505 Z" id="Fill-8" fill="#113f68"></path>
                    <path d="M61.2691585,23.488555 C60.6383707,22.5323624 59.8712832,21.8406193 58.6783164,21.8897018 C57.4809899,21.9390138 56.7962788,22.7222706 56.2253803,23.710344 C56.0287324,23.3844266 56.0110639,23.1121789 56.1849952,22.8215826 C56.6914152,21.9763991 57.4963638,21.594289 58.4190257,21.500711 C59.5431543,21.3864908 60.528459,21.734656 61.2856797,22.6222706 C61.5181235,22.8947477 61.5674576,23.1513991 61.2691585,23.488555" id="Fill-10" fill="#113f68"></path>
                    <path d="" id="Fill-12" fill="#113f68"></path>
                    <path d="M52.7400082,33.8459633 L54.2773957,35.9448165 C54.2773957,35.9448165 57.1647011,36.3945872 57.0520359,34.3707339 C57.0520359,34.3707339 55.4022126,33.096422 55.4022126,31.5971101 L55.7771516,31.5971101 L56.4896274,31.1099541 C56.4896274,31.1099541 56.7211534,32.2342661 57.0552483,32.3468807 C57.3895727,32.4592661 56.6020632,33.3588073 56.6020632,33.3588073 C56.6020632,33.3588073 58.289518,35.8374771 61.1017898,33.5487156 C61.1017898,33.5487156 60.8392866,32.946422 60.4269455,32.5716514 L60.9143203,32.1968807 L61.1017898,31.1099541 L61.8892993,31.6347248 L62.339272,31.6347248 C62.339272,31.6347248 61.9641035,33.6211927 60.5767834,34.3707339 L60.614415,36.8069725 C60.614415,36.8069725 60.7642529,38.306055 58.7768928,38.156055 L52.7400082,38.1666055 L50.5277765,35.1576606 C50.5277765,35.1576606 52.2526334,34.5955046 52.7400082,33.8459633" id="Fill-14" fill="#113f68"></path>
                </g>
            </g>
        </g>
    </g>
</svg>
