<?xml version="1.0" encoding="UTF-8"?>
<svg width="51px" height="50px" viewBox="0 0 51 50" version="1.1" xmlns="http://www.w3.org/2000/svg" xmlns:xlink="http://www.w3.org/1999/xlink">
    <!-- Generator: Sketch 39.1 (31720) - http://www.bohemiancoding.com/sketch -->
    <title>Page 1</title>
    <desc>Created with Sketch.</desc>
    <defs></defs>
    <g id="Page-1" stroke="none" stroke-width="1" fill="none" fill-rule="evenodd">
        <g id="Desktop" transform="translate(-42.000000, -411.000000)" fill="#113f68">
            <g id="Page-1" transform="translate(42.000000, 411.000000)">
                <path d="M21.0863237,36.1530076 L21.2015403,31.6058764 L29.1203257,31.6058764 L29.1842894,36.1275978 L21.0863237,36.1530076 Z M17.2550634,32.157106 L17.37028,32.259565 L17.37028,36.5755486 L15.0638973,36.5755486 L15.1922347,32.259565 L15.3332828,32.1312863 L15.3845358,31.8239092 L15.1922347,31.7087453 C15.1922347,31.7087453 15.2947406,30.9403027 16.2812573,30.9403027 C17.2677741,30.9403027 17.4986174,31.7087453 17.4986174,31.7087453 L17.2423526,31.9136633 L17.2550634,32.157106 Z M16.883582,42.991942 L17.0627623,43.1329256 L17.0627623,48.1792371 L14.6669945,48.1661223 L14.7711405,42.9685814 L14.9486807,42.9153027 L14.9486807,42.5566961 C14.9486807,42.5566961 15.0897288,41.8521879 15.9737397,41.8521879 C16.8577505,41.8521879 17.0627623,42.6337453 17.0627623,42.6337453 L16.8577505,42.7616142 L16.883582,42.991942 Z M6.69695615,20.694401 L6.97905237,16.416942 L7.31199152,16.0837453 L7.00447383,15.8275978 C7.00447383,15.8275978 7.49158185,14.3677617 8.95208584,14.3677617 C9.35226886,14.3677617 9.66921708,14.4534174 9.92220163,14.5763682 C9.91400116,14.5751387 9.90744078,14.5730896 9.89924031,14.5718601 C9.78812392,14.5562863 9.89924031,15.4353846 9.89924031,15.4353846 L9.5843422,15.5378437 C9.5843422,15.5378437 9.69422852,15.6403027 9.74179126,15.6915322 C9.78935399,15.7427617 9.74179126,15.9136633 9.74179126,15.9136633 C9.74179126,15.9136633 9.37933041,15.982106 9.41336237,16.5968601 C9.44780435,17.2116142 8.74707405,17.5304666 8.74707405,17.5304666 C8.74707405,17.5304666 8.8471198,18.0993191 9.89924031,18.0993191 L10.7168273,18.0993191 L10.6180116,20.694401 L6.69695615,20.694401 Z M8.59331521,36.8829256 L6.15900521,36.8575158 L6.30415356,32.434565 C6.30415356,32.434565 6.4579124,31.6833355 7.55144529,31.6833355 C8.64456816,31.6833355 8.74707405,32.5157125 8.74707405,32.5157125 L8.59331521,36.8829256 Z M8.15787017,47.666942 L5.69772868,47.666942 L5.76169236,43.6452207 C5.76169236,43.6452207 5.86419825,42.889483 6.96593162,42.889483 C8.068075,42.889483 8.15787017,43.6452207 8.15787017,43.6452207 L8.15787017,47.666942 Z M34.202978,31.3247289 C35.193595,31.3247289 35.3133219,32.2124338 35.3133219,32.2124338 L35.0570572,32.434565 L35.3133219,32.7247289 L35.3133219,36.8927617 L33.1779191,36.8915322 L33.1779191,32.741942 L33.3316779,32.6566961 L33.3316779,32.332106 L33.1094451,32.1784174 C33.1094451,32.1784174 33.211951,31.3247289 34.202978,31.3247289 L34.202978,31.3247289 Z M35.5523656,43.6066961 L35.5523656,48.5759584 L33.4124526,48.5759584 L33.3870311,43.7349748 L33.5280792,43.5042371 L33.5280792,43.1329256 L33.2845252,43.0177617 C33.2845252,43.0177617 33.5280792,42.262024 34.3095842,42.262024 C35.0910891,42.262024 35.437149,42.7357945 35.437149,43.2612043 L35.3473539,43.4530076 L35.5523656,43.6066961 Z M41.2172514,18.9439912 C42.2689619,18.9439912 42.3690077,18.3751387 42.3690077,18.3751387 C42.3690077,18.3751387 41.6686874,18.0562863 41.7027194,17.4415322 C41.7371613,16.8267781 41.3747005,16.7583355 41.3747005,16.7583355 C41.3747005,16.7583355 41.3271378,16.5874338 41.3747005,16.5362043 C41.4222632,16.4849748 41.5321495,16.3825158 41.5321495,16.3825158 L41.2172514,16.2800568 C41.2172514,16.2800568 41.3275478,15.4083355 41.2180715,15.4177617 C41.383311,15.3706305 41.5760221,15.3411223 41.8052252,15.3411223 C43.1378019,15.3411223 43.5310145,16.6730896 43.5310145,16.6730896 L43.5310145,16.912024 L43.1890548,16.9292371 L43.1890548,17.116942 L43.5310145,17.2534174 L43.8213112,21.409565 L40.4345164,21.3989092 L40.3644024,18.9439912 L41.2172514,18.9439912 Z M44.0947969,37.2329256 L41.5834025,37.2329256 L41.5834025,32.2636633 C41.5834025,32.2636633 41.7199403,31.6661223 42.6424934,31.6661223 C43.5650465,31.6661223 43.7700582,31.9050568 44.009102,32.434565 L44.0947969,37.2329256 Z M44.4064148,44.1833355 L44.4064148,48.819401 L42.2410803,48.819401 L41.9975263,48.819401 L41.9975263,44.3239092 C41.9975263,44.3239092 41.9335626,43.4530076 43.1123804,43.4530076 C44.2911982,43.4530076 44.4064148,44.1833355 44.4064148,44.1833355 L44.4064148,44.1833355 Z M50.1594557,49.9210404 L49.4078825,38.394401 L49.7326212,37.9673519 L49.1856497,37.984565 L48.7756261,29.7534174 L49.3394085,29.2923519 L48.7415942,29.2411223 L48.6218673,28.712024 L48.929385,28.4898928 L48.946606,28.2165322 L49.2028707,28.1140732 L49.2028707,27.7386633 L48.4340765,27.7386633 L47.9728,23.7427617 L48.2462857,23.6058764 L48.4340765,23.1448109 L47.904326,23.1280076 L47.8702941,22.462024 L47.8362621,21.8128437 L48.0412739,21.6079256 L47.955579,21.2493191 L47.4602705,21.2493191 L46.9563515,13.4837453 L47.1228211,13.3685814 L47.1486526,12.8689912 L47.3151221,12.8308764 L47.3151221,12.4976797 L46.9563515,12.4976797 L46.9436408,12.2030076 L47.1613633,12.2030076 L47.4430495,11.7038273 L47.4303388,11.3452207 L47.5840976,11.2808764 L47.6099291,11.0505486 L47.8149409,10.9734994 L47.7378564,10.7173519 L45.5979434,10.7173519 L40.6522389,3.45587645 L40.5956557,3.20792563 L40.2869079,3.04604038 L40.2869079,2.06612235 L40.9470459,2.06612235 L40.9470459,1.85464694 L40.2295046,1.85464694 L40.2295046,1.20177809 L40.0372036,1.20177809 L40.0372036,1.87390923 L39.2233068,1.87390923 L39.2233068,2.07267972 L40.1331491,2.07267972 L40.1331491,3.13538464 L39.9601191,3.16120431 L39.9601191,3.21653218 L39.9601191,3.54112235 L37.0731431,10.5767781 L35.8430724,10.5767781 L35.3645748,11.8575158 L35.6720925,11.8915322 L35.6720925,12.0452207 L35.9796102,12.2329256 L35.2961009,14.3677617 L34.8180134,14.4017781 L34.4248008,15.4775978 L34.8007924,15.7337453 L35.0910891,15.9046469 L35.1083101,16.1263682 L34.9885832,16.416942 L35.0570572,16.5534174 L34.9717723,16.707106 L35.1255311,16.8435814 L35.1255311,17.0829256 L35.5183337,17.3046469 L35.5868076,22.0009584 L34.7872616,24.1952207 C33.6486262,24.1415322 32.2012429,23.6755486 30.8370945,22.564483 C28.4794589,20.6431715 27.2752196,20.7968601 27.2752196,20.7968601 C27.2752196,20.7968601 27.1727137,19.1062863 25.455535,19.1062863 C23.7387662,19.1062863 23.6616818,20.6431715 23.6616818,20.6431715 C21.1502874,20.9763682 19.8435422,22.564483 19.8435422,22.564483 C18.2255892,23.7771879 16.814288,23.9800568 15.7982496,23.8747289 L15.683443,23.657106 L15.0856286,20.5153027 L14.8207534,20.4468601 L14.8207534,20.3103846 L14.9101385,16.8009584 L15.1409818,16.8780076 L15.1922347,16.4808764 L15.4739209,16.4038273 L15.179524,15.6353846 L15.179524,15.4689912 L15.5764268,15.4816961 L15.909776,15.0337453 L15.7560171,13.9747289 L15.2734194,13.9747289 L14.8806168,11.7550568 L15.3931463,11.3107945 L15.2393874,9.91079448 L13.701799,9.91079448 L11.0022037,2.72145022 L11.0829784,2.38579448 L10.885347,2.3087453 L10.7840712,1.2382535 L11.5848473,1.2382535 L11.5848473,1.04071251 L10.798422,1.04071251 L10.798422,0.216122348 L10.5921802,0.216122348 L10.5921802,1.04563054 L9.72293017,1.07431907 L9.72293017,1.20956497 L10.5921802,1.20956497 L10.5921802,1.27841743 L10.5155058,2.17513874 L10.1952773,2.40546661 L10.1952773,2.63620431 L10.1181929,2.78989284 L5.01831961,9.73128628 L2.93006951,9.73128628 L3.37822528,10.064483 L3.27571939,10.3718601 L3.46802045,10.4997289 L3.50656266,10.7685814 L3.78824886,10.9993191 L3.77553813,11.4218601 L3.68574297,11.4218601 L3.45530972,11.4218601 L3.44259899,11.639483 L3.69886372,11.7804666 L3.69886372,12.1648928 L3.87804403,12.3054666 L3.87804403,12.4722699 L3.22446644,20.1308764 L1.11243498,20.1308764 L1.11243498,20.3357945 L1.44373403,20.5153027 L1.52040844,20.809565 L2.03293792,21.7189912 L2.04564865,22.2439912 L2.22523898,22.3976797 L1.96897424,26.8251387 L1.68277778,26.8251387 L1.05052142,26.8251387 L1.04232094,27.0214502 L1.1788588,27.1751387 L1.16163781,27.3542371 L1.45234453,27.6788273 L1.3666496,28.712024 L1.54623993,28.8398928 L0.888562102,37.4976797 L0.44409654,37.4976797 L0.777445711,37.7538273 L0.726192764,38.0612043 L0.888562102,38.3087453 L4.10023581e-05,49.9210404 L20.7402638,49.9210404 L20.8259587,46.1640732 L20.9284646,46.0103846 L20.9284646,45.8566961 L21.0650025,45.8566961 L21.0650025,45.5665322 L20.9026331,45.4128437 C20.9026331,45.4128437 21.2872352,41.8435814 25.0799534,41.6558764 C28.8726715,41.4681715 29.6242447,45.3103846 29.6242447,45.5833355 L29.299506,45.6177617 L29.350759,45.941942 L29.6242447,46.2493191 L29.6242447,49.9210404 L50.1594557,49.9210404 Z" id="Fill-1"></path>
            </g>
        </g>
    </g>
</svg>
