<?xml version="1.0" encoding="UTF-8"?>
<svg width="78px" height="74px" viewBox="0 0 78 74" version="1.1" xmlns="http://www.w3.org/2000/svg" xmlns:xlink="http://www.w3.org/1999/xlink">
    <!-- Generator: Sketch 39.1 (31720) - http://www.bohemiancoding.com/sketch -->
    <title>parachute</title>
    <desc>Created with Sketch.</desc>
    <defs></defs>
    <g id="Page-1" stroke="none" stroke-width="1" fill="none" fill-rule="evenodd">
        <g id="Desktop" transform="translate(-390.000000, -1253.000000)" fill="#113f68">
            <g id="ACTIVIDADES" transform="translate(-16.000000, 1035.000000)">
                <g id="parachute" transform="translate(406.000000, 218.000000)">
                    <path d="M48.0262009,0 C48.3691965,0.141945455 48.7121921,0.283890909 49.3201834,0.535490909 C47.5830655,0.9102 46.1075371,1.18904545 44.6524454,1.54895455 C36.4961659,3.56478182 30.6277729,8.78649091 25.4283406,14.9500182 C20.3120175,21.0146545 17.7223493,28.0964545 16.2904192,35.7820273 C15.7416943,38.7275636 14.442262,41.6441727 12.9527686,44.2809273 C11.496655,46.8581455 8.96659389,48.7569182 5.77608734,48.0068273 C2.54675109,47.2479909 1.1430917,44.4790455 0.346061135,41.4716182 C0.2190131,40.9933091 0.114786026,40.5089455 0,40.0272727 L0,36.3272727 C0.0691441048,36.2421727 0.18358952,36.1654818 0.200620087,36.0713 C1.51367686,28.8687455 5.11359825,22.8004091 9.90089083,17.3819273 C17.0401048,9.30146364 26.3507162,4.81269091 36.623214,2.01717273 C39.3804629,1.26674545 42.1802882,0.668354545 44.9606987,0 L48.0262009,0 Z" id="Fill-1"></path>
                    <path d="M78,15.1363636 C75.1555546,14.2248182 72.3114498,13.3122636 69.4663231,12.4024 C57.3964192,8.54229091 45.1422445,8.0993 32.7361572,10.4723455 C32.1251004,10.5894 31.5130218,10.7030909 30.8982183,10.7962636 C30.7544803,10.8177909 30.5967773,10.7491727 30.2077991,10.6795455 C33.004559,7.9772 35.9614061,5.80967273 39.2772576,4.08715455 C46.7230218,0.219645455 54.3874585,0.316181818 62.1700873,2.83520909 C66.31669,4.1773 70.5164279,5.53250909 73.7300961,8.621 C75.3333537,10.1615455 76.5878253,12.0562818 78,13.7909091 L78,15.1363636 Z" id="Fill-3"></path>
                    <path d="M56.2008734,74 C55.5557555,73.1627909 54.9344803,72.4073182 56.2345939,71.4887091 C56.5329694,71.2781455 56.3190655,70.2693909 56.231869,69.6430818 C56.1402445,68.9875091 55.9174847,68.3497636 55.6344367,67.2451455 C54.4896419,68.4530273 53.5774847,69.4695182 52.5989083,70.4194091 C52.2337729,70.7739364 51.582524,71.2966455 51.2899389,71.1809364 C50.4786026,70.8597091 49.7871616,70.2431545 49.0487162,69.7433182 C49.3147336,69.3676 49.6086812,68.6518182 49.842,68.6706545 C51.4323144,68.7994818 51.7528297,67.5334091 52.3856856,66.6013455 C52.543048,66.3695909 52.6752052,66.1206818 52.8124716,65.8758091 C54.30469,63.2097909 54.3043493,63.2097909 57.1651441,62.4990545 C55.9069258,61.7782273 54.7032052,60.9353 53.3812926,60.3560818 C43.2358428,55.9117091 33.0651878,51.5231727 22.9119039,47.0956182 C22.3635197,46.8564636 21.9006288,46.4262545 21.3978865,46.0848455 C21.5188035,45.8561182 21.6397205,45.6277273 21.7609782,45.399 C30.98269,49.3933182 40.2047424,53.3876364 49.4267948,57.3822909 C49.4628996,57.3261182 49.4990044,57.2702818 49.5354498,57.2144455 C45.3251528,54.5649091 41.1148559,51.9153727 36.9048996,49.2658364 C37.0571528,49.0229818 37.2097467,48.7797909 37.3623406,48.5369364 C42.3431004,51.2106909 47.0081135,54.4441545 52.003179,57.1380909 C49.1621397,53.7263545 45.6933537,50.9066182 42.8577642,47.5352455 C43.0355633,47.3552909 43.2130218,47.1756727 43.3904803,46.9960545 C43.8979913,47.4353455 44.4327511,47.8470545 44.9079039,48.3179636 C48.2724629,51.6513273 51.6036419,55.0173182 54.9957904,58.3224273 C55.7608035,59.0678091 56.7240524,59.6140636 57.5960175,60.2521455 C57.7670044,60.1041455 57.9383319,59.9558091 58.1093188,59.8078091 C57.7744978,59.2470909 57.301048,58.7223636 57.1385764,58.1165727 C56.9151354,57.2830636 56.5493188,56.1047818 56.9403406,55.5958636 C57.3599738,55.0499455 58.5837904,54.9655182 59.4612052,54.9513909 C60.0940611,54.9413 60.7340699,55.3762182 61.6353275,55.7105636 C60.8273974,50.1360091 60.07669,44.9587 59.3263231,39.7813909 C59.6267424,39.7376636 59.9271616,39.6939364 60.2272402,39.6502091 C60.8672489,43.7296273 61.5072576,47.8087091 62.1469258,51.8877909 C62.2143668,51.8928364 62.2818079,51.8978818 62.3492489,51.9032636 C62.5992576,46.3902636 62.849607,40.8776 63.0996157,35.3649364 C63.3097729,35.3773818 63.5199301,35.3898273 63.7300873,35.4022727 L63.7300873,50.1498 C65.8599301,40.4336 68.003738,30.6548364 70.1472052,20.8757364 C70.3897205,20.9100455 70.6322358,20.9446909 70.8747511,20.979 C70.8209345,21.6352455 70.84069,22.3066273 70.7020611,22.9447091 C68.364786,33.7177636 65.9934498,44.4834182 63.6888734,55.2632 C63.5427511,55.9450091 63.8401048,56.7358 63.9988297,57.4616727 C64.4245939,59.4072 65.0182795,61.3275 65.286,63.2922 C65.4467686,64.4731727 64.8271965,65.4634273 63.3983319,65.6447273 C63.0992751,65.6827364 62.6919039,65.8512545 62.5638341,66.0833455 C61.7187773,67.6148091 60.3876681,67.9131636 58.6655371,67.5751182 C58.6655371,68.4695091 58.5211179,69.3198364 58.6938079,70.1018818 C59.1284279,72.0712909 58.6917642,73.4702273 56.5414847,74 L56.2008734,74 Z" id="Fill-5"></path>
                </g>
            </g>
        </g>
    </g>
</svg>
