<?xml version="1.0" encoding="UTF-8"?>
<svg width="52px" height="50px" viewBox="0 0 52 50" version="1.1" xmlns="http://www.w3.org/2000/svg" xmlns:xlink="http://www.w3.org/1999/xlink">
    <!-- Generator: Sketch 39.1 (31720) - http://www.bohemiancoding.com/sketch -->
    <title>Group</title>
    <desc>Created with Sketch.</desc>
    <defs></defs>
    <g id="Page-1" stroke="none" stroke-width="1" fill="none" fill-rule="evenodd">
        <g id="Desktop" transform="translate(-480.000000, -44.000000)" fill="#113f68">
            <g id="Group" transform="translate(480.000000, 44.000000)">
                <path d="M49.3108718,23.9450393 C49.3023936,23.9686445 49.2913719,23.9943574 49.2837416,24.0209132 C49.2494049,24.1427331 49.2540679,24.1473698 49.3668278,24.1975309 C49.4422837,24.2308311 49.5139243,24.2725618 49.5999779,24.3168216 C49.6160865,24.1713966 49.6313472,24.0314513 49.6470319,23.891506 C49.5262177,23.910896 49.4287186,23.9264923 49.3108718,23.9450393 M39.1985145,26.6292907 C39.3015245,26.4965113 39.3201765,26.4252741 39.2417532,26.3595167 C39.0959284,26.2372754 38.9462884,26.1146125 38.7818116,26.0201916 C38.6266608,25.9312505 38.4490428,25.8823539 38.284566,25.8085876 C38.1345021,25.7411441 37.9785034,25.7107945 37.811907,25.7065793 C38.3532393,25.8987933 38.8229308,26.1942801 39.1985145,26.6292907 M39.9280625,23.6638842 C40.0755829,23.8223764 40.1976688,23.9534697 40.3201786,24.0845631 C40.3752868,24.1435761 40.439721,24.1633876 40.519416,24.1380963 C40.697034,24.0824554 40.8733803,24.0230209 41.0531179,23.9766534 C41.2824528,23.9176404 41.4821141,23.7730584 41.7241663,23.7519823 C41.7390032,23.7507177 41.7517204,23.7292201 41.7847854,23.7001351 C41.6436236,23.6765299 41.5278963,23.6575614 41.4121691,23.6381714 C41.1565517,23.5947546 40.9013583,23.5471226 40.6448932,23.5083426 C40.5126334,23.4885311 40.3799498,23.4788361 40.262103,23.5749431 C40.2264946,23.6040281 40.1662995,23.6031851 40.117126,23.6158307 C40.0641374,23.6293194 40.0111487,23.6428081 39.9280625,23.6638842 M37.7580706,28.5763003 C37.8106353,28.618031 37.8640479,28.6922189 37.9047432,28.6854745 C37.9984272,28.6707212 38.0314921,28.7280482 38.0810895,28.7756802 C38.0950785,28.7887474 38.120937,28.7900119 38.1391651,28.7959132 C38.1467954,28.8604061 38.0933828,28.9400737 38.1853712,28.9674727 C38.242175,28.9312218 38.2943159,28.8983431 38.3210222,28.8810607 C38.4973684,29.0066742 38.649128,29.1145838 38.8292895,29.2427265 C38.8191156,29.0307009 38.943745,28.8262628 38.6966058,28.7166671 C38.6732908,28.6572325 38.7546814,28.5716636 38.6355629,28.5467938 C38.6270847,28.589789 38.6190304,28.6289906 38.6109762,28.6681921 C38.5579875,28.5944258 38.532129,28.5181303 38.5028793,28.4426779 C38.4986402,28.4317183 38.4774447,28.4270816 38.4537058,28.4135929 C38.4367494,28.4574312 38.4219126,28.4953681 38.4113149,28.5227671 C38.3413698,28.4768212 38.2739682,28.4321399 38.1997841,28.3832433 C38.1963928,28.3469924 38.1972406,28.2964098 38.1845234,28.2496209 C38.1807082,28.2344461 38.1417085,28.2281233 38.1128827,28.2150561 C38.0963502,28.2694324 38.0836329,28.3120061 38.0700678,28.357952 C38.0314921,28.3204366 38.0018184,28.2757552 37.9602753,28.2555222 C37.9208517,28.2369752 37.8687109,28.2441411 37.8233526,28.2403474 C37.802581,28.1670026 37.8928737,28.0624652 37.7784182,28.0333801 C37.6847342,28.0789045 37.606311,28.1168415 37.5274639,28.1552 C37.4791382,28.0346447 37.4804099,28.0312725 37.3901173,28.0076673 C37.3337373,27.9924925 37.2582815,28.002609 37.2209774,27.9688873 C37.0933807,27.8546549 36.9178823,27.8626638 36.77884,27.7766733 C36.6474281,27.6961626 36.5571354,27.761077 36.5702766,27.9128249 C36.5740918,27.9587708 36.5787548,27.9840621 36.5376356,28.0249497 C36.47956,28.0818552 36.498212,28.1412897 36.5770591,28.1682671 C36.6512433,28.1935585 36.7339056,28.1927154 36.8220787,28.2049396 C36.9619688,28.3731268 37.2167383,28.3377189 37.3939324,28.462911 C37.4134323,28.4768212 37.4621818,28.4490007 37.498638,28.4405703 C37.5520506,28.5573319 37.6385281,28.609179 37.7580706,28.5763003 M49.4477945,23.8152106 C49.637282,23.7696862 49.7123139,23.6697855 49.7152813,23.5083426 C49.7169769,23.4071774 49.7271507,23.3060121 49.7369007,23.2052684 C49.7640309,22.9194765 49.7979436,22.6345277 49.8199869,22.3483144 C49.8348237,22.157365 49.735205,22.0667378 49.5508045,22.0861278 C49.5173156,22.0899215 49.4834029,22.0924506 49.4494901,22.0937152 C48.9692008,22.1156343 48.4889116,22.1383965 48.0086223,22.1586295 C47.556311,22.1780195 47.1039998,22.1965665 46.6516885,22.2125843 C46.4257448,22.2205932 46.1993772,22.2205932 45.9738575,22.2294452 C45.9251079,22.2311313 45.8585541,22.2399833 45.8339674,22.2715974 C45.7805548,22.3394624 45.709338,22.3449422 45.639393,22.3588524 C45.5516438,22.3765563 45.4630467,22.3879374 45.3524064,22.4052198 C45.3998842,22.4882596 45.433797,22.5510664 45.471101,22.6121871 C45.5491003,22.7394867 45.5563068,22.7491817 45.7029794,22.7129308 C45.9831835,22.6446443 46.2621158,22.571721 46.5389286,22.4907888 C46.9535119,22.3693905 47.3714865,22.2800278 47.8072653,22.284243 C48.0450785,22.2867722 48.2824677,22.2715974 48.51477,22.3360902 C48.6076062,22.3622246 48.6995945,22.3925742 48.7941263,22.4090135 C48.9738638,22.4410492 49.1239278,22.5299903 49.2578831,22.6446443 C49.543598,22.8882839 49.7008684,23.2474206 49.51562,23.6423866 C49.4927289,23.6912831 49.4757725,23.7431303 49.4477945,23.8152106 M37.2353903,25.5877101 C37.1603584,25.556096 37.0853264,25.5249034 37.0064793,25.4916031 C36.9717187,25.4245811 37.0102945,25.3668327 37.0386964,25.3052905 C37.1082175,25.1569147 37.0955003,25.1354171 36.9433168,25.0970586 C36.6639606,25.0258214 36.3862999,24.9486829 36.1069437,24.8795533 C36.0264009,24.8597418 35.941619,24.8580557 35.8381852,24.8458316 C35.8648915,24.9335081 35.8848152,24.9996871 35.9102498,25.0839915 C35.7199145,25.1548071 35.544416,25.237847 35.3477221,25.2530217 C35.2705706,25.0119112 35.3396678,24.8837686 35.549079,24.7821818 C35.6915125,24.7134737 35.8263157,24.7143168 35.974684,24.7366574 C36.315931,24.7885046 36.6584497,24.8298138 37.0001207,24.8757596 C37.0505659,24.882504 37.1069458,24.8791318 37.1506085,24.9002079 C37.3858782,25.0144403 37.615637,24.9444677 37.844972,24.8858762 C38.2230991,24.7893477 38.6016501,24.6940837 38.9772338,24.5878602 C39.1391672,24.5419143 39.2926224,24.468148 39.4520123,24.411664 C39.6673582,24.3353686 39.8848237,24.2632883 40.1073761,24.1869929 C40.0730395,24.0499983 39.9776599,23.9808687 39.9094105,23.8965643 C39.8428567,23.8152106 39.8047049,23.6925477 39.6639669,23.7030857 C39.7440858,23.4223522 39.9704534,23.3005323 40.2375163,23.381043 C40.2934723,23.3983254 40.36045,23.4012761 40.4176778,23.3886304 C40.7233164,23.322873 41.0251398,23.3464782 41.328235,23.4029622 C41.6393845,23.4611322 41.9505339,23.5201452 42.263379,23.5686203 C42.3498565,23.582109 42.4460839,23.5728355 42.5312897,23.5500733 C42.978938,23.4303611 43.4240428,23.3001108 43.871691,23.1803986 C44.166308,23.1011525 44.4643163,23.033709 44.7610528,22.9603642 C44.8928886,22.9274855 45.0247244,22.8954498 45.1552885,22.8591989 C45.2926352,22.8208404 45.3176458,22.7677287 45.2663528,22.6366354 C45.2040381,22.4781431 45.2040381,22.4781431 45.1056911,22.4170224 C45.1947121,22.1464054 45.4350687,22.0363882 45.7076424,22.1350243 C45.7572398,22.1531497 45.8191305,22.1577865 45.8708475,22.1468269 C46.1942903,22.0798049 46.5202766,22.0566212 46.850502,22.0591504 C47.0365982,22.0604149 47.2222705,22.0258501 47.4087906,22.0182627 C48.0760239,21.9904423 48.7432572,21.9689447 49.4100666,21.9419673 C49.5541957,21.936066 49.697901,21.9158329 49.8250738,21.9036088 C49.8776386,21.7792598 49.9191817,21.6814667 49.9658117,21.5718711 C49.8984101,21.4500512 49.8110848,21.3307605 49.674586,21.2510929 C49.6105757,21.213999 49.5478371,21.1655239 49.5804781,21.0748967 C49.6165104,20.9749961 49.6436406,20.8641358 49.7691178,20.8371584 C49.8047262,20.829571 49.8513562,20.8329432 49.8818777,20.8502256 C49.9984527,20.9164045 50.1129082,20.9863771 50.2231247,21.0630941 C50.2769612,21.1001881 50.3218955,21.1516137 50.3659821,21.2009318 C50.5033287,21.3568949 50.6385558,21.5149656 50.7865002,21.685682 C50.7559787,21.7586052 50.7301202,21.8386944 50.6898489,21.9103531 C50.6461862,21.9879132 50.5711542,22.0456617 50.4808615,22.0304869 C50.3515692,22.0085677 50.249831,22.0730606 50.1396145,22.1101545 C50.0340611,22.1459839 49.978529,22.226073 49.9683552,22.3386194 C49.9471597,22.5742501 49.9238447,22.8090378 49.8996818,23.044247 C49.8479649,23.5424859 49.7949762,24.0403033 49.7432593,24.5385421 C49.7377485,24.5916539 49.7360528,24.6456087 49.7301181,24.7307561 C49.7839546,24.6923976 49.8174434,24.6793304 49.8331281,24.6553037 C50.0467784,24.3303103 50.259157,24.0048954 50.4681443,23.6769514 C50.5190134,23.5964407 50.5546218,23.5066565 50.5987083,23.4215091 C50.6444906,23.332568 50.7025661,23.2625954 50.8174456,23.2668106 C50.847967,23.2676536 50.8789124,23.2478421 50.9344445,23.2297167 C50.9191838,23.4990691 51.0828128,23.6874894 51.1790402,23.9492545 C51.2303333,23.8725375 51.2680612,23.832493 51.2862893,23.7852825 C51.4024405,23.486002 51.5139286,23.1854569 51.6262646,22.8849117 C51.6695033,22.7694147 51.7101986,22.6534962 51.7797198,22.542636 C51.7653068,22.6256758 51.7606438,22.7120878 51.7352093,22.7921769 C51.6440688,23.082184 51.5444501,23.3696619 51.4507661,23.6588259 C51.2939197,24.1439976 51.0573782,24.5924969 50.8136304,25.0376241 C50.7517396,25.1505919 50.6775555,25.25808 50.6008279,25.3621959 C50.5012092,25.4975044 50.4520357,25.6492523 50.4249055,25.8115382 C50.4172751,25.855798 50.4045579,25.8996363 50.3901449,25.9417885 C50.137495,26.672286 49.8526279,27.3892947 49.5037505,28.0810121 C48.9641139,29.1499916 48.2947611,30.1355098 47.4846703,31.015226 C46.7924264,31.766378 46.0785631,32.4985616 45.3011133,33.1679383 C44.6376952,33.7391005 43.9755488,34.3119487 43.2917831,34.8590842 C42.5325614,35.4664972 41.7644377,36.0612646 40.9751185,36.6298976 C40.5215355,36.9569986 40.0721916,37.2904224 39.6164891,37.6149943 C39.2252208,37.8936203 38.8309851,38.1676095 38.4333581,38.4365405 C37.8339503,38.841623 37.2319991,39.2429118 36.6287761,39.6420931 C36.3413656,39.8317779 36.0471725,40.0117678 35.7567946,40.1976589 C35.6571759,40.2617302 35.5613724,40.3317029 35.4617537,40.3961957 C35.4252975,40.4193794 35.3829065,40.4341327 35.3375482,40.4552088 C35.2977008,40.3919805 35.305755,40.3460346 35.3642545,40.323694 C35.4604819,40.2874431 35.5049924,40.2368605 35.4982099,40.122628 C35.4910034,40.007131 35.5567094,39.9557054 35.6775235,39.9510686 C35.7703597,39.9472749 35.8318265,39.9139747 35.8860869,39.8338855 C35.9662058,39.7154379 36.0433573,39.5902459 36.2023233,39.5464076 C36.2523446,39.5324974 36.2845617,39.4583095 36.3282244,39.4148928 C36.3714631,39.3723191 36.4151258,39.3057186 36.4647232,39.2993958 C36.5774831,39.285064 36.619874,39.2167775 36.6516672,39.1291009 C36.6919386,39.0173976 36.7495902,38.9507972 36.88185,38.9149678 C37.0035119,38.8820891 37.1031306,38.7686997 37.2112275,38.6894536 C37.2383577,38.6696421 37.2587054,38.6304405 37.2875312,38.6245392 C37.4354756,38.5941896 37.5045728,38.4770066 37.5957133,38.3771059 C37.686006,38.2784697 37.793255,38.1903717 37.9077106,38.120399 C37.9929163,38.0681303 38.059894,38.0091173 38.1154261,37.9290281 C38.1726539,37.8459883 38.2311534,37.7616839 38.3464567,37.7460876 C38.3701956,37.7427154 38.401141,37.7182671 38.410467,37.6959265 C38.4910098,37.4965466 38.6715952,37.3932738 38.831409,37.2567007 C38.8288656,37.2242435 38.8212352,37.185885 38.8229308,37.1475265 C38.826746,37.0547917 38.8937237,36.9763886 38.9823207,36.9553125 C39.1811342,36.9081021 39.2349707,36.8221116 39.1735038,36.6117722 C39.2387859,36.6143013 39.2968615,36.6164089 39.354937,36.6193596 C39.4130126,36.6223102 39.4630339,36.6029202 39.4621861,36.5401135 C39.4600666,36.3925808 39.537642,36.3272449 39.6804994,36.3221866 C39.6915211,36.2547431 39.7016949,36.194887 39.710597,36.1409322 C39.7275534,36.1308157 39.7381511,36.1185916 39.7466293,36.1198561 C39.8687152,36.1405107 39.9568883,36.1097396 40.0264094,35.9938211 C40.1065283,35.8597771 40.2099622,35.7388003 40.3057657,35.6140299 C40.332472,35.5794651 40.3655369,35.5259318 40.397754,35.5246672 C40.538068,35.5179229 40.5791872,35.4116994 40.6118282,35.3143278 C40.650404,35.1984093 40.7093274,35.1465621 40.8335328,35.1613153 C40.8754998,35.1663736 40.9276407,35.154571 40.9632491,35.1313873 C40.9946184,35.1111542 41.0319224,35.0601501 41.0259877,35.0314866 C41.0192051,34.9998725 40.968336,34.9703659 40.9306081,34.9556127 C40.9022061,34.9446531 40.8640543,34.9585633 40.8301415,34.9610924 C40.7402728,34.9674153 40.6499801,34.9745811 40.5596874,34.9796394 C40.4418406,34.9855407 40.337135,35.0133612 40.2722769,35.1259075 C40.2570161,35.1524634 40.2264946,35.1802838 40.1980927,35.1870282 C40.1701147,35.1937725 40.1256042,35.1832345 40.1078,35.1630014 C40.0916915,35.1444545 40.0883002,35.0938718 40.1027131,35.0740603 C40.1726582,34.9779533 40.2120817,34.8670931 40.3447653,34.808923 C40.491438,34.7448517 40.6075891,34.6162875 40.7445119,34.5265034 C41.0166616,34.3477781 41.2938984,34.1774833 41.5677438,34.0012871 C41.6478627,33.950283 41.7207751,33.8878977 41.8000461,33.8360505 C42.1879232,33.5827159 42.5800393,33.3369686 42.9636772,33.0777326 C43.1879253,32.9259848 43.3977604,32.7535823 43.6156498,32.5925609 C43.7152685,32.5187946 43.8212458,32.4534587 43.9195928,32.3780063 C44.2239597,32.1449047 44.5295983,31.9126461 44.8280305,31.6723786 C45.2197227,31.3570803 45.6080237,31.0384097 45.9912377,30.7134163 C46.1925947,30.5427 46.3786909,30.3542797 46.5741131,30.1759759 C46.7737744,29.9938785 46.9823378,29.8202114 47.1764883,29.6322127 C47.4321056,29.3856224 47.6754295,29.1268079 47.9268078,28.8755809 C48.4058253,28.396732 48.8568649,27.8930134 49.2710243,27.357259 C49.4956962,27.067252 49.7157052,26.7738727 49.936562,26.4813365 C49.9730182,26.433283 50.0039635,26.3814358 50.0374524,26.3316963 C50.0293981,26.3232658 50.0209199,26.3148354 50.0128656,26.3064049 C49.9861593,26.3270595 49.9539422,26.3430774 49.9344424,26.3692117 C49.8416063,26.4901885 49.7547049,26.6153805 49.6618687,26.7363573 C49.449914,27.0145617 49.2481332,27.3020397 49.0192221,27.5654908 C48.7199422,27.9102958 48.4020102,28.2395043 48.0853499,28.5687129 C47.827613,28.8372224 47.5601262,29.0964584 47.2956068,29.3582235 C47.1993794,29.4534874 47.1018802,29.5424285 46.9641097,29.5854238 C46.8882299,29.609029 46.8276109,29.6815307 46.7610571,29.7329564 C46.68221,29.7928125 46.6309169,29.7801669 46.6241344,29.6840599 C46.6173518,29.5875314 46.5808956,29.5441146 46.485516,29.5272537 C46.4253209,29.5167157 46.3914082,29.4699268 46.4181144,29.3991111 C46.4630488,29.2793989 46.4121797,29.1908793 46.3163762,29.1221712 C46.1938664,29.0340731 46.0692371,28.9480827 45.9335861,28.8528187 C45.9365534,28.8410161 45.93401,28.8068728 45.9496946,28.790855 C46.1175627,28.6247754 46.2438877,28.4232879 46.4253209,28.2669033 C46.7462203,27.9908064 47.056098,27.7024855 47.3659757,27.4150075 C47.6432124,27.1578792 47.9179057,26.8973786 48.187512,26.6326629 C48.3562279,26.4665833 48.5139222,26.2895441 48.6762795,26.1171416 C48.9666574,25.8085876 49.2388072,25.4848588 49.4804355,25.1371032 C49.4931528,25.1189778 49.5029027,25.0987447 49.5071418,25.0911573 C49.3634365,24.9739742 49.225666,24.8618494 49.0883194,24.7488816 C49.0442328,24.7126307 49.0005701,24.7020926 48.9501249,24.737922 C48.7898872,24.8517329 48.6071823,24.9280284 48.4579662,25.0654445 C48.3269782,25.1859998 48.1557188,25.2614522 48.0115896,25.3697833 C47.8594062,25.4840157 47.7178205,25.6121584 47.5728435,25.7360858 C47.5045941,25.7950989 47.439736,25.8579057 47.3736061,25.9194479 C47.3613127,25.9308289 47.3511389,25.9455822 47.3371499,25.9544342 C47.2095532,26.0332588 47.0760217,26.1040744 46.9547837,26.1913295 C46.841176,26.2731047 46.7343508,26.3666826 46.6368517,26.4670048 C46.6046346,26.4998835 46.5970042,26.5711207 46.6016672,26.6229679 C46.6232866,26.8640784 46.6461777,27.1051889 46.68221,27.3441918 C46.700862,27.4685408 46.6614384,27.5524237 46.5635153,27.6181811 C46.4711031,27.6801448 46.3647019,27.6734004 46.2663549,27.5924682 C46.1875078,27.5279754 46.1120519,27.4596888 46.0408351,27.3871871 C45.9721618,27.317636 45.9051841,27.3003536 45.8136197,27.3471425 C45.6550776,27.4280747 45.4876334,27.4744421 45.3062002,27.433976 C45.2854287,27.4293393 45.2570268,27.4310254 45.2409182,27.4419849 C45.1786035,27.4849802 45.1281583,27.4613749 45.068811,27.4310254 C44.966225,27.3787566 44.9234101,27.4074201 44.8780518,27.5144867 C44.7614767,27.7905835 44.5745327,27.9967077 44.273981,28.079326 C44.0124289,28.1514063 43.8216697,28.3250733 43.6406605,28.512229 C43.6207367,28.5324621 43.6105629,28.5763003 43.6169215,28.6045423 C43.6415083,28.713295 43.6605842,28.8262628 43.708062,28.9253205 C43.7949635,29.1065749 43.8093764,29.2920445 43.7856375,29.4851015 C43.773768,29.5828946 43.7288336,29.6558179 43.6253997,29.6790016 C43.5156072,29.7034499 43.3914018,29.6625623 43.3460435,29.5664553 C43.2201424,29.3008965 43.1709689,29.032387 43.3502826,28.7647206 C43.3710541,28.733528 43.3672389,28.685896 43.3748693,28.6454299 C43.3329023,28.6407932 43.2905113,28.6298336 43.2493921,28.6332058 C43.1769036,28.6391071 43.1056869,28.6584971 43.0331984,28.6635554 C42.9089929,28.6728289 42.7928418,28.6774656 42.6927992,28.78116 C42.642354,28.8334287 42.5355288,28.8595631 42.4579534,28.8532402 C41.9327297,28.8106665 41.4812663,28.6243538 41.178595,28.1661595 C41.0700742,28.001766 40.9594339,27.838637 40.8441305,27.6793018 C40.8017396,27.6207102 40.7423923,27.5739213 40.6906754,27.5220741 C40.6588822,27.4900384 40.6143717,27.4647471 40.5952958,27.4268101 C40.4503188,27.1376461 40.1667234,26.9880058 39.9416276,26.7801956 C39.8593892,26.7043216 39.6342933,26.6208603 39.5122074,26.6027348 C39.5245008,26.6372996 39.5261964,26.6727075 39.5448484,26.6908329 C39.743238,26.884733 39.869563,27.1212068 39.9683339,27.3753845 C40.051844,27.5899391 40.1429845,27.8011216 40.2239512,28.0160977 C40.3015266,28.223065 40.332472,28.4397272 40.3286568,28.6601832 C40.3273851,28.7322634 40.3176352,28.8077159 40.2938962,28.8755809 C40.2023318,29.137346 40.2065709,29.4054339 40.2218316,29.676894 C40.238788,29.9719593 40.182832,30.2585942 40.1001697,30.5405924 C40.0802459,30.6084574 40.0242899,30.6430222 39.9560405,30.6341702 C39.850911,30.62026 39.7996179,30.6805376 39.7305207,30.7458735 C39.4600666,31.0021588 39.1811342,31.2500137 38.8992345,31.4940749 C38.2684574,32.0395242 37.5613766,32.4757994 36.8449698,32.8990074 C36.2845617,33.2294805 35.7101645,33.5321332 35.1196588,33.8052794 C35.0090185,33.8567051 34.9098237,33.8630279 34.7949443,33.8166605 C34.459632,33.6800874 34.1128742,33.5692272 33.7847683,33.4179008 C33.19723,33.1472837 32.6283437,32.8353575 32.1751846,32.3662037 C31.9611104,32.1449047 31.7974813,31.8751307 31.6139286,31.6255897 C31.5740811,31.5712134 31.5482227,31.5067205 31.5100708,31.4515012 C31.2184212,31.0287147 31.1073569,30.5515519 31.0759877,30.0490978 C31.0713247,29.9782822 31.0543683,29.908731 31.0399554,29.8185254 C30.8886197,29.8632067 30.7572078,29.907045 30.639361,29.9850265 C30.4693734,30.0971513 30.3006575,30.2126483 30.0891267,30.2345675 C30.0836159,30.234989 30.078529,30.2375181 30.0734421,30.2400473 C29.85852,30.3395264 29.6402067,30.4322612 29.4316433,30.5431215 C29.3566114,30.5827446 29.2926011,30.6586185 29.2472428,30.7323848 C29.194678,30.8179538 29.1382981,30.8862403 29.0429185,30.9237558 C28.9912015,30.9439888 28.942028,30.975603 28.8992132,31.0114323 C28.8797134,31.0278717 28.8792895,31.0662302 28.8644526,31.1125976 C28.937365,31.100795 28.9903537,31.092786 29.059027,31.0818265 C29.1302438,31.2175565 29.1370263,31.3709905 29.1565262,31.5172586 C29.1696674,31.6133656 29.1399937,31.7149524 29.1327872,31.8144315 C29.1298199,31.85279 29.134059,31.8919915 29.1399937,31.9299285 C29.1455045,31.9628072 29.1599174,31.9944214 29.1675478,32.0273001 C29.2417319,32.3556656 29.0645378,32.6245966 28.7321929,32.7051073 C28.6410524,32.7270264 28.5562705,32.775923 28.4702169,32.8151245 C28.3985763,32.8475817 28.3290551,32.8842541 28.2582623,32.9192404 C28.2179909,32.9390519 28.1717848,32.9516976 28.137872,32.9790965 C27.9759387,33.1118759 27.7839077,33.1746827 27.5867899,33.229902 C27.5545728,33.238754 27.5181166,33.2459199 27.4922581,33.2653099 C27.3472811,33.3749056 27.1874673,33.4524656 27.0191753,33.5224382 C26.8699592,33.5844019 26.7393951,33.6906255 26.5986572,33.7740868 C26.5460925,33.8052794 26.4892886,33.8326783 26.4316369,33.8537544 C26.3294748,33.8921129 26.2243453,33.9241486 26.0937812,33.9675653 C26.0785205,33.9426956 26.0420643,33.9013864 26.0259557,33.8529114 C25.963641,33.6661772 25.9115002,33.4760708 25.8491855,33.2893366 C25.762708,33.0275715 25.669024,32.7683356 25.5816987,32.506992 C25.5588076,32.4378624 25.5482099,32.3645176 25.5316774,32.2932804 C25.5079385,32.1912721 25.5159928,32.1103399 25.6296005,32.055542 C25.7220127,32.0108607 25.7203171,31.9733453 25.6601219,31.8978929 C25.5460903,31.7554185 25.5342209,31.5728995 25.6338396,31.419887 C25.6639371,31.3735196 25.7012411,31.3275737 25.7449038,31.2934305 C25.8521529,31.2091261 25.9178588,31.1151267 25.9208262,30.9671725 C25.9237936,30.8145816 26.1688131,30.6801161 26.3087032,30.7488242 C26.3888221,30.7880257 26.4456259,30.7766446 26.5113319,30.7328063 C26.6338417,30.6514526 26.7559276,30.5696774 26.8818287,30.4933819 C27.0501207,30.3909521 27.2150214,30.283464 27.4159544,30.2451055 C27.4901386,30.2311953 27.5575401,30.1785051 27.6257895,30.1393035 C27.7334625,30.0777613 27.8360486,30.0061026 27.9471128,29.9508832 C28.6003571,29.6279975 29.2544492,29.3059547 29.9110848,28.9893918 C30.2930271,28.8047652 30.6792085,28.6285691 31.0653899,28.4532159 C31.1484762,28.4157005 31.2065517,28.3739698 31.2235081,28.2770198 C31.2434318,28.1606798 31.2815837,28.0477119 31.3057465,27.9322149 C31.392224,27.5187019 31.6016352,27.1793768 31.9280454,26.912975 C32.3070204,26.6039994 32.724995,26.3595167 33.1764584,26.1681458 C33.6202915,25.980147 34.0742984,25.8233409 34.5401748,25.7023641 C34.726271,25.6538891 34.9166063,25.6180597 35.1069416,25.5923469 C35.7936747,25.4983475 36.4825274,25.478536 37.1718039,25.5683201 C37.1938472,25.5712708 37.2146188,25.5809658 37.2362382,25.5872886 C37.339672,25.5999343 37.4431059,25.6125799 37.5545941,25.6260686 C37.5681592,25.5282755 37.5808765,25.4351192 37.5940176,25.3419629 C37.4821056,25.4486079 37.3901173,25.5611542 37.2353903,25.5877101" id="Fill-1"></path>
                <path d="M21.4623252,37.2045632 C21.4551187,37.2311191 21.4449449,37.2505091 21.4470644,37.2686345 C21.4483362,37.2783295 21.4695316,37.2859169 21.481825,37.2947689 C21.491151,37.2741143 21.5025966,37.2534597 21.5081074,37.2315406 C21.5089552,37.2277469 21.4847924,37.2176304 21.4623252,37.2045632 M6.70943237,44.8003877 C6.83236608,44.7224061 6.83194217,44.7177694 6.706465,44.6161826 C6.70773673,44.6886844 6.70858455,44.7447468 6.70943237,44.8003877 M6.75097549,44.4479954 C6.80226852,44.3809734 6.84550727,44.3131084 6.78955124,44.219109 C6.68781299,44.286974 6.69883464,44.3641125 6.75097549,44.4479954 M21.9252342,36.8774622 C21.8154417,36.9347892 21.7327793,36.9845287 21.729812,37.1097207 C21.8815715,37.0797927 21.9265059,37.0300531 21.9252342,36.8774622 M6.9014633,46.1370336 C6.66025889,46.1020473 6.55894456,46.1812934 6.64966115,46.3414717 C6.72638874,46.279508 6.79972506,46.2196519 6.9014633,46.1370336 M6.37157663,46.1656971 C6.08670955,46.2107999 5.81498367,46.2525306 5.5441056,46.2997411 C5.51994277,46.3039563 5.48009529,46.3507452 5.4851822,46.3638124 C5.49662775,46.3945835 5.52714922,46.42409 5.5576707,46.4405294 C5.57886616,46.452332 5.61277891,46.4439015 5.64033302,46.4401078 C5.84592905,46.4131304 6.05067726,46.3815163 6.2566972,46.3600187 C6.29612076,46.3558035 6.33978343,46.3886822 6.38556564,46.4063861 C6.38938082,46.3549604 6.39446773,46.3047993 6.39489164,46.2550597 C6.39489164,46.2339836 6.38429391,46.2129075 6.37157663,46.1656971 M8.5127427,45.9975099 C8.50892751,45.9844427 8.50468842,45.971797 8.50044933,45.9591514 C8.19226724,45.9865503 7.88408515,46.0139492 7.57632697,46.0421912 C7.52037094,46.047671 7.4644149,46.0577875 7.40888278,46.0662179 C7.35038329,46.0750699 7.29103598,46.0915092 7.28510125,46.1593743 C7.27789479,46.2403065 7.34699202,46.260961 7.40676323,46.2740282 C7.49451247,46.2929967 7.58522906,46.3166019 7.67340221,46.3123867 C7.77259699,46.3081715 7.87475914,46.2862524 7.96759529,46.2516876 C8.09349636,46.2048986 8.21219098,46.1387197 8.33385296,46.0809712 C8.39362417,46.0527292 8.45339539,46.0253303 8.5127427,45.9975099 M8.73020819,42.6240701 C8.6399155,42.6683299 8.57505737,42.689406 8.52291652,42.7277645 C8.19311506,42.9722472 7.86585705,43.2201021 7.53902295,43.4688 C7.5051102,43.4949344 7.46780618,43.5324498 7.45848017,43.5712298 C7.44788244,43.6150681 7.4508498,43.6926281 7.47670827,43.7078029 C7.51528402,43.7305651 7.57887042,43.7137042 7.63143518,43.709489 C7.64542419,43.7082245 7.65771756,43.689256 7.67085875,43.6791394 C7.73317342,43.6323505 7.79633591,43.5868262 7.85780277,43.5391942 C7.945552,43.4709076 8.02609478,43.3916615 8.13843075,43.3625765 C8.21049534,43.2158869 8.37285262,43.1353762 8.42499346,42.9714042 C8.43771074,42.9313596 8.48518859,42.8837276 8.52545998,42.8740326 C8.64076332,42.8457907 8.69290417,42.7724459 8.73020819,42.6240701 M6.45254331,45.4693429 C6.38387,45.4554327 6.34359861,45.4474238 6.27407748,45.4335136 C6.31901187,45.3766081 6.34232688,45.3310837 6.379207,45.3049494 C6.43558694,45.2644833 6.45890195,45.2176944 6.46186932,45.1498293 C6.4703475,44.9647812 6.48687997,44.7797331 6.49535815,44.594685 C6.49874943,44.5306137 6.4881517,44.4656993 6.48094524,44.363691 C6.39616337,44.4146951 6.33893561,44.4433586 6.28721867,44.4808741 C6.03372088,44.6646576 5.84168995,44.922629 5.56318152,45.0781706 C5.51019285,45.1076771 5.46483455,45.1544661 5.42286753,45.1991474 C5.28424917,45.3466801 5.15877201,45.5060153 4.97564317,45.6067591 C4.93664352,45.6282567 4.90654595,45.68179 4.89213303,45.7264713 C4.86966584,45.7985515 4.82854663,45.8381746 4.76029723,45.8668381 C4.677211,45.9014029 4.59709214,45.9443981 4.52121236,45.9920301 C4.44490868,46.039662 4.39276783,46.144621 4.41989803,46.1893023 C4.46737588,46.2681269 4.54240783,46.2242886 4.60387468,46.2154367 C5.05703377,46.1501008 5.50976894,46.0813927 5.96250412,46.0126846 C6.079927,45.9949807 6.19692598,45.9747477 6.31434887,45.9562007 C6.38980473,45.9443981 6.43940212,45.9098333 6.44152167,45.8259504 C6.44364121,45.7091889 6.44872813,45.5924273 6.45254331,45.4693429 M1.90950693,48.8634372 C2.31815553,48.8824057 2.72426068,48.897159 3.129518,48.9211857 C3.65982859,48.9527998 4.19395435,48.9258224 4.71833021,49.0413194 C4.98878436,49.100754 5.26178198,49.1509151 5.53393177,49.2031838 C5.5805618,49.2120358 5.62931138,49.2120358 5.68102831,49.216251 C5.64287647,49.100754 5.60133336,49.0016964 5.57801835,48.898845 C5.54156214,48.7386667 5.60684418,48.541816 5.71324542,48.4895473 C5.86161369,48.416624 5.98793868,48.4853321 6.10493765,48.5721656 C6.16258932,48.6147393 6.21515408,48.6636358 6.28128394,48.7192767 C6.28976212,48.6826043 6.29824031,48.6619497 6.29866422,48.6412952 C6.30375113,48.4162025 6.30968586,48.1911098 6.31010977,47.9660171 C6.31010977,47.9150129 6.28764258,47.8640088 6.27195793,47.7961438 C6.35122898,47.6658935 6.40379374,47.039512 6.33639215,46.8582576 C6.30629459,46.8654234 6.26941448,46.8645804 6.24482774,46.8810197 C6.09137255,46.9859787 5.94046083,47.0947313 5.78870129,47.2017979 C5.75394072,47.2262462 5.72002797,47.2599679 5.6577133,47.213179 C5.70052814,47.1727129 5.73571262,47.1389911 5.771321,47.1061124 C5.84974423,47.0331891 5.93071091,46.9623735 6.00574287,46.8864995 C6.02905788,46.8628943 6.03795998,46.8249573 6.05788372,46.7853343 C5.93325437,46.7545632 5.85779851,46.8207421 5.77259273,46.8595221 C5.65559375,46.9130554 5.53732305,46.9653241 5.41608498,47.0083194 C5.33723784,47.0361398 5.25033643,47.0407765 5.17148929,47.0673324 C5.02736011,47.1158074 4.88747003,47.1748205 4.74418868,47.2258247 C4.65516771,47.2578603 4.59285304,47.3042277 4.54961429,47.3969625 C4.50637554,47.4909619 4.43515877,47.5769524 4.36012681,47.6498757 C4.28467095,47.7232205 4.22405192,47.7974083 4.19861736,47.9006812 C4.18547617,47.954636 4.15834597,48.0052186 4.13460705,48.0562228 C4.07568365,48.1826793 4.07525974,48.1822578 4.17063934,48.2876383 C4.27746449,48.4060859 4.25414948,48.4950271 4.10027039,48.5266412 C3.95063039,48.5578338 3.79929476,48.5835467 3.64753522,48.6008291 C3.32705976,48.6370799 3.01294294,48.5928201 2.71493467,48.4756371 C2.57504459,48.4204177 2.43981751,48.3318981 2.37835066,48.1814148 C2.25160176,47.8707531 2.2579604,47.5613561 2.44660006,47.2785149 C2.54537094,47.1301392 2.6797502,47.0049472 2.79886872,46.8704817 C2.84846611,46.8144193 2.88958532,46.7570923 2.8616073,46.6580347 C2.80904254,46.6660436 2.75351042,46.6618284 2.71239121,46.6837475 C2.53350147,46.7806975 2.31857944,46.8312802 2.2215042,47.0416196 C2.2126021,47.0605881 2.19267837,47.0766059 2.17445026,47.08883 C2.01082126,47.1984257 1.85863781,47.3265684 1.66151996,47.3792586 C1.6225203,47.3897967 1.57885764,47.4209893 1.55850999,47.454711 C1.50933651,47.5364863 1.45295657,47.6220552 1.43472847,47.7126824 C1.37665289,48.0043756 1.33426195,48.2985979 1.2863602,48.5890265 C1.34485969,48.6168469 1.40971782,48.6273849 1.43939147,48.6653219 C1.52968416,48.7808189 1.62930285,48.7576352 1.74291056,48.7150615 C1.79547532,48.69525 1.85609435,48.69525 1.92434375,48.6842904 C1.91883293,48.7529985 1.91501775,48.801052 1.90950693,48.8634372 M7.01634273,45.8061389 C7.01719055,45.6742026 7.03584256,45.5675575 6.9603867,45.4748227 C6.94300642,45.4533251 6.95953888,45.3993703 6.96844098,45.3622764 C6.98031044,45.3146444 7.00023418,45.2686985 7.01591882,45.2231741 C6.94766942,45.1485648 6.86797446,45.1308608 6.79209469,45.1591028 C6.7471603,45.1755422 6.69035645,45.2299185 6.68526954,45.2724922 C6.66195452,45.4727151 6.65474807,45.6754671 6.6428786,45.8769546 C6.64245469,45.8858066 6.65474807,45.89508 6.66704144,45.9123624 C6.87094183,45.9203713 7.0782335,45.9009813 7.28213389,45.8533494 C7.33427474,45.8407037 7.38387213,45.8048743 7.4279587,45.7707311 C7.74970589,45.5224547 8.06933353,45.2708061 8.39065681,45.0221082 C8.51147097,44.9285303 8.63694813,44.8421183 8.7581862,44.7498051 C8.82516388,44.6988009 8.88620682,44.6406309 8.95191277,44.5879406 C9.00278189,44.5474745 9.05661838,44.5108021 9.10918314,44.4728652 C9.11935696,44.4838247 9.12953079,44.4952058 9.1392807,44.5061654 C9.09180285,44.5550619 9.04983583,44.6107028 8.99599934,44.6515905 C8.82092479,44.7847914 8.63906768,44.9091403 8.46484094,45.0440273 C8.35335279,45.1300178 8.24313636,45.220645 8.14648503,45.3222318 C8.00235585,45.4744012 7.84593331,45.6101312 7.67170657,45.7260498 C7.64033728,45.7471259 7.61447881,45.7766324 7.56742487,45.8192061 C7.61320708,45.8276365 7.636946,45.8377531 7.6594132,45.8356454 C8.04262724,45.79813 8.4266891,45.7644082 8.80863142,45.7184624 C8.95276059,45.7007584 9.09349849,45.653548 9.23550812,45.6198262 C9.25204058,45.6160325 9.27281214,45.6021223 9.28340988,45.6080236 C9.48179945,45.7138256 9.68569984,45.6248845 9.88154595,45.6097097 C10.6378002,45.5511182 11.3919349,45.4659707 12.1473414,45.3938905 C12.3665025,45.3728144 12.5882071,45.3390927 12.8065204,45.3521598 C13.149887,45.3728144 13.4902862,45.4364642 13.8332288,45.4672353 C14.1600629,45.4963203 14.393213,45.6615569 14.5708311,45.9216359 C14.599233,45.9633666 14.6267871,46.0072049 14.6450152,46.0539938 C14.7001234,46.1943606 14.6496782,46.280351 14.4983426,46.3094361 C14.4538321,46.3178665 14.4063542,46.3170234 14.3648111,46.3326198 C14.136324,46.4181887 13.9595538,46.318288 13.7891422,46.182558 C13.6111003,46.0405051 13.4890144,45.8643089 13.4478952,45.6257275 C13.1104634,45.5764095 12.7798141,45.5093875 12.4521322,45.6219338 C11.7675186,45.8571431 11.0862963,46.1024688 10.4033783,46.3431578 C10.2982488,46.3802517 10.1922715,46.4148165 10.0867181,46.4502244 C10.0820551,46.4384218 10.0773921,46.4266191 10.0727291,46.414395 C10.4313564,46.2693915 10.7904076,46.1239664 11.1668391,45.971797 C11.0888397,45.8820129 11.0087209,45.8980307 10.9358085,45.9089903 C10.8132987,45.9271157 10.6920606,45.9557792 10.5699747,45.9772768 C10.545388,45.981492 10.5182578,45.9734831 10.484345,45.9705325 C10.5025731,45.8048743 10.6725608,45.8461835 10.7637013,45.7526056 C10.6399198,45.7580854 10.5394532,45.7576639 10.4402585,45.7677804 C9.956154,45.8162554 9.47162562,45.8672596 8.98752116,45.9186853 C8.91036966,45.9271157 8.83025079,45.9359677 8.77471867,46.0109986 C8.80184887,46.0885586 8.86416354,46.0986751 8.9260543,46.0877155 C9.04220546,46.0662179 9.15623707,46.0320747 9.27238823,46.0101555 C9.38811548,45.9886579 9.50511446,45.9739046 9.62211344,45.9604159 C9.63991763,45.9587298 9.66026528,45.9789629 9.67637383,45.9873933 C9.68230856,46.067061 9.62592862,46.076756 9.57760296,46.0856079 C9.31689871,46.1319753 9.05534665,46.1753921 8.79464241,46.2209165 C8.75564275,46.2276608 8.71791482,46.2398849 8.67933907,46.2491584 C8.38726553,46.3195526 8.10706146,46.42409 7.83236821,46.5433807 C7.75521671,46.5766809 7.68739121,46.6297927 7.6140549,46.6715234 C7.39870896,46.7941862 7.1829391,46.9168491 6.96589752,47.0369828 C6.92477831,47.0601665 6.87772438,47.0723907 6.79760551,47.1031618 C6.86119191,46.9560506 6.92986523,46.8734323 7.04092947,46.819056 C7.17785219,46.7516125 7.30926408,46.673631 7.4415238,46.597757 C7.46314317,46.5855329 7.47798,46.5606631 7.51189275,46.5244122 C7.4597519,46.5159818 7.42287179,46.4974348 7.4008285,46.5088159 C7.28128607,46.5695151 7.14605899,46.6184116 7.05279893,46.7086173 C6.95784324,46.8013521 6.87009401,46.827908 6.75055158,46.7984015 C6.70264982,46.7865988 6.65347634,46.779433 6.58607475,46.7663658 C6.56869447,47.0508931 6.55216201,47.3227747 6.53435781,47.61784 C6.76581231,47.5621991 6.97564744,47.512038 7.18548256,47.4622984 C7.18929774,47.473258 7.19268902,47.4842176 7.1965042,47.4955987 C7.01295146,47.5773739 6.83236608,47.6667365 6.64499815,47.7383953 C6.54368382,47.7771753 6.5063798,47.8298655 6.50510807,47.9365106 C6.50086898,48.2800509 6.48730388,48.6231697 6.47585832,48.965867 C6.47373878,49.0278307 6.46822796,49.090216 6.4567824,49.1504936 C6.42244575,49.3296404 6.32240314,49.4227968 6.14139386,49.4586261 C6.00616678,49.4856035 5.87475488,49.4856035 5.73867998,49.4527248 C5.38725914,49.3667343 5.03371875,49.2874882 4.68060227,49.2073991 C4.28636659,49.1184579 3.88365272,49.109606 3.48263448,49.0935882 C2.94554135,49.0725121 2.40802431,49.0573373 1.87093118,49.0375257 C1.78826886,49.0341536 1.72086727,49.0493284 1.65516132,49.1079199 C1.37665289,49.3557748 1.03540587,49.4683211 0.676354661,49.5382938 C0.637778911,49.5454596 0.595811886,49.5576838 0.558931774,49.5505179 C0.351216198,49.5100518 0.245238863,49.6293425 0.162152633,49.7895208 C0.154522265,49.8038525 0.141804984,49.8160767 0.130783342,49.8287223 C0.127392067,49.832516 0.120609518,49.8333591 0.115522605,49.8354667 C-0.022671839,49.7756106 -0.0375086658,49.6946784 0.0744033996,49.5901409 C0.20242402,49.4708503 0.333835915,49.3549317 0.462280445,49.2360626 C0.495345373,49.205713 0.526714664,49.1719912 0.551725315,49.1348973 C0.589453246,49.0796779 0.590724974,49.0210864 0.546638403,48.9519568 C0.505095288,48.9742975 0.466095629,48.9932659 0.429639426,49.0160281 C0.291444981,49.1015971 0.218108665,49.1053908 0.139685438,49.0278307 C0.0663491222,48.9557505 0.0447297459,48.7922 0.102381416,48.6965145 C0.127815976,48.6539408 0.165967817,48.6176899 0.203271839,48.5839682 C0.291444981,48.5055651 0.380465942,48.427162 0.473725997,48.3546603 C0.512301747,48.3251537 0.562746958,48.310822 0.608105257,48.2901674 C0.684832847,48.2543381 0.767495169,48.2273607 0.838288028,48.1818363 C0.949352275,48.1105991 1.05872088,48.0764558 1.1956436,48.1599172 C1.21048043,48.060438 1.22107816,47.9778197 1.23549108,47.8956229 C1.27194728,47.6861266 1.35715306,47.4985493 1.49577141,47.3354203 C1.52798852,47.2979049 1.55087963,47.2654477 1.54367317,47.2030625 C1.51145606,46.9101048 1.79632313,46.7060882 2.06592947,46.8215852 C2.08670103,46.8300156 2.10704868,46.8401321 2.13333106,46.8527778 C2.29187315,46.760886 2.44871961,46.6614068 2.61362034,46.5771025 C2.71281512,46.5265198 2.82260764,46.491955 2.93112843,46.4645561 C3.05321432,46.433785 3.1702133,46.4000633 3.27279936,46.3220817 C3.31688593,46.2887815 3.37411369,46.2731852 3.42286327,46.2449432 C3.52502542,46.1863517 3.63269839,46.1336614 3.72553453,46.0620027 C3.95783685,45.8832774 4.18123707,45.6935926 4.41184375,45.5127597 C4.63736352,45.3357205 4.87008975,45.1679548 5.09391388,44.9892295 C5.26517325,44.8530779 5.42456316,44.7017516 5.59497472,44.5647569 C5.7530929,44.4374573 5.92053709,44.3223819 6.08077482,44.1976114 C6.19650207,44.1074057 6.30714241,44.0104557 6.41947838,43.9156132 C6.50553198,43.8431115 6.55597719,43.7520627 6.56021628,43.6378303 C6.56445538,43.5214903 6.56911838,43.4055717 6.5746292,43.2601467 C6.47755396,43.3170521 6.4067611,43.3579398 6.33766388,43.3979843 C6.21515408,43.2567745 6.27238184,43.102076 6.38938082,42.9802561 C6.43261957,42.9355748 6.47713005,42.8921581 6.5246079,42.8521135 C6.69459554,42.7075315 6.81795316,42.7294506 6.93664778,42.9258798 C6.88577866,42.9941664 6.83151826,43.0611884 6.78531214,43.1336901 C6.77598614,43.1484434 6.79802942,43.1834297 6.80862716,43.2201021 C6.94173469,43.169941 7.0693314,43.1994475 7.19480856,43.1960754 C7.33978556,43.1918601 7.5004472,43.1438066 7.6233809,43.0666681 C7.92350872,42.8769833 8.20752797,42.6624286 8.49409069,42.4525107 C8.7581862,42.2594537 9.0121079,42.0516434 9.28044251,41.8649092 C9.51698392,41.7009372 9.75903615,41.5475032 9.97862119,41.3590829 C10.1142722,41.2427429 10.2791729,41.1597031 10.4254216,41.0543226 C10.5530183,40.9624308 10.6721369,40.8587365 10.7971901,40.7626295 C10.8730699,40.7044594 10.9514931,40.6488186 11.0303403,40.5948638 C11.1837954,40.4899048 11.3410658,40.3900041 11.4928253,40.2820945 C11.8043987,40.061217 12.1130047,39.8361243 12.4228824,39.6131393 C12.6149134,39.4753016 12.8056726,39.3357779 13.0006709,39.2017339 C13.3071573,38.9905514 13.6191546,38.7865348 13.9243693,38.5732448 C14.2707032,38.3312912 14.6098307,38.0796426 14.9561646,37.8381106 C15.1036851,37.7356808 15.263075,37.6501118 15.4131389,37.5518972 C15.5305618,37.4756018 15.6412021,37.3891898 15.7569294,37.3107867 C16.0278075,37.1270031 16.3020768,36.9482779 16.5708353,36.7619652 C16.7785509,36.6186477 16.97906,36.4656353 17.18508,36.3197887 C17.2668945,36.2611972 17.3554915,36.2118791 17.4402734,36.1570813 C17.6043263,36.0500147 17.7696509,35.9446342 17.9311604,35.8341955 C18.0095836,35.7806622 18.0812243,35.7170124 18.1558323,35.6575778 C18.1689735,35.6470398 18.1795713,35.632708 18.1939842,35.6242776 C18.3643957,35.52522 18.5356551,35.4278484 18.7060667,35.3283692 C18.793392,35.2773651 18.8811412,35.2255179 18.9654992,35.1694555 C19.0685091,35.1007474 19.1634648,35.0185506 19.2711378,34.9578515 C19.4139953,34.8769193 19.5471028,34.7879782 19.6759712,34.6842838 C19.8099266,34.5763742 19.9752512,34.5068231 20.1274347,34.4220972 C20.2885202,34.332313 20.3025092,34.274143 20.2185752,34.1097494 C20.1053914,33.8880289 19.9616861,33.8285943 19.7510032,33.8699035 C19.5916133,33.9006746 19.433919,33.9402976 19.2668987,33.9778131 C19.260964,33.8538856 19.3080179,33.7535634 19.415267,33.6620932 C19.9023388,33.2456296 20.4440949,32.906726 20.9892424,32.5770958 C21.5538896,32.2356631 22.1215042,31.8976025 22.7179446,31.6105461 C23.0329093,31.4583767 23.3372762,31.2834451 23.6399475,31.1076705 C23.9150646,30.9483352 24.1910296,30.9609809 24.4674185,31.0815362 C24.6679276,31.1687912 24.7658507,31.3766015 24.7264271,31.6198196 C24.6984491,31.791379 24.6492756,31.9591447 24.6106998,32.1290181 C24.6030695,32.1606322 24.5992543,32.1930894 24.5933196,32.2276542 C24.7103185,32.3077433 24.8120568,32.2676988 24.9167624,32.2158516 C24.9968812,32.17665 25.0795436,32.1357624 25.1655972,32.1155294 C25.273694,32.0906596 25.3084546,32.1125787 25.3461825,32.2183807 C25.3898452,32.3402005 25.4182471,32.4670786 25.4572468,32.5905845 C25.6234192,33.1107426 25.7908634,33.6300575 25.9574598,34.1502155 C25.9947638,34.2661341 26.054959,34.3626626 26.1626319,34.4296846 C26.2872613,34.5076661 26.4161297,34.582697 26.5250744,34.679647 C26.6463125,34.7871351 26.7590724,34.9093765 26.8548759,35.0400483 C26.9913747,35.2276255 27.1405908,35.3966558 27.3627193,35.5167895 C27.3249913,35.5433454 27.3016763,35.564 27.2745461,35.5779102 C26.938386,35.7511557 26.6034976,35.9273518 26.2639463,36.0942745 C26.0816652,36.1836372 25.8853952,36.2456009 25.7060816,36.3400218 C25.4674206,36.4660568 25.2478356,36.487976 25.0057833,36.3396003 C24.8044264,36.2160943 24.5814501,36.1267317 24.3665281,36.0255664 C24.2902244,35.9901586 24.2105294,35.9610736 24.1295627,35.9366253 C24.0939544,35.9256658 24.0473243,35.921029 24.0138355,35.9345177 C23.8735215,35.9905801 23.7365988,36.0554945 23.5979804,36.1161936 C23.5611003,36.132633 23.5216767,36.1448571 23.4546991,36.1693054 C23.5000574,36.0184006 23.6043391,35.9699256 23.688697,35.9045897 C23.6971752,35.8978453 23.7094686,35.8957377 23.7196424,35.891101 C23.9184559,35.8063751 23.9239667,35.7831914 23.8073916,35.6023585 C23.7700876,35.5441884 23.7272728,35.5222693 23.6666537,35.5521974 C23.6009478,35.584233 23.534394,35.6179548 23.4758945,35.66095 C23.3716128,35.7372455 23.2770811,35.8261866 23.1711037,35.8991099 C23.0935283,35.9522216 23.006203,35.9926877 22.9193016,36.0293601 C22.8480848,36.0597097 22.7917049,36.0959606 22.7637268,36.1726776 C22.74889,36.2135652 22.7264228,36.258668 22.6933579,36.2843809 C22.533968,36.4104159 22.3694912,36.5297066 22.2084056,36.6536341 C22.1626234,36.6881989 22.122352,36.729508 22.0731785,36.7733463 C22.2084056,36.8462696 22.304633,36.8285656 22.4118821,36.7429967 C22.5038704,36.6700734 22.6022174,36.604316 22.7009883,36.5398231 C22.7688138,36.4955634 22.8374871,36.4947203 22.9146386,36.576074 C22.8646173,36.6178047 22.8251937,36.6683873 22.7739007,36.6881989 C22.683608,36.7240282 22.6136629,36.7678665 22.589924,36.8677672 C22.5839893,36.89348 22.5649134,36.9208789 22.5437179,36.9368968 C22.4059474,37.0426988 22.2681768,37.1501868 22.1244716,37.2479799 C22.0736024,37.2821232 22.0464722,37.315845 22.0286681,37.374858 C21.9811902,37.5299781 21.9265059,37.6838336 21.7289642,37.7137616 C21.7031057,37.7175553 21.6776711,37.7533847 21.6602908,37.779519 C21.6293455,37.8267295 21.6000957,37.875626 21.5784763,37.9274732 C21.4941184,38.1302253 21.3071744,38.2174803 21.135915,38.3241253 C21.079535,38.3586901 21.0269703,38.3995777 20.9735577,38.4383578 C20.9006453,38.4914695 20.8298524,38.5466889 20.7565161,38.5981146 C20.5526157,38.7401674 20.3542262,38.8914938 20.1418476,39.0196364 C19.8811433,39.1772856 19.6106892,39.3180739 19.3410828,39.4601268 C19.0061945,39.637166 18.6674909,39.8074609 18.3309069,39.9815494 C18.0697787,40.1164364 17.8099223,40.2538525 17.5483703,40.3887396 C17.2266231,40.5543977 16.9031802,40.7166836 16.5827048,40.8840278 C16.015938,41.1803577 15.4517147,41.4813243 14.8853718,41.7772327 C14.1481934,42.1629252 13.4139825,42.553676 12.6704455,42.9263013 C12.2355145,43.1442282 11.7853228,43.3309624 11.3423375,43.5320283 C11.1676869,43.6112744 11.0099926,43.5956781 10.8840915,43.4426657 C10.7408102,43.2685771 10.6034636,43.0902734 10.4627257,42.9144987 C10.4038023,42.8398894 10.4398346,42.7804548 10.4864646,42.717648 C10.5932897,42.573909 10.5945615,42.564214 10.5915941,42.4065649 C10.5118991,42.3829596 10.4491606,42.4263764 10.3919328,42.4676855 C10.1765869,42.6228056 9.96717564,42.785513 9.75055797,42.9385255 C9.65560227,43.0051259 9.54284239,43.0468566 9.44873452,43.1143001 C9.30206189,43.2192591 9.16683481,43.3393928 9.02185781,43.4468809 C8.83237034,43.5876692 8.63779595,43.7221347 8.44576502,43.8591293 C8.37709171,43.9080258 8.30587494,43.9535502 8.23932117,44.0053974 C8.09349636,44.1196298 7.95275846,44.2410281 7.8048141,44.3527314 C7.65517411,44.4656993 7.56021841,44.6187117 7.48052346,44.7797331 C7.45127371,44.8383247 7.46738227,44.9200999 7.46568663,44.9913371 C7.46399099,45.0516147 7.47670827,45.1144215 7.4644149,45.17217 C7.43982816,45.2872455 7.41736097,45.4069577 7.36522012,45.509809 C7.31816618,45.6017008 7.2371995,45.6788393 7.16174363,45.7526056 C7.13164607,45.7816906 7.07653786,45.7854843 7.01634273,45.8061389" id="Fill-3"></path>
                <path d="M27.7093142,36.7588827 C27.7071947,36.7466586 27.7046512,36.7340129 27.7025317,36.7217888 C27.6779449,36.7276901 27.6533582,36.7331699 27.6287714,36.7390712 C27.6300432,36.7475016 27.6317388,36.7563536 27.6330105,36.7652055 C27.6584451,36.7630979 27.6838797,36.7609903 27.7093142,36.7588827 M29.2192793,35.8336421 C29.2150402,35.8475524 29.2108011,35.8618841 29.206562,35.8757943 L29.3303435,35.90783 C29.3333109,35.8972919 29.3367022,35.8871754 29.3396695,35.8766374 C29.2993982,35.8623056 29.2595507,35.8479739 29.2192793,35.8336421 M30.3956277,36.5818435 C30.6427668,36.4515932 30.8661671,36.3339886 31.0891434,36.2159625 C31.2035989,36.1556849 31.3167827,36.0937211 31.4312382,36.033865 C31.4812595,36.0077307 31.5359438,35.9900268 31.5842695,35.9609417 C31.91831,35.7611404 32.2502311,35.5575453 32.5846955,35.3581654 C32.7347594,35.2688028 32.8894863,35.1874491 33.0403981,35.0989295 C33.0980497,35.0647862 33.1544297,35.0264277 33.2036032,34.9813249 C33.3299281,34.8649848 33.4681226,34.7718285 33.6364146,34.7258826 C33.7356094,34.6989052 33.8203913,34.6512732 33.8890646,34.5678119 C33.9505314,34.4932025 34.0331937,34.4409338 34.1408667,34.4531579 C34.1612144,34.4556871 34.1947032,34.4531579 34.2023336,34.4409338 C34.2671917,34.3330242 34.3536692,34.3814992 34.4236142,34.4190147 C34.6122539,34.5206014 34.8089478,34.6154439 34.9768159,34.7452726 C35.2036074,34.9206257 35.2260746,35.2418254 34.9840224,35.4260305 C34.7606222,35.5963253 34.5151787,35.7387997 34.2743982,35.8854893 C33.835652,36.1531557 33.3943624,36.41745 32.951801,36.6787935 C32.5134788,36.937608 32.0548089,37.1563778 31.5889325,37.360816 C31.2375117,37.515093 30.8801561,37.6592535 30.5372134,37.8308129 C30.3027916,37.9484175 30.1018585,37.8910905 29.8954147,37.7840239 C29.8602302,37.76632 29.8305566,37.7389211 29.7979155,37.717002 C29.6999925,37.6516661 29.5974064,37.5930745 29.505842,37.5205728 C29.4274188,37.458609 29.3621367,37.381049 29.2964308,37.3157131 C29.3146589,37.1820907 29.3600172,37.0864052 29.4727771,37.0202263 C29.3244088,37.0400378 29.1756166,37.0560556 29.0280962,37.0796609 C28.6631102,37.1386739 28.2943091,37.1424676 27.9318666,37.0923065 C27.6652277,37.0556341 27.4053712,36.9603702 27.2027426,36.7614118 C27.1107542,36.6707846 27.0030813,36.5932246 26.9229624,36.4937454 C26.7690833,36.302796 26.7957896,36.1063668 26.9818858,35.9436594 C27.1459387,35.8007634 27.3485674,35.7257325 27.5363592,35.6224597 C27.7169446,35.523402 27.906856,35.5276172 28.0959195,35.5023259 C28.612665,35.4344609 29.1200845,35.4686042 29.6198736,35.6262534 C29.9458599,35.7295262 30.1857926,35.9259554 30.3273783,36.2332449 C30.3591715,36.301953 30.3528129,36.3871004 30.3655301,36.4646604 C30.3697692,36.4912163 30.3786713,36.5169291 30.3956277,36.5818435" id="Fill-5"></path>
                <path d="M28.6387271,37.5362509 C28.4640765,37.63573 28.2906975,37.7373168 28.1147752,37.8338453 C27.5747147,38.1305968 27.0350781,38.4286127 26.4920502,38.7198844 C26.0884885,38.9361251 25.679416,39.1422493 25.2737348,39.3546963 C24.6722074,39.6695732 24.0719518,39.9865576 23.4700005,40.301013 C22.948592,40.5737376 22.4284553,40.8481484 21.9040794,41.1145502 C20.784111,41.6836048 19.6688055,42.2623543 18.5386632,42.8099113 C17.7090726,43.2116216 16.8625257,43.5791887 16.0159787,43.9454913 C15.2113988,44.2940899 14.3957972,44.6182402 13.5882499,44.9596729 C13.4326752,45.0254303 13.3008394,45.037233 13.162645,44.9255297 C13.0664175,44.8479696 12.9549294,44.7893781 12.8519194,44.719827 C12.7997786,44.6852622 12.7455182,44.6469037 12.7641702,44.5710297 C12.7828222,44.4955773 12.8497999,44.4972634 12.909995,44.479138 C13.0706566,44.4302414 13.2321661,44.3792373 13.3873169,44.3139014 C13.7149988,44.1764853 14.0388656,44.0302172 14.3635801,43.8856352 C14.4254709,43.8582362 14.4826986,43.8219853 14.5437416,43.7924788 C14.6806643,43.7271429 14.8197066,43.6651792 14.9562054,43.5985787 C15.1745187,43.4919337 15.3902885,43.3810734 15.6090258,43.2752715 C15.8065675,43.1800075 16.0062288,43.0885373 16.2058901,42.9974885 C16.4420076,42.8900004 16.6793968,42.7850415 16.9155143,42.6779749 C17.1668926,42.5637425 17.4186947,42.4499316 17.6688012,42.332327 C17.8116587,42.265305 17.9498531,42.1881665 18.0922867,42.1198799 C18.4894897,41.9301951 18.8820298,41.7295507 19.2872871,41.5575697 C19.6976313,41.3834812 20.0961061,41.186209 20.5005156,40.9998963 C20.7663068,40.8772334 21.0210763,40.7313868 21.2847479,40.6040872 C21.4725397,40.5130385 21.6743206,40.4498102 21.8553299,40.348645 C22.149099,40.1838299 22.4640637,40.0620101 22.7404526,39.8601011 C23.0219284,39.6548199 23.3343495,39.4916909 23.6306622,39.3057998 C23.7735196,39.2160156 23.9087467,39.1140073 24.0511802,39.0229586 C24.1406251,38.9660531 24.2317656,38.9057755 24.3305365,38.8707892 C24.6539793,38.7561352 24.9808134,38.6494902 25.3076475,38.5449528 C25.5653844,38.462756 25.8260886,38.3915188 26.0829777,38.3076359 C26.2648348,38.2482014 26.4407572,38.1714844 26.6217665,38.1099422 C26.7718304,38.0593596 26.9265573,38.0239517 27.0770451,37.9754767 C27.2377067,37.923208 27.3945532,37.8591367 27.5556387,37.8081325 C27.876962,37.7057027 28.1999809,37.6079096 28.5225759,37.509695 C28.5535213,37.5004215 28.5887058,37.5029507 28.6217707,37.5 C28.6272815,37.5122241 28.6332163,37.5240267 28.6387271,37.5362509" id="Fill-7"></path>
                <path d="M18.5009683,40.8803088 C18.5009683,40.893376 18.5013922,40.9068647 18.5013922,40.9199319 C18.6272933,40.9199319 18.7531944,40.9195104 18.8795193,40.9195104 C18.8790954,40.9047571 18.8790954,40.8900038 18.8790954,40.8756721 C18.7527705,40.8769367 18.6268694,40.8786228 18.5009683,40.8803088 M14.972347,42.0306421 C14.9808252,42.1330719 14.9117279,42.1676367 14.8578914,42.2127395 C14.7591206,42.2957794 14.7633597,42.3514202 14.8845977,42.385142 C15.000325,42.4175992 15.0617918,42.4884149 15.1156283,42.5883156 C15.2143992,42.7708345 15.4081258,42.7780004 15.5395377,42.616979 C15.7892203,42.3109541 16.0418702,42.0070369 16.2924007,41.701855 C16.3458132,41.6365191 16.3835412,41.5728693 16.3809977,41.4759193 C16.3780303,41.3574716 16.4581492,41.2634722 16.5696374,41.2166833 C16.6938428,41.1648361 16.7900702,41.0843254 16.8786673,40.9865324 C16.9371668,40.9220395 17.0024488,40.8706138 16.9562427,40.7690271 C16.9486123,40.7517447 16.9825251,40.7154938 16.9952423,40.6918886 C17.2873159,40.8183451 17.5501397,40.7454218 17.8083004,40.6231805 C17.889691,40.5844005 17.9710816,40.5451989 18.0516244,40.5043113 C18.1821885,40.4385539 18.3114808,40.3702674 18.4420449,40.3049315 C18.5179247,40.2669945 18.5967718,40.2345373 18.6726516,40.1970219 C18.7879549,40.1396949 18.9011387,40.0773096 19.0172899,40.0216687 C19.1444627,39.9605481 19.2724833,39.900692 19.4034713,39.8484232 C19.4322971,39.8370422 19.4954596,39.8475802 19.5069052,39.8678133 C19.5247094,39.8998489 19.5242855,39.9538037 19.5102964,39.9900546 C19.484438,40.055812 19.4191559,40.0747805 19.3542978,40.0676146 C19.2572226,40.0566551 19.1834623,40.0992288 19.1020717,40.1430671 C18.8634108,40.2716312 18.6188151,40.3892358 18.3750672,40.5089481 C18.2847745,40.5536294 18.1974492,40.5999968 18.1126674,40.7112786 C18.4445884,40.7239242 18.745564,40.7041127 19.0465396,40.7066418 C19.3420044,40.7087494 19.6378932,40.6724985 19.9626077,40.6956823 C19.8053373,40.8482732 19.6336541,40.8470086 19.451797,40.8604973 C19.4640903,40.959555 19.4085582,41.0101376 19.3242002,41.0447024 C19.1046152,41.1353296 18.8871497,41.2314366 18.6684125,41.3237499 C18.637891,41.3368171 18.6022826,41.3486197 18.5704894,41.345669 C18.4094039,41.3304942 18.2487423,41.3073105 18.0876567,41.2934003 C17.9863424,41.2845483 17.8841802,41.2891851 17.782442,41.2841268 C17.6807037,41.2794901 17.5781177,41.278647 17.4789229,41.2601001 C17.3788803,41.2415531 17.3046962,41.2710596 17.2292403,41.3313373 C17.0770568,41.4531571 17.0113509,41.6301963 16.9206343,41.7916392 C16.8324611,41.9480238 16.753614,42.1103097 16.6573866,42.2616361 C16.6171152,42.3252859 16.5492897,42.3788192 16.4827359,42.4171777 C16.2080427,42.5739838 15.9371646,42.7396419 15.6277108,42.8239463 C15.6065153,42.8294261 15.5823525,42.8395426 15.5687874,42.8551389 C15.4416146,43.0039361 15.2546706,43.0233261 15.084259,43.0764379 C14.9706513,43.1118457 14.8621305,43.0992001 14.7620879,43.0245907 C14.5624266,42.876215 14.3593741,42.7320545 14.1580171,42.5862079 C14.139789,42.5727192 14.1215609,42.5592305 14.1058763,42.5432127 C14.0414421,42.4761907 14.0482246,42.4213929 14.1300391,42.3847205 C14.2432229,42.3337163 14.355135,42.2759678 14.4738296,42.2426676 C14.6234696,42.2005154 14.7599684,42.1398163 14.8867173,42.0525612 C14.906641,42.0390725 14.9367386,42.0390725 14.972347,42.0306421" id="Fill-9"></path>
                <path d="M32.5296553,37.8221749 C32.6296979,37.8188027 32.7204145,37.8200672 32.8098594,37.8120583 C33.316855,37.7652694 33.8234266,37.7142653 34.3308461,37.6700055 C34.4101171,37.6628396 34.4469972,37.6198443 34.4923555,37.5667326 C34.5784091,37.4655673 34.7149079,37.4828497 34.7721357,37.5953961 C34.8302113,37.7096285 34.7543315,37.8394573 34.6246153,37.8251255 C34.4605623,37.8065785 34.3138897,37.8360851 34.1659454,37.9056362 C34.0913373,37.9406225 34.0001968,37.9380934 33.9175345,37.9570619 C33.7742531,37.989519 33.6326674,38.0270345 33.4893861,38.0586486 C33.4410604,38.0691867 33.3863761,38.0814108 33.3410178,38.0691867 C33.1608563,38.0207117 32.9925643,38.0594917 32.8268158,38.1222984 C32.7356752,38.1568632 32.6496217,38.1876343 32.5478834,38.1585493 C32.5037968,38.1459037 32.4482647,38.1661367 32.3990912,38.1779393 C32.2515708,38.2129257 32.1061699,38.2563424 31.9573777,38.286692 C31.8823457,38.3018668 31.8022269,38.2921718 31.7246515,38.2989161 C31.6072286,38.3090326 31.4889579,38.3170416 31.3736545,38.3389607 C31.2909922,38.354557 31.2104494,38.3865927 31.1324501,38.4194714 C30.9722124,38.4877579 30.8374092,38.4439196 30.7416057,38.3140909 C30.6801389,38.2306296 30.6157046,38.2184054 30.5245641,38.2276789 C30.226132,38.257607 29.9272759,38.2820552 29.6284198,38.3094542 C29.5440618,38.3170416 29.4715733,38.3326379 29.4067152,38.4072472 C29.3634765,38.4569868 29.2668251,38.4607805 29.1947605,38.4864934 C29.155337,38.5008251 29.0998048,38.5071479 29.0811528,38.5362329 C28.9425345,38.7474154 28.8115465,38.9632346 28.6780151,39.1773677 C28.776362,39.2730532 28.8721655,39.1537625 28.9798385,39.2068743 C28.9569474,39.3371245 28.9175238,39.4732761 28.8030683,39.5440918 C28.5796681,39.6819294 28.4580061,39.8969056 28.322779,40.1030298 C28.2613122,40.1966077 28.224856,40.3053603 28.1642369,40.3993597 C28.084542,40.5224441 27.953554,40.5860939 27.8191747,40.6244524 C27.7496536,40.6442639 27.6932737,40.6623894 27.6525784,40.721824 C27.5215904,40.9127734 27.3859394,41.1003506 27.2596144,41.2938292 C27.2019627,41.3823488 27.1430393,41.4721329 27.144735,41.588473 C27.1460067,41.6538089 27.1048875,41.7098713 27.0345185,41.7208308 C26.9543997,41.7334765 26.8933567,41.6934319 26.8484223,41.6276745 C26.8073031,41.5669754 26.8187487,41.5066977 26.8624114,41.4565366 C27.2528319,41.0067728 27.5508401,40.4963097 27.8539353,39.9883759 C27.9026849,39.9061791 27.9544018,39.8256684 28.0082383,39.7464223 C28.2969206,39.3219498 28.5860267,38.8974772 28.8768285,38.4746907 C28.9505888,38.3667811 28.9853493,38.2618222 28.9128608,38.1366302 C28.8908175,38.0986932 28.8781003,38.0282991 28.8988718,37.9979495 C28.9336324,37.9473669 28.9946753,37.891726 29.0510553,37.8832955 C29.1214242,37.8727575 29.1405001,37.9549543 29.1604239,38.0135458 C29.1655108,38.0295636 29.1659347,38.046846 29.1705977,38.0632854 C29.2015431,38.1745672 29.2117169,38.181733 29.3215094,38.1699304 C29.4622473,38.1551772 29.6029852,38.1416885 29.7432992,38.1265137 C30.1879801,38.0784602 30.632661,38.0308282 31.076918,37.979824 C31.1320262,37.9735012 31.184591,37.9473669 31.2384275,37.9309275 C31.3783175,37.8887753 31.516512,37.8373496 31.6589455,37.8078431 C31.8687806,37.7648479 32.082431,37.7408211 32.2935378,37.7024626 C32.405026,37.6822296 32.4965904,37.6877094 32.5296553,37.8221749" id="Fill-11"></path>
                <path d="M29.7319189,33.0440934 C29.806103,33.1094293 29.8540048,33.152003 29.9099608,33.2008995 C29.8879175,33.2274554 29.8739285,33.2615987 29.8540048,33.2653924 C29.6509522,33.3054369 29.4750298,33.4268353 29.2520535,33.4209339 C29.0519683,33.4150326 28.8497635,33.4727811 28.6496783,33.5086105 C28.6022005,33.5170409 28.539038,33.5385386 28.5182664,33.5743679 C28.4474736,33.6966093 28.3203008,33.7147347 28.2096604,33.7640528 C28.1943997,33.7707971 28.1748999,33.7825997 28.1617587,33.7783845 C27.9888037,33.7202145 27.8298377,33.8209582 27.6619696,33.8205367 C27.5220795,33.8205367 27.3821894,33.836133 27.2422993,33.8382406 C27.2007562,33.8390837 27.1592131,33.8184291 27.0833333,33.7986176 C27.140985,33.7337032 27.1715065,33.6780623 27.2185604,33.6510849 C27.3503962,33.5764755 27.4860472,33.5060814 27.6259373,33.4483329 C27.8294138,33.3648715 28.0367054,33.2902622 28.2448449,33.219025 C28.6238199,33.0891962 29.0040665,32.9627396 29.385585,32.8392337 C29.4487474,32.8185792 29.5225077,32.805512 29.586518,32.8164716 C29.7382775,32.8426059 29.9027543,32.767575 30.0490031,32.8708479 C30.0490031,32.9543092 29.9900797,32.9741207 29.9294606,32.9909816 C29.8726568,33.0069994 29.8158529,33.0217527 29.7319189,33.0440934" id="Fill-13"></path>
                <path d="M26.0519448,37.7228627 C25.9870867,37.8438395 25.8853484,37.9003234 25.7747081,37.9450048 C25.4745803,38.0668246 25.1604634,38.0954881 24.8412597,38.0697752 C24.6263377,38.0524928 24.4105678,38.0246724 24.2198086,37.9167628 C24.138418,37.8712384 24.0629622,37.8067456 24.0023431,37.7359299 C23.9366372,37.6592129 23.9480827,37.5694287 24.0129409,37.4884965 C24.0896685,37.3923896 24.1880154,37.3257891 24.3062861,37.2992332 C24.433035,37.2709912 24.5627513,37.2461215 24.6920436,37.2402202 C24.8887376,37.2309467 25.0616926,37.3249461 25.2397345,37.3923896 C25.3024731,37.4159948 25.363516,37.4438152 25.4254068,37.468685 C25.6276115,37.5508818 25.8293924,37.632657 26.0519448,37.7228627" id="Fill-15"></path>
                <path d="M21.7921853,39.8967757 C21.6785776,39.8369196 21.5636982,39.7800141 21.45221,39.7167858 C21.2457662,39.6000243 21.0410179,39.4811551 20.8371176,39.3605998 C20.7642051,39.3176046 20.6912927,39.2733448 20.6255868,39.2202331 C20.5615765,39.1683859 20.55437,39.1009424 20.6124456,39.0634269 C20.7569987,38.9706921 20.9083343,38.8884953 21.0571265,38.8020833 C21.0673003,38.8096707 21.0774741,38.8176796 21.087648,38.825267 C21.073659,38.8619394 21.0617895,38.8994549 21.0448331,38.9344412 C20.9905727,39.0474091 20.9909966,39.0722789 21.0884958,39.1485743 C21.1597126,39.2037937 21.204223,39.2699726 21.2190599,39.3572277 C21.2364401,39.4579714 21.2911245,39.5351099 21.3763302,39.5882217 C21.4861227,39.6565082 21.5997305,39.7197365 21.7107947,39.786337 C21.7476748,39.8082561 21.7824354,39.8339689 21.8176199,39.8579957 C21.8091417,39.8710629 21.8006635,39.8837085 21.7921853,39.8967757" id="Fill-17"></path>
                <path d="M39.8423334,35.334238 C39.7452582,35.3321303 39.6816718,35.3692243 39.6320744,35.4396184 C39.6074877,35.4750263 39.5752705,35.5150708 39.5371187,35.5302456 C39.4455543,35.5673396 39.3798483,35.6250881 39.3128707,35.6980113 C39.2361431,35.7810512 39.1314375,35.8430149 39.0292753,35.8961266 C38.9881561,35.9176243 38.9177872,35.9032925 38.8677659,35.8851671 C38.787647,35.8560821 38.7812884,35.7894816 38.8461465,35.729204 C38.8749723,35.7026481 38.9076133,35.6794644 38.9411022,35.6588098 C39.0746336,35.5761915 39.2068933,35.4914656 39.3433921,35.4147486 C39.4943039,35.3300227 39.6486069,35.2520412 39.8029099,35.1736381 C39.8266488,35.161414 39.8635289,35.1500329 39.8830287,35.1601494 C39.9186371,35.1778533 39.9606041,35.2073599 39.9720497,35.2410816 C39.9881582,35.2899782 39.9512781,35.3245429 39.8987134,35.3321303 C39.8766701,35.335081 39.853779,35.3338164 39.8423334,35.334238" id="Fill-19"></path>
                <path d="" id="Fill-21"></path>
                <path d="" id="Fill-23"></path>
                <path d="" id="Fill-27"></path>
                <path d="" id="Fill-29"></path>
                <path d="" id="Fill-35"></path>
                <path d="" id="Fill-37"></path>
                <path d="" id="Fill-39"></path>
                <path d="" id="Fill-41"></path>
                <path d="" id="Fill-43"></path>
                <path d="" id="Fill-45"></path>
                <path d="" id="Fill-47"></path>
                <path d="" id="Fill-49"></path>
                <path d="M6.90017959,5.39388541 C6.86965811,5.3858765 6.83956055,5.3782891 6.80903908,5.37028019 C6.76834378,5.43645912 6.71832248,5.49884436 6.68907274,5.56966004 C5.58860409,8.22061122 4.9353598,10.9756783 4.7446006,13.838655 C4.72976377,14.0565818 4.76155697,14.1885182 5.02438076,14.1961056 C5.29653056,14.203693 5.31348693,14.0447792 5.32832376,13.8428702 C5.37325815,13.2350357 5.41607299,12.6267796 5.48389849,12.0210526 C5.72128772,9.89868988 6.17656635,7.82142999 6.81158254,5.78210707 C6.8510061,5.65565051 6.87092984,5.52329263 6.90017959,5.39388541 M6.88449494,26.2693356 C6.90357086,26.2634343 6.92222287,26.2571115 6.94129879,26.2507887 C6.93621188,26.1795515 6.94384225,26.1045206 6.92476633,26.0370771 C6.75477868,25.4267134 6.54918265,24.8247801 6.41353167,24.2072505 C6.12230595,22.8807211 5.83447151,21.5520841 5.60810392,20.2137521 C5.46058347,19.3424664 5.43175764,18.4513691 5.32747594,17.5720744 C5.31518257,17.4671155 5.17783594,17.3195828 5.07355425,17.29387 C4.73315505,17.2108302 4.7356985,17.4540483 4.75095924,17.688836 C4.94087062,20.6019738 5.62421248,23.39835 6.76368078,26.0863951 C6.7916588,26.1525741 6.84379965,26.2086365 6.88449494,26.2693356 M21.9515046,11.3761241 C22.3245448,11.3394517 22.6755417,11.334815 22.7810951,10.9984405 C22.8824095,10.6772408 22.5661731,10.5284436 22.356338,10.3577272 C22.2855451,10.2999787 22.2033067,10.2519252 22.1193727,10.2152528 C21.6857134,10.0259895 21.2618041,9.80384745 20.8128841,9.66263762 C19.1223336,9.12983395 17.3804902,9.05016631 15.6246577,9.14332265 C14.3118105,9.21329528 13.0184631,9.39960796 11.807778,9.94168511 C11.4427921,10.1048141 11.082893,10.3105168 10.7747109,10.5617438 C10.4152358,10.8547015 10.5076481,11.2370219 10.9658941,11.2947704 C11.3486842,11.3428239 11.7628436,11.2644208 12.1452098,11.1704214 C12.6483902,11.0469155 13.1244404,10.8121278 13.6288925,10.6966308 C15.0744234,10.3657361 16.5453888,10.36405 18.017202,10.4521481 C19.1583659,10.5204347 20.2643454,10.7400476 21.3143688,11.2113091 C21.5309865,11.3086806 21.7806691,11.3335504 21.9515046,11.3761241 M26.6556265,16.0870528 C26.5801706,15.9639684 26.541171,15.9108566 26.5127691,15.8522651 C25.9773716,14.7542006 25.1130204,14.0388779 23.9489654,13.6708893 C23.8836833,13.6502347 23.8111948,13.6300017 23.7611735,13.5878495 C22.4250113,12.4539556 20.8306883,11.9409634 19.129964,11.7028036 C16.9103747,11.3921419 14.7124048,11.4861413 12.560641,12.1550966 C11.5330848,12.4746102 10.5937017,12.9648401 9.78106745,13.6797413 C9.70561159,13.7454987 9.60811244,13.7922876 9.51400457,13.8293815 C7.92519237,14.4532339 6.38555365,15.9947395 6.61404078,18.382661 C6.72298548,19.5228777 6.94680961,20.6099827 7.50806558,21.6182631 C7.58436926,21.7552577 7.60641255,21.9230234 7.64753175,22.0781434 C8.32451497,24.6283509 9.38047313,27.0112142 10.858645,29.2027065 C11.0273609,29.453512 11.0197305,29.6292866 10.783613,29.771761 C10.321128,30.0516516 9.84762122,30.3129951 9.37157103,30.5692805 C9.13375789,30.6970016 9.02142192,30.5203839 8.90781422,30.3475599 C7.39445788,28.0443643 6.28169586,25.5628649 5.55087616,22.9110707 C5.06338042,21.1415218 4.86117567,19.326027 4.5991997,17.515169 C4.46354871,16.5781258 4.36011483,15.6385535 4.47965726,14.7402903 C4.78699153,12.4273997 5.02098949,10.0955406 5.74417882,7.850515 C6.46524861,5.61223375 7.40081652,3.47933297 8.66618589,1.49270029 C8.95105297,1.04546557 9.26516979,0.61635628 9.5563955,0.172493727 C9.65347074,0.0241180208 9.76368717,-0.0559711388 9.92434881,0.0451941154 C10.4194749,0.356698794 10.9124815,0.67199717 11.3974338,0.99951968 C11.5674214,1.11459516 11.5640301,1.25369738 11.4313465,1.43453027 C8.95741161,4.81513585 7.52544586,8.60293158 6.99513528,12.7384829 C6.94511398,13.1267045 6.91120123,13.5182984 6.8963644,13.9090492 C6.89212531,14.0148512 6.98411364,14.1244469 7.03201539,14.2319349 C7.11934072,14.1522673 7.25329607,14.0877744 7.28593709,13.9899814 C7.81539985,12.4181262 8.69543564,11.0920184 10.0260871,10.0791012 C11.564878,8.90769191 13.3342755,8.3394804 15.2389002,8.16412729 C17.2804476,7.975707 19.2995277,8.08867487 21.2300109,8.84362058 C24.3588857,10.0672986 26.1058161,12.3852475 26.6000944,15.6684815 C26.6170508,15.7810279 26.6301919,15.8939958 26.6556265,16.0870528" id="Fill-55"></path>
                <path d="M10.1646822,14.8194052 C9.90694527,15.018785 9.66870823,15.1776988 9.46353611,15.3711773 C9.33297203,15.4942617 9.15747356,15.6734085 9.16510393,15.8188336 C9.19011458,16.2858798 9.13288682,16.7175182 8.97052954,17.1613808 C8.84844365,17.4948046 8.84801975,17.8724882 8.79375935,18.2307818 C8.83063946,18.2362616 8.86709567,18.2417414 8.90397578,18.2467997 C8.98324682,17.9803978 9.06209396,17.713996 9.15069101,17.4147155 L9.15069101,21.0406468 C9.11041963,21.0524494 9.07057215,21.0638305 9.03030076,21.0756331 C8.8870194,20.9171409 8.72423822,20.7717158 8.60427188,20.5976273 C8.14729761,19.9328872 7.95229931,19.1813137 7.89337591,18.3863234 C7.87853909,18.1886297 7.83021342,17.9938865 7.7975724,17.7974573 C7.76408357,17.8016726 7.73059473,17.8058878 7.69710589,17.810103 C7.72974691,18.2417414 7.73059473,18.6780166 7.80096368,19.1033322 C8.00867925,20.3611535 8.55806576,21.391353 9.78740284,21.9612506 C9.90397791,22.0152054 9.94552102,22.2293385 10.0222486,22.3688623 C10.5830807,22.7052367 11.2854984,22.757927 12.2172512,22.6023854 C12.1515452,22.5555965 12.0455679,22.479301 11.9391666,22.4030055 C12.0137747,22.3342975 12.0799045,22.2179574 12.1638386,22.2040472 C13.2380249,22.0244789 13.8959322,21.3513084 14.369015,20.42944 C14.5894478,20.0007523 14.8136959,19.5611049 15.1129759,19.187215 C15.9985225,18.0811416 17.389369,18.012855 18.3825886,19.0211354 C18.6691513,19.312407 18.8806821,19.6803956 19.1070497,20.0260436 C19.2520266,20.2469211 19.3554605,20.4943544 19.4864485,20.7249269 C19.9972593,21.62319 20.7687743,22.1323885 21.8048087,22.2204866 C22.1257081,22.2478855 22.4516943,22.2415627 22.7742893,22.2263879 C24.1104516,22.1627381 25.0417804,21.50685 25.5729388,20.2928669 C25.9209684,19.4970336 26.0502607,18.6514607 26.0235544,17.7940852 C25.9731092,16.1990463 25.0782366,15.1102553 23.5322392,14.6980069 C23.4550877,14.6773523 23.3541973,14.6297203 23.2999369,14.6592268 C22.9383423,14.855656 22.6411818,14.7161323 22.3194346,14.5433083 C22.196077,14.4767079 21.9964157,14.5399362 21.8336345,14.5605907 C21.7590265,14.5702857 21.6916249,14.6436305 21.6182886,14.6486888 C20.7429158,14.7085449 19.8692386,14.7275134 18.9913224,14.8181406 C17.5695305,14.9644087 16.1214562,14.8573421 14.6844035,14.8522839 C14.560622,14.8518624 14.4355687,14.8206697 14.3139068,14.7920062 C14.09305,14.7405806 13.8755845,14.6427875 13.653456,14.6322494 C13.1795254,14.6099088 12.7034752,14.6330925 12.2286967,14.6322494 C12.1396758,14.6322494 12.0370897,14.6314064 11.9641773,14.5900973 C11.5885936,14.3768072 10.9302624,14.4775509 10.6441236,14.7814682 C10.4889728,14.9462833 10.2986375,14.9850633 10.1646822,14.8194052 L10.1646822,14.8194052 Z M16.9472316,14.0758405 C18.5928476,14.0758405 20.2397354,14.0362175 21.8832319,14.0935445 C22.6360949,14.1196788 23.4148164,14.2427632 24.1240167,14.488089 C25.5508955,14.9816911 26.3270735,16.0472984 26.4241488,17.5576114 C26.5055393,18.8255492 26.2868021,20.0399538 25.6259275,21.1460273 C24.7802283,22.5606547 23.3711537,23.1891439 21.7293528,22.9771184 C20.1791164,22.777317 19.0527893,22.0299587 18.3694474,20.6254477 C18.259231,20.3986689 18.1070475,20.1917017 17.9777552,19.9737749 C17.4826291,19.1412691 16.2325204,19.1471704 15.7395139,19.956914 C15.5780044,20.2224728 15.3940278,20.4783366 15.2626159,20.7586486 C14.5563829,22.2655894 13.2965243,22.8856481 11.703897,22.9948223 C8.97476864,23.1823995 7.76535529,21.2033542 7.43046692,19.4131508 C7.3071093,18.753469 7.25072936,18.0541642 7.32491349,17.3906887 C7.46692312,16.1248585 8.24479676,15.2598955 9.36010223,14.6845182 C10.1570518,14.2731128 11.0146204,14.093966 11.9065256,14.0796342 C12.7522248,14.0661455 13.5983478,14.0674101 14.4444708,14.064881 C15.2787244,14.0627734 16.112978,14.0644595 16.9472316,14.0644595 L16.9472316,14.0758405 Z" id="Fill-57"></path>
                <path d="M19.2254361,19.5911661 C18.6311152,18.6950106 17.9087737,18.0467099 16.7845661,18.0926558 C15.6565434,18.1390232 15.0113534,18.8728928 14.4734124,19.7989764 C14.288588,19.4937946 14.2716316,19.2383523 14.4356845,18.9660491 C14.9130064,18.1740095 15.6709563,17.8157159 16.5403944,17.7280393 C17.5993199,17.6209728 18.5276813,17.9472307 19.2411208,18.7793149 C19.4602819,19.0347572 19.506488,19.2750247 19.2254361,19.5911661" id="Fill-59"></path>
                <path d="" id="Fill-61"></path>
                <path d="M11.1989456,29.3870343 L12.6474438,31.354277 C12.6474438,31.354277 15.3672461,31.7757989 15.2612687,29.8789504 C15.2612687,29.8789504 13.7072171,28.6843573 13.7072171,27.2794249 L14.0603336,27.2794249 L14.7313821,26.8229167 C14.7313821,26.8229167 14.9496954,27.8767214 15.2642361,27.9821019 C15.5792007,28.0874823 14.8373594,28.9305261 14.8373594,28.9305261 C14.8373594,28.9305261 16.4270194,31.2535333 19.0764528,29.1084084 C19.0764528,29.1084084 18.8293137,28.5439906 18.4405888,28.1928628 L18.9001065,27.8413136 L19.0764528,26.8229167 L19.8182941,27.3144112 L20.2422035,27.3144112 C20.2422035,27.3144112 19.889087,29.1762734 18.5821745,29.8789504 L18.617359,32.161913 C18.617359,32.161913 18.7585208,33.5672669 16.8865372,33.4264786 L11.1989456,33.4365952 L9.11458333,30.6166137 C9.11458333,30.6166137 10.7398517,30.0897113 11.1989456,29.3870343" id="Fill-63"></path>
            </g>
        </g>
    </g>
</svg>
