<?xml version="1.0" encoding="UTF-8"?>
<svg width="100px" height="65px" viewBox="0 0 100 65" version="1.1" xmlns="http://www.w3.org/2000/svg" xmlns:xlink="http://www.w3.org/1999/xlink">
    <!-- Generator: Sketch 39.1 (31720) - http://www.bohemiancoding.com/sketch -->
    <title>Fill 1</title>
    <desc>Created with Sketch.</desc>
    <defs></defs>
    <g id="Page-1" stroke="none" stroke-width="1" fill="none" fill-rule="evenodd" fill-opacity="0.854506341">
        <g id="Desktop" transform="translate(-864.000000, -1254.000000)" fill="#113f68">
            <g id="ACTIVIDADES" transform="translate(-16.000000, 1035.000000)">
                <path d="M946.62221,232.569323 C956.72521,242.306323 961.83921,254.590323 963.87921,268.197323 C964.37321,271.492323 965.54221,273.143323 968.61121,274.142323 C973.00821,275.575323 977.31121,277.359323 979.81521,281.414323 C971.66521,281.922323 963.32721,276.309323 955.52221,283.141323 C954.80621,279.869323 954.79521,276.808323 957.19121,275.301323 C960.97521,272.922323 959.49121,270.579323 957.99321,268.013323 C949.49921,253.463323 936.18821,246.795323 920.00821,244.728323 C917.79721,244.445323 917.12321,245.312323 916.59321,247.198323 C915.53321,250.969323 915.76321,254.662323 917.22621,258.763323 C911.66121,256.726323 908.86921,252.731323 907.72821,248.027323 C906.85121,244.416323 905.02221,244.037323 902.08421,244.211323 C896.11121,244.563323 890.15621,245.001323 884.35221,246.579323 C882.95421,246.959323 881.23621,248.020323 880.33421,246.365323 C879.31021,244.488323 880.81521,243.242323 882.47121,242.599323 C884.70521,241.731323 885.45621,240.034323 886.35521,237.898323 C889.99121,229.258323 897.98921,226.568323 906.16021,224.542323 C909.67421,223.671323 913.39021,223.263323 917.01421,223.261323 C923.18121,223.257323 929.13621,223.012323 934.89921,220.230323 C938.81621,218.339323 943.13821,218.916323 947.80021,220.039323 C939.81421,226.152323 939.88621,226.077323 946.62221,232.569323 Z" id="Fill-1"></path>
            </g>
        </g>
    </g>
</svg>
