<?xml version="1.0" encoding="UTF-8"?>
<svg width="72px" height="87px" viewBox="0 0 72 87" version="1.1" xmlns="http://www.w3.org/2000/svg" xmlns:xlink="http://www.w3.org/1999/xlink">
    <!-- Generator: Sketch 39.1 (31720) - http://www.bohemiancoding.com/sketch -->
    <title>Fill 4</title>
    <desc>Created with Sketch.</desc>
    <defs></defs>
    <g id="Page-1" stroke="none" stroke-width="1" fill="none" fill-rule="evenodd">
        <g id="Desktop" transform="translate(-559.000000, -1246.000000)" fill="#113f68">
            <g id="ACTIVIDADES" transform="translate(-16.000000, 1035.000000)">
                <g id="Page-1" transform="translate(575.000000, 211.000000)">
                    <g id="Group-6" transform="translate(0.000000, 0.148553)">
                        <path d="M10.2088077,48.4248534 C8.52593684,47.7322921 6.85064498,47.0208178 5.18809952,46.280802 C3.98718086,45.7460787 3.77841531,44.8867387 4.49186986,43.7935648 C4.71028134,43.4593198 4.95005167,43.1367664 5.13780287,42.7860154 C6.1123866,40.9672684 6.13615694,40.9308178 7.710511,42.2399443 C9.14809952,43.4352486 10.4327311,44.8134937 12.1397167,45.671802 C12.5221091,45.8640273 12.8886545,46.193802 12.9995828,46.6284581 C12.9792574,47.2298929 10.7651713,48.6538731 10.2088077,48.4248534 M36.2793531,45.2962921 C38.3508172,44.6759443 39.8683292,45.1865964 41.1353914,46.9871182 C42.6932096,49.2013198 45.3592766,49.8275134 47.6419177,50.8845806 C49.2407311,51.6245964 50.6256115,52.4282289 51.6694392,53.8212605 C51.7783005,54.2074304 52.1455349,54.0420273 52.3828938,54.15413 C54.2462813,54.7600352 54.4815732,54.5880984 56.5747407,51.2944779 C56.5747407,53.1438296 56.5509703,54.9931814 56.5854201,56.8415016 C56.6009225,57.6867427 56.1472191,57.9363949 55.4244632,57.9807545 C53.4091522,58.1038613 51.4544727,58.0515925 49.6424153,56.9168099 C46.2563483,54.7961419 42.636023,53.0303514 39.7897837,50.1191182 C38.8493053,49.157304 37.5119656,48.8467862 36.2869321,48.4028455 C34.6860517,47.8227308 33.0534775,47.3306478 31.1122335,46.6951696 C32.8984536,45.7433277 34.6667598,45.7794344 36.2793531,45.2962921 M10.4854392,86.0404897 C10.7920421,81.9920668 11.3642526,77.9659957 11.6222813,73.9100075 C11.8000421,71.1194739 11.9919273,68.3234383 12.2620134,65.5470036 C12.7146833,60.8906123 12.6564632,56.2025846 13.2658794,51.5623553 C13.545956,49.4324028 14.6872766,48.8928652 16.4321569,50.0885134 C17.4759847,50.8037704 18.5546067,51.4488771 19.7035062,51.9801617 C20.9240612,52.5444581 22.1728651,52.9148099 23.5343196,52.5915688 C23.7585876,52.5379245 24.0383196,52.4320115 24.2091904,52.5382684 C26.5579751,54.0000747 28.9818603,52.5599324 31.3712957,52.6926676 C34.5206928,52.8676992 37.3373053,53.6035885 39.8349129,55.5495688 C41.9863005,57.2256083 44.3560995,58.4749008 47.0810756,58.9546043 C49.9948364,59.4680075 52.4404249,61.2685292 55.301822,61.9411458 C55.8251139,62.0642526 56.1065684,62.5673395 56.1454967,63.1326676 C56.1771904,63.5913949 56.1572096,64.0466834 56.029401,64.4947506 C54.4715828,69.9554621 52.5837359,75.2903158 49.8670278,80.2971142 C49.8625493,80.3053672 49.8597933,80.313964 49.8553148,80.322217 C51.2109129,78.905802 53.0226258,78.008636 54.504999,76.7393988 C58.6427598,73.19647 62.0956593,69.1184739 64.7813627,64.3919324 C67.9607311,58.7960787 69.990511,52.8309047 70.6526354,46.4049403 C70.7401378,45.552134 70.6674488,44.5304858 71.4890756,43.866466 C71.5579751,43.8286399 71.6248077,43.8135095 71.6902622,43.8107585 L71.6902622,38.7448138 C71.2245014,32.4443632 69.8472,26.3856557 66.8969225,20.7444107 C65.6570756,20.5903553 65.4128268,21.6178494 65.0042526,22.3874383 C61.7198124,28.5720036 59.0682144,35.0124107 57.2068938,41.7684937 C57.0890756,42.1952407 57.1252478,42.8173079 56.5809416,42.893304 C54.8260708,43.1381419 54.2810756,44.4844067 53.5221474,45.8045372 C52.1086737,48.2639206 50.9353148,48.3780866 49.0660708,46.215466 C47.2223196,44.0817308 45.156023,42.2248138 42.9770756,40.4559285 C42.0452096,39.6994067 41.0285971,39.2767862 39.8907215,39.0718375 C35.8880038,38.3503909 31.8577263,37.9934502 27.7861091,38.1774225 C26.7636402,38.2238455 26.0398507,37.2830075 26.6189512,36.5288929 C27.2734967,35.6764304 27.72031,34.6369008 28.6342622,33.9917941 C31.1993914,32.1816439 31.3847311,28.9887783 32.8874297,26.5544976 C33.3070278,25.8743158 33.4248459,24.8643593 33.9336689,24.0999285 C38.6229703,17.0532723 43.0787024,9.8573751 47.6240038,2.71856087 C48.0108746,2.11128024 48.5069512,1.45998379 47.9602335,0.671481818 C47.7731713,0.512612253 47.5857646,0.353742688 47.3993914,0.195216996 C46.8692096,0.56213004 46.521956,1.08241067 46.1774584,1.61300751 C43.4397359,5.82889684 40.6968459,10.0416913 37.9512,14.2524225 C36.5787215,16.3572723 35.2716976,18.5102644 33.7982813,20.5429008 C32.3841187,22.4933514 31.5514679,24.7845806 28.8747215,25.8760352 C25.8886163,27.0936913 23.053401,28.1648573 19.8657646,27.2615016 C18.3947598,26.8447269 17.0219368,26.0902684 15.5898603,25.5263158 C15.050377,25.313802 14.7940708,25.0397348 14.8047502,24.4145727 C14.845401,22.0452842 13.4784344,20.6013593 11.457956,19.7017862 C7.64712344,18.0054581 3.6502622,19.8665016 3.45010909,23.4548217 C3.34193684,25.3935806 3.88555407,27.3141142 3.97684593,29.2642209 C4.04505646,30.7201814 3.94205167,32.0110826 3.56241531,33.3191775 C2.57887464,36.7066755 1.24842488,39.9882605 0.431621053,43.4283711 C-0.457182775,47.1728099 -0.220512919,47.6050589 3.52486507,48.8230589 C6.18197512,49.687213 8.85355407,50.5066636 11.5192766,51.3443395 C12.1162909,51.5320945 12.6540517,51.6070589 12.5844632,52.5506478 C12.1534967,58.4205688 11.7876402,64.2956478 11.4352191,70.1707269 C11.1165589,75.474632 10.5657072,80.7554976 9.9576689,86.0325806 C10.1516211,85.9809996 10.3297263,85.977217 10.4854392,86.0404897" id="Fill-4"></path>
                    </g>
                </g>
            </g>
        </g>
    </g>
</svg>
